<svg width="64" height="64" fill="none" xmlns="http://www.w3.org/2000/svg"><path d="M8.92 57.602 3.784 0h56.432l-5.141 57.593L31.965 64 8.92 57.602Z" fill="#264DE4"/><path d="M50.673 53.926 55.067 4.71H32v54.393l18.673-5.177Z" fill="#2965F1"/><path d="m15.557 26.074.634 7.064H32v-7.064H15.557Zm-.63-7.235H32v-7.064H14.285l.642 7.064ZM32 44.422l-.031.008-7.868-2.125-.503-5.634h-7.092l.99 11.092 14.472 4.018.032-.01v-7.35Z" fill="#EBEBEB"/><path d="M31.976 26.074v7.064h8.699l-.82 9.163-7.88 2.126v7.35l14.484-4.014.106-1.193 1.66-18.6.172-1.896 1.276-14.3H31.976v7.065h9.955l-.643 7.235h-9.312Z" fill="#fff"/></svg>