<svg width="64" height="64" fill="none" xmlns="http://www.w3.org/2000/svg"><g clip-path="url('#clip0_221_1572')"><path d="M42.272 23.95H30.037V0h12.235c6.603 0 11.973 5.37 11.973 11.973 0 6.603-5.37 11.976-11.973 11.976Zm-8.312-3.923h8.312c4.44 0 8.05-3.614 8.05-8.051s-3.613-8.05-8.05-8.05H33.96v16.1Zm0 3.922H21.728c-6.603 0-11.973-5.37-11.973-11.973C9.755 5.373 15.125 0 21.728 0h12.235v23.95h-.003ZM21.728 3.923c-4.44 0-8.05 3.613-8.05 8.05 0 4.438 3.61 8.054 8.05 8.054h8.312V3.923h-8.312Zm12.232 40.05H21.728c-6.603 0-11.973-5.37-11.973-11.973 0-6.603 5.37-11.973 11.973-11.973h12.235v23.946h-.003ZM21.728 23.95c-4.44 0-8.05 3.614-8.05 8.051s3.613 8.05 8.05 8.05h8.312v-16.1h-8.312ZM21.792 64c-6.637 0-12.04-5.37-12.04-11.973 0-6.603 5.37-11.974 11.973-11.974H33.96v11.843C33.96 58.571 28.5 64 21.792 64Zm-.064-20.027a8.062 8.062 0 0 0-8.05 8.051c0 4.44 3.64 8.05 8.117 8.05 4.546 0 8.248-3.669 8.248-8.18v-7.92h-8.315Zm20.544 0h-.261c-6.603 0-11.974-5.37-11.974-11.973 0-6.603 5.371-11.973 11.974-11.973h.261c6.603 0 11.973 5.37 11.973 11.973 0 6.603-5.37 11.973-11.973 11.973Zm-.259-20.024c-4.44 0-8.05 3.614-8.05 8.051s3.613 8.05 8.05 8.05h.262c4.44 0 8.05-3.613 8.05-8.05 0-4.437-3.616-8.05-8.053-8.05h-.259Z" fill="#fff"/></g><defs><clipPath id="clip0_221_1572"><path fill="#fff" d="M0 0h64v64H0z"/></clipPath></defs></svg>