<svg width="64" height="64" fill="none" xmlns="http://www.w3.org/2000/svg"><path d="M19.527 53.865c-2.361-1.88-4.88-3.684-6.603-6.224-3.622-4.478-6.412-9.662-8.318-15.11-1.153-3.544-1.548-7.342-3.034-10.748-1.554-2.474.267-5.178 2.943-5.965 1.192-.231 3.287-1.37.758-.556-2.268 1.685-2.487-1.529-.162-1.732 1.587-.214 2.17-1.529 1.628-2.713-1.703-1.124 4.13-2.36 1.195-4.038-3.057-3.34 4.277-3.983 2.467-.19-.433 2.917 5.125-.534 3.836 2.834 1.31 1.617 4.908.368 4.819 2.637 1.91.133 2.565 1.76 4.357 1.885 1.858.85 5.225 1.518 5.857 3.638-1.843 1.477-6.11-3.052-6.315 1.038.556 6.04.415 12.264 2.598 18.017 1.032 3.483 3.535 6.226 5.796 8.939 2.163 2.657 5.092 4.527 8.079 6.102 2.62 1.251 5.443 2.08 8.298 2.601 1.158-.897 3.202-4.23 5.009-2.825.085 1.58-3.586 3.303-.173 3.128 2.004-.612 3.394 1.569 5.044-.398 1.52 1.823 6.318-1.165 5.237 2.561-1.463.956-3.596.379-5.061 1.693-2.416-1.222-4.339 1.093-7.013.8-2.97.539-5.991.756-9.002.761-4.94-.395-9.984-.562-14.683-2.303-2.647-.779-5.23-2.305-7.556-3.832Zm4.172 1.83c2.585 1.132 5.112 2.325 7.945 2.685 4.495.633 9.136 1.606 13.646.718-2.041-.933-4.152.364-6.185-.667-2.44.531-5.057-.136-7.536-.464-2.82-1.272-5.863-2.146-8.504-3.797-3.3-1.22 1.707 1.565 2.598 1.79 2.062 1.186-2.269-.607-2.88-1.1-1.727-.981-1.947-.776-.17.22.358.213.711.435 1.086.615Zm-4.918-3.519c2.504.94-.011-1.783-1.16-1.625-.508-.894-1.942-1.458-.93-1.938-1.82.64-1.907-2.432-2.762-1.993-1.926-.616-.75-2.797-3.043-4.136-.21-1.41-2.279-2.635-2.939-4.763-.292-1.09-2.338-4.22-1.08-1.307 1.07 2.804 2.953 5.205 4.52 7.603 1.217 2.283 2.654 4.67 4.87 6.094.747.726 1.469 1.838 2.524 2.065Zm-7.216-8.021c.458.829.087-.383 0 0Zm10.215 9.147c.555-.251-.797-.317 0 0Zm1.36.502c-.14-.693-.62.388 0 0Zm1.702.72c.81-.782-1.249-.493 0 0Zm2.917 1.645c.492-.737-1.576-.278 0 0Zm-5.602-3.953c1.26-.825-1.625-.012 0 0Zm1.277.644c-.035-.436-.455.195 0 0Zm6.382 4.033c1.025.655 5.99 1.437 2.881.269-.52.11-5.764-1.502-2.881-.27Zm-10.13-7.989c-.1-.437-1.593-.482 0 0Zm2.97 1.753c.773-.546-1.605-.42 0 0Zm2.499 1.552c1.109-.424-1.8-.426 0 0Zm-6.679-4.638c1.204.935 4.855.12 1.844-.558-1.37-.74-4.46-1.245-2.354.447l.51.111Zm8.371 5.173c.501-.865-2.103-.494 0 0Zm-2.544-2.047c2.944.843-2.475-1.884-.726-.31l.388.178.338.133Zm5.1 2.985c-2.518-.39 2.788.027 0 0Zm-12-7.744c-.108-.525-.687.044 0 0ZM34.12 56.36c.074-.95-.91.706 0 0ZM22.16 48.888c-.169-.5-.871-.02 0 0Zm-4.493-3.28c1.6-.097-2.19-.713 0 0Zm-5.322-3.483c-.2-.776-1.742-1.396 0 0Zm13.972 8.978c-.138.074-.293-.338 0 0Zm8.697 5.404c-.028-.517-.474.196 0 0Zm-9.467-6.208c.157-.667-1.364-.202 0 0ZM19.07 46.14c1.191-.129-1.907-.815 0 0Zm10.96 6.895c1.856-.744-1.808-.363 0 0Zm-5.7-3.918c2.138.28-2.545-1.472-.47-.157l.47.157Zm7.43 4.627c1.997-1.209 1.34 2.83 3.388.341 2.02-1.494-1.745 1.847.745.266 1.801-1.22 4.462.579 6.143 1.165 1.208-.06 2.383 1.058 3.623.378 2.385-.65-4.665-.965-2.817-2.119-2.182.643-3.795-.767-4.869-2.182-2.448-.572-5.279-1.84-6.5-4.033-.499-.824.72.116-.43-1.23-1.476-1.329-2.212-2.837-3.203-4.452-1.183-.639-1.32-2.52-1.44-.063.01-1.55-1.428-2.594-1.78-2.16-.006-1.494 1.54-.745.458-1.85-.233-1.548-1-3.16-1.23-4.908-.358-.842-.05-2.646-1.221-.74-.427 2.016-.142-2.476.521-.995.872-1.511-.312-1.333-.36-1.123.567-1.276.358-3.085-.149-2.395.303-1.351.478-4.974-.452-4.332.564-1.413 1.07-6.467-1.378-4.54-.992.014-2.71.364-3.522.773 2.546 1.421-.256.513-1.293.287-.135 1.315-1.161.747-2.444.76 2.049.256-.997 2.12-2.172 1.396-1.526.739 1.317 2.582.03 3.152.159.86-2.337-.31-2.141 1.674-1.482-.63-.204 2.354.537 1.345 2.52.69 1.774 2.264 1.838 3.76-.41.87-2.027-2.049-.36-1.913-1.315-2.164-1.455-.782-2.548.223-.254.073 2.788 1.43.88 2.1 1.678.263 1.726 1.75 2.068 2.692 1.01 1.065.803-1.175 2.01.104-.764-1.14-4.048-3.211-1.404-2.547-.014-1.147-.478-2.072.332-2.05.803-1.47-.84 3.627.968 1.758.501-.221.625-1.473 1.525.118 1.307 1.302.472 2.245-1.372 1.053.33 1.133 2.466 1.538 2.065 3.31.425 1.557 1.02.983 1.54.893.407 1.514.638.4.657-.32 1.864.405 1.428 1.52 2.011 2.3 1.285.587-1.838-3.98.367-1.373 2.32 2.12.87 3.006-1.212 2.666 1.318-.108 1.743 1.804 3.391 1.737 1.503.724 2.52 3.505-.07 2.347-.899-.82-4.079-1.832-1.481-.272 2.399 1.125 4.304 1.798 6.618 3.21 1.655 1.197 2.37 2.568 2.998 2.839-1.391.673-4.194-.538-2.113-.908-1.297-.24-2.757-.904-1.514.733 1.057.894 3.745.799 4.227.9-.409.911-1.11.984.017 1.055-1.257.677.402.782.519 1.17Zm-2.568-7.346c-.765-.81-.962-2.326-.136-1.007.424.173 1.357 2.478.136 1.007Zm8.367 5.381c.477-.031.014.367 0 0Zm-9.574-7.366c.276.944-.03-1.224 0 0Zm-.832-1.133c1.212.533-.961-1.88 0 0ZM17.075 36.24c.565-.153.278.978 0 0Zm8.02 4.402c.408 1.106.347-1.32 0 0Zm-5.666-3.99c.836.683-.4-.727 0 0Zm4.863 1.579c-.911-2.067.645-1.129.201.338l-.201-.338Zm-8.386-5.663c-.407-.677-1.081-2.667-.864-3.274.196.99 2.077 4.256.922 1.354-1.275-2.434 1.525.79 1.813 1.396.135.604-.787-.165-.162 1.25-1.139-1.611-.672.89-1.71-.726Zm-2.592-1.808c.594 1.081.107-1.576 0 0Zm1.166.407c.943 1.658.556-1.19 0 0Zm-2.804-2.197c-.965-.97-1.664-1.866.045-.602.658.026-1.463-2.036.158-.655 1.705.315.842 2.83-.203 1.257Zm1.473-.039c.56-.562.297.553 0 0Zm.906.294c1.031.676-.85-1.612 0 0Zm-1.802-1.743c-2.805-2.528 3.525 1.321.458.468l-.458-.468Zm8.037 4.728c-1.214-.737-.322-5.188.092-2.144 1.18-.386-.065 1.572.815 1.554-.138 1.236-.532 1.68-.907.59Zm2.973 1.779c.25.917.119-1.342 0 0Zm-.517-.517c.134-.573.014.675 0 0Zm-9.942-6.82c-1.803-2.518 5.237 2.546 1.154.638-.427-.113-.94-.154-1.155-.639Zm5.724 3.072c.38.352-.17-2.12 0 0Zm4.346 2.823c.336-1.207.025.799 0 0ZM13.08 25.69c1.07-.232 4.438 1.904 1.346.61-.344-.385-1.076-.21-1.346-.61Zm9.197 4.64c.114-2.167.64-1.294.004.311l-.004-.31Zm-8.4-5.395c.436-.648-1.159-2.93.23-.818.6.482 1.737.808.733 1.011 1.579 1.41-.385.382-.963-.193Zm7.945 4.719c.301-2.47.266 1.446 0 0Zm-8.857-6.999c.334-.144.177.45 0 0Zm2.073 1.249c.984 1.264.533-1.133 0 0Zm5.846 3.292c.11.633-.006-.435 0 0Zm-.34-.759c.756 1.073-.81-2.026 0 0Zm-.497-1.328c.463 1.052-.137-.838 0 0Zm.81-1.335c-.556-.993.704-4.378.844-2.279-.588 1.636-.17 2.55.24.357.758-1.726-.163 3.407-1.083 1.922Zm.834-5.033c.242-.302.054.364 0 0Zm-1.392 27.76c.042.186-.33-.291 0 0Zm2.867 1.468c1.594.415 1.586-.25.145-.448-.775-.73-3.22-1.505-1.032-.091.145.372.603.363.887.54Zm-5.661-3.807c.878.664 3.308 1.88 1.251.253.694-.816-1.328-1.25-.657-1.796-1.706-1.057-1.346-.963-.15-.93-2.05-.927.295-.858.185-1.333-.79-.158-3.926-1.411-2.081.103-1.875-.968-.447.36-1.014.22-1.917-.53 1.708 1.478-.304.98 1.1.883 2.96 2.26.465.934-.33.48 1.786 1.206 2.305 1.57Zm2.998 1.744c3.645 1.19-1.788-1.453 0 0Zm15.346 9.413c.047-.732-.498.625 0 0Zm1.577.672c.841-.825.035 1.315 1.394-.202.015-1.085-.042-1.726-1.562-.407-.419.235-.606 1.235.168.61Zm-25.038-15.92c-.258-1.029-1.81-1.023 0 0Zm1.684 1.117c-.625-1.05-2.231-.95 0 0Zm9.582 5.85c.936.842 4.297.618 1.137.104-.468-.7-2.973-.532-1.137-.103Zm13.172 8.237c1.44-1.223-1.395.546 0 0Zm2.995 2.084c.009-.393-.62.172 0 0Zm.005-.55c-1.545.102 1.594-1.71 0 0ZM8.246 36.56c-1.36-1.963-.845-2.846-2.156-4.449-.248-1.226-2.248-4.007-1.034-1.06 1.111 1.723 1.442 4.392 3.19 5.509Zm31.08 19.707c2.933-1.92-1.205-.837 0 0Zm2.239.888c1.469-1.277-.93-.267 0 0ZM11.889 37.9c.42-.633-1.086-.08 0 0Zm29.208 18.647c1.422-.928-.328-.786-.258.086l.258-.086ZM21.795 44.23c-.05-.627-.752.053 0 0Zm1.192.695c-.379-.776-.582.122 0 0Zm20.392 12.25c1.823-1.33-1.104-.254-.382.253l.382-.252Zm-.697-.34c1.484-1.26-1.568.557 0 0Zm3.565 2.403c.996-.676-1.211-.218 0 0ZM12.803 37.444c1.336.303 5.338 3.33 2.977.21-1.21-.363-.484-3.357-1.718-2.827.828 1.4.681 1.997-1.057 1.114-2.185-1.08-1.228.535-.8.98-.583.134.769.511.598.523Zm-6.087-4.867c.24-1.002-2.202-5.51-1.153-2.26.38.682.34 1.972 1.153 2.26Zm11.172 6.973c-.033-.082-.688-.582 0 0Zm1.694.4c-.001-1.062-1.873-.431 0 0Zm14.68 9.37c-1.107-.017-.28-.725 0 0Zm.705.52c-.105-.405-.407.08 0 0Zm5.818 3.712c.56-.419-.698-.054 0 0ZM9.757 33.362c1.6-.627-1.715-.447 0 0ZM32.969 48.17c-.017-1.05-1.02.26 0 0ZM9.124 31.87c1.028-.351-.951-.231 0 0Zm2.984 1.464c-.018-.345-.315.13 0 0Zm36.401 22.6c1.322-.27 4.335.682 4.822-.354-1.605-.04-5.555-1.147-5.742.264l.352.056.568.035ZM13.057 33.577c.023-1.063-.819-.04 0 0Zm-7.847-5.51c-.356-2.026-1.355-.307 0 0Zm1.871.475c.023-.65-1.712-.585 0 0Zm1.07.532c-.242.32-.31-.253 0 0Zm6.728 4.37c.317-.294-.75-.218 0 0Zm-7.44-5.57c-.181-1.53-2.168-.228 0 0Zm-3.837-2.52c-.054-.706-.373.267 0 0Zm.571-.436c-.093-.837-.49.107 0 0Zm3.153 1.906c1.333-.53-2.429-1.097-.273-.1l.273.1ZM49.52 53.212c.854-.792-1.084-.245 0 0Zm5.098 2.675c.342-1.024-.861.135 0 0ZM7.648 25.15c.14-.991-1.057.196 0 0Zm-4.486-3.043c-.24-1.399-.208-3.854 2.097-3.024-3.076.618 2.13 3.871 1.472 1.303 1.294.064 2.53-.774 1.852.498 2.549-.285 4.316-2.523 6.778-2.21 1.918-.256 4.015-.451 6.081-1.233 1.7-.124 3.335-1.976 2.404-3.074-2.317-.199-4.743.095-7.304.61-2.838.598-5.416 1.733-8.28 2.22-2.791.38.562 1.046-.238 1.194-1.456.512 1.737.857-.189 1.396-1.19-.229-2.427-.642-1.919-1.911-2.674.35-5.023 1.474-2.91 4.23h.156Zm6.443-3.323c.627-2.338 3.359 1.925 1.028.311-.279-.211-.737-.383-1.028-.31Zm.122-1.133c.905-.683.481.382 0 0Zm1.149.018c.082-1.076 2.63.57.42.387l-.42-.387Zm1.571-.64c.574-.679.165.604 0 0Zm.403-.272c.955-1.163 5.411-.742 2.15-.114-.875-.666-1.545.393-2.15.114Zm5.815-.908c2.889 1.129-.145-3.175 0 0Zm1.65-.009c.603-1.6 2.341-.642.28-.322.044.17-.061.827-.28.322ZM6.997 24.328c1.803-1.117-1.913-.97 0 0Zm1.333.375c.632-.68-1.373-.276 0 0Zm-3.927-2.822c1.03-.8-1.219-.304 0 0Zm53.225 33.714c.03-.93-.788.419 0 0Zm-5.409-3.737c.154-1.07-.695.093 0 0Zm6.896 4.097c1.44.005 4.363-.453 1.23-.451-.492.077-2.865.06-1.23.451ZM9.502 24.047c1.166-.08 1.824-1.302-.225-1.231-3.175-.333 2.802 1.1-.407.69-.431.29.607.621.632.541Zm1.027.526c-.122-.758-.36.403 0 0Zm1.217-3.287c.506-.635-.7-.17 0 0Zm-3.876-6.56c2.08-.716 4.925-1.521 5.907.353-1-1.218-.404-2.417.54-.636 1.335 1.802 2.003-.82 1.135-1.424.99 1.245 2.115 1.833.663.079 1.578-1.922-3.16.251-4.237.23-.518.235-5.35 1.247-4.008 1.398Zm1.22-2.363c1.186-.907 4.102.539 2.23-.901-.182-.164-4.098 1.092-2.23.9Zm4.324.18c1.388.036-.599-1.888 1.056-1.016-.272-.899-1.927-1.067-2.735-1.426-.458.822.93 2.453 1.679 2.442ZM9.848 8.57c.48-.66-.842.334 0 0Zm1.767.428c2.237-.3-.57-.975-.45-.024l.45.024Zm-3.3-2.615c-1.575-2.082 2.963.35 1.362-1.83-1.347-1.086-2.642 1.223-1.362 1.83Zm20.216 11.025c.723-1.296-2.983-1.748-.487-.46.23.079.178.55.487.46Z" fill="#fff"/></svg>