<svg width="64" height="64" fill="none" xmlns="http://www.w3.org/2000/svg"><path d="M61.17 29.3 34.7 2.831a3.905 3.905 0 0 0-5.523 0L23.681 8.33l6.972 6.972a4.638 4.638 0 0 1 5.872 5.912l6.72 6.72a4.637 4.637 0 0 1 4.8 1.102 4.646 4.646 0 1 1-6.572 6.57 4.647 4.647 0 0 1-1.01-5.053l-6.268-6.267v16.493a4.647 4.647 0 1 1-3.82-.135V23.996a4.646 4.646 0 0 1-2.522-6.093l-6.873-6.874L2.83 29.176a3.906 3.906 0 0 0 0 5.523L29.3 61.17a3.905 3.905 0 0 0 5.523 0l26.346-26.347a3.906 3.906 0 0 0 0-5.523Z" fill="#fff"/></svg>