<svg width="64" height="64" fill="none" xmlns="http://www.w3.org/2000/svg"><path d="M8.875 57.5 3.75 0h56.375L55 57.5 31.875 64" fill="#E34F26"/><path d="m32 59 18.625-5.125L55 4.625H32" fill="#EF652A"/><path d="M32 26h-9.375L22 18.75h10v-7H14.25l.125 1.875 1.75 19.5H32V26Zm0 18.375h-.125L24 42.25l-.5-5.625h-7l.875 11.125 14.5 4H32v-7.375Z" fill="#EBEBEB"/><path d="M31.875 26v7.125h8.75l-.875 9.125-7.875 2.125v7.375l14.5-4 .125-1.25 1.625-18.625.25-1.875h-16.5Zm0-14.25v7H49l.125-1.5.375-3.625.125-1.875h-17.75Z" fill="#fff"/></svg>