<svg width="64" height="64" fill="none" xmlns="http://www.w3.org/2000/svg"><path d="M58.787 31.48c0-3.614-2.654-6.63-6.15-7.273L61 .007H21.467l8.376 24.249c-3.375.736-5.906 3.695-5.906 7.225 0 2.65 1.427 4.978 3.567 6.287a24.941 24.941 0 0 1-3.648 4.214c-2.218 2.053-4.69 3.61-7.354 4.634-2.683-1.654-3.817-4.772-2.64-7.489l.266-.612c2.947-1.008 5.069-3.76 5.069-6.992 0-4.082-3.386-7.403-7.547-7.403-4.16 0-7.546 3.321-7.546 7.403 0 2.06.863 3.927 2.252 5.27a123.57 123.57 0 0 1-.789 1.61c-1.27 2.56-2.71 5.462-3.254 8.684-1.082 6.398.663 11.513 4.912 14.402 2.578 1.753 5.197 2.443 7.832 2.442 4.961 0 9.98-2.445 14.89-4.837 3.535-1.723 7.19-3.504 10.802-4.378 1.343-.325 2.726-.52 4.19-.728 2.902-.41 5.904-.835 8.563-2.346 3.081-1.75 5.19-4.688 5.787-8.059.512-2.893-.104-5.791-1.607-8.249a7.254 7.254 0 0 0 1.105-3.853Zm-2.962 0c0 2.48-2.056 4.498-4.584 4.498-2.527 0-4.584-2.018-4.584-4.497 0-2.48 2.057-4.497 4.584-4.497 2.528 0 4.584 2.017 4.584 4.497Zm1.042-28.567-7.385 21.37c-.318.074-.63.17-.935.284L41.25 9.966 33.934 24.48a7.567 7.567 0 0 0-.975-.26l-7.36-21.308h31.268Zm-25.384 24.07c2.527 0 4.584 2.018 4.584 4.498 0 2.48-2.056 4.497-4.584 4.497-2.527 0-4.584-2.018-4.584-4.497 0-2.48 2.057-4.497 4.584-4.497Zm-19.833.043c2.528 0 4.584 2.018 4.584 4.497 0 2.48-2.056 4.497-4.584 4.497-2.527 0-4.584-2.017-4.584-4.497s2.057-4.497 4.584-4.497Zm44.72 16.06c-.446 2.52-2.033 4.723-4.353 6.041-2.164 1.23-4.756 1.596-7.501 1.985-1.47.208-2.991.423-4.477.782-3.927.95-7.732 2.804-11.41 4.597-7.363 3.587-13.721 6.685-19.717 2.61-4.391-2.987-4.188-8.511-3.677-11.539.474-2.805 1.756-5.388 2.996-7.886.21-.425.42-.85.627-1.277a7.595 7.595 0 0 0 1.95.48c-1.261 4.086.723 8.529 4.889 10.628l.57.288.603-.211c3.293-1.15 6.327-2.997 9.019-5.488a27.703 27.703 0 0 0 4.464-5.295 7.74 7.74 0 0 0 1.13.083c4.056 0 7.535-3.313 7.546-7.403 0-2.196-.98-4.17-2.532-5.527l4.742-9.409 4.791 9.588c-1.437 1.35-2.335 3.247-2.335 5.348 0 4.082 3.385 7.403 7.546 7.403a7.603 7.603 0 0 0 4.303-1.327c.848 1.703 1.164 3.62.826 5.529Z" fill="#fff"/></svg>