<svg width="64" height="64" fill="none" xmlns="http://www.w3.org/2000/svg"><path d="M57.306 31.48c0-3.285-2.715-5.95-6.065-5.95a6.24 6.24 0 0 0-.637.033l8.33-24.103h-35.4l8.318 24.083a6.126 6.126 0 0 0-.369-.012c-3.35 0-6.065 2.664-6.065 5.95 0 2.656 1.775 4.905 4.224 5.67a26.08 26.08 0 0 1-4.77 5.888c-2.512 2.325-5.388 4.089-8.498 5.175-3.703-1.866-5.452-6.016-3.874-9.655.178-.411.36-.828.534-1.243 2.683-.614 4.682-2.974 4.682-5.793 0-3.286-2.716-5.95-6.065-5.95-3.35 0-6.066 2.664-6.066 5.95 0 2.016 1.023 3.795 2.585 4.872-1.502 3.353-3.708 6.862-4.396 10.93-.824 4.874-.002 10.048 4.295 12.97 10.008 6.804 20.871-4.219 32.325-6.99 4.151-1.004 8.708-.842 12.365-2.92 2.747-1.56 4.557-4.147 5.071-7.05.508-2.869-.233-5.725-1.934-8.04a5.858 5.858 0 0 0 1.41-3.814Zm-19.758.022v-.021c0-2.158-1.17-4.048-2.923-5.091l6.62-13.134 6.633 13.273c-1.629 1.067-2.702 2.886-2.702 4.952l.003.129-7.631-.108Z" fill="#C63D14"/><path d="M58.787 31.48c0-3.614-2.654-6.63-6.15-7.274L61 .006H21.467l8.376 24.25c-3.375.736-5.906 3.695-5.906 7.225 0 2.65 1.427 4.978 3.567 6.287a24.937 24.937 0 0 1-3.648 4.214c-2.218 2.053-4.69 3.61-7.354 4.634-2.683-1.654-3.817-4.772-2.64-7.489l.093-.212.173-.4c2.947-1.008 5.069-3.76 5.069-6.992 0-4.082-3.386-7.403-7.547-7.403-4.16 0-7.546 3.321-7.546 7.403 0 2.06.863 3.927 2.252 5.27a123.57 123.57 0 0 1-.789 1.61c-1.27 2.56-2.71 5.462-3.254 8.684-1.082 6.398.663 11.513 4.912 14.402 2.578 1.753 5.197 2.443 7.832 2.442 4.961 0 9.98-2.445 14.89-4.837 3.535-1.723 7.19-3.504 10.802-4.378 1.343-.325 2.726-.52 4.19-.728 2.902-.41 5.904-.835 8.563-2.346 3.081-1.75 5.19-4.688 5.787-8.059.512-2.893-.104-5.791-1.607-8.249a7.254 7.254 0 0 0 1.105-3.853Zm-2.962 0c0 2.48-2.056 4.498-4.584 4.498-2.527 0-4.584-2.018-4.584-4.497 0-2.48 2.057-4.497 4.584-4.497 2.528 0 4.584 2.017 4.584 4.497Zm1.042-28.567-7.385 21.37c-.318.074-.63.17-.935.284L41.25 9.966 33.934 24.48a7.567 7.567 0 0 0-.975-.26l-7.36-21.308h31.268Zm-25.384 24.07c2.527 0 4.584 2.018 4.584 4.498 0 2.48-2.056 4.497-4.584 4.497-2.527 0-4.584-2.018-4.584-4.497 0-2.48 2.057-4.497 4.584-4.497Zm-19.833.043c2.528 0 4.584 2.018 4.584 4.497 0 2.48-2.056 4.497-4.584 4.497-2.527 0-4.584-2.017-4.584-4.497s2.057-4.497 4.584-4.497Zm44.72 16.06c-.446 2.52-2.033 4.722-4.353 6.041-2.164 1.23-4.756 1.596-7.501 1.984-1.47.209-2.991.424-4.477.783-3.927.95-7.732 2.804-11.41 4.597-7.363 3.587-13.721 6.685-19.717 2.61-4.391-2.987-4.188-8.511-3.677-11.539.474-2.805 1.756-5.388 2.996-7.886.21-.425.42-.85.627-1.277a7.599 7.599 0 0 0 1.95.48c-1.261 4.086.723 8.529 4.889 10.628l.57.288.603-.211c3.293-1.15 6.327-2.997 9.019-5.488a27.7 27.7 0 0 0 4.464-5.295c.374.055.752.083 1.13.083 4.161 0 7.546-3.32 7.546-7.403 0-2.196-.98-4.17-2.532-5.527l4.742-9.409 4.791 9.588c-1.437 1.35-2.335 3.247-2.335 5.348 0 4.082 3.385 7.403 7.546 7.403a7.603 7.603 0 0 0 4.303-1.327c.848 1.703 1.164 3.62.826 5.529Z" fill="#fff"/></svg>