<svg width="64" height="64" fill="none" xmlns="http://www.w3.org/2000/svg"><g clip-path="url('#clip0_7_196')"><path fill-rule="evenodd" clip-rule="evenodd" d="M64 0H0v64h64V0ZM21.747 50.521c.945 1.677 1.804 3.094 3.87 3.094 1.976 0 3.223-.773 3.223-3.78V29.387h6.014v20.531c0 6.227-3.651 9.061-8.98 9.061-4.816 0-7.604-2.491-9.023-5.493l4.896-2.964Zm27.177 3.131c-2.966 0-4.643-1.547-5.932-3.652l-4.888 2.84c1.766 3.488 5.374 6.15 10.96 6.15 5.712 0 9.965-2.967 9.965-8.381 0-5.023-2.885-7.257-7.995-9.448l-1.503-.644c-2.58-1.117-3.698-1.848-3.698-3.652 0-1.46 1.117-2.577 2.878-2.577 1.727 0 2.84.728 3.87 2.577l4.684-3.007c-1.981-3.484-4.73-4.815-8.554-4.815-5.37 0-8.807 3.433-8.807 7.944 0 4.896 2.882 7.213 7.222 9.061l1.504.646c2.743 1.2 4.378 1.93 4.378 3.992 0 1.72-1.592 2.966-4.084 2.966Z" fill="#fff"/></g><defs><clipPath id="clip0_7_196"><path fill="#fff" d="M0 0h64v64H0z"/></clipPath></defs></svg>