<svg width="64" height="64" fill="none" xmlns="http://www.w3.org/2000/svg"><path fill-rule="evenodd" clip-rule="evenodd" d="M29.897 52.712c.182-.507.328-1.018.45-1.569.31-1.396.465-3.046.665-5.53l2.355.07c.028 1.472.155 2.913.434 4.045.14.566.307 1.01.488 1.327.184.32.34.441.427.483l.839.408-.211.899a61.095 61.095 0 0 0-1.229 7.12L33.999 61h-3.28l-.099-1.057a155.124 155.124 0 0 0-.703-6.125l-.007-.05c-.02-.155-.038-.278-.05-.363l-.014-.108-.006-.036-.04-.281.097-.268Zm2.318.505.04.296a163.007 163.007 0 0 1 .196 1.514l.009.074a64.786 64.786 0 0 1 .415-2.032l.003-.014a3.764 3.764 0 0 1-.446-.542l-.005.017c-.065.23-.136.459-.212.687Z" fill="#fff"/><path fill-rule="evenodd" clip-rule="evenodd" d="m30.715 3.998 2.23-.708.004-.001a24.78 24.78 0 0 0 1.533 2.931c.292.446.795.958 1.566 1.745l.234.24c.87.888 1.938 2.005 3.055 3.473 2.244 2.949 4.635 7.247 6.176 13.959l.007.03.006.03c2.433 14.038-5.053 24.017-10.662 27.845l-.554.378-.612-.279a2.868 2.868 0 0 1-.823-.572 3.661 3.661 0 0 1-.448-.54 4.504 4.504 0 0 1-.199-.317c-.326-.572-.555-1.244-.722-1.934-.333-1.379-.461-3.023-.495-4.547l-.001-.056.004-.056c.368-4.888.476-9.79.322-14.69-.02-.632-.028-2.37-.038-4.677-.011-2.47-.025-5.594-.06-8.712a379.57 379.57 0 0 0-.17-8.548c-.021-.59-.043-1.14-.067-1.646-.08-1.663-.176-2.843-.286-3.348Zm2.7 4.613.01.301c.087 2.503.14 5.565.172 8.602.035 3.188.05 6.333.06 8.794.01 2.255.018 3.935.036 4.55.156 4.961.048 9.927-.323 14.877.035 1.444.158 2.875.43 4.003.139.572.304 1.017.484 1.332l.001.002c4.898-3.774 11.045-12.626 8.921-24.951-1.467-6.373-3.714-10.362-5.755-13.045-1.028-1.35-2.015-2.386-2.866-3.254l-.269-.275a41.84 41.84 0 0 1-.902-.936Z" fill="#fff"/><path d="M32.381 54.475c.069-.006.137-.013.204-.021.091-.463.188-.925.29-1.385a3.661 3.661 0 0 1-.448-.54c-.065.231-.136.46-.212.688l.04.296c.034.251.077.577.126.962Z" fill="#fff"/><path d="m32.45 55.027.01.074c.04-.216.082-.432.125-.647a4.275 4.275 0 0 1-.204.021l.07.552Z" fill="#fff"/><path fill-rule="evenodd" clip-rule="evenodd" d="M30.556 3.375 32.816 3l.128.29-2.23.708c.11.505.208 1.685.287 3.348-2.354 2.045-9.947 8.68-10.614 22.482-.32 6.61 2.139 11.969 4.885 15.809 1.85 2.586 3.808 4.45 5.075 5.506-.123.55-.268 1.062-.45 1.57l-.096.267.04.281.005.036.014.108c.012.085.03.208.05.363-1.26-.905-4.022-3.234-6.565-6.789-2.954-4.13-5.665-9.992-5.314-17.262C18.747 14.9 27.002 7.72 29.45 5.59l.253-.221c.395-.348.56-.607.653-.842.105-.263.157-.585.199-1.153Z" fill="#fff"/></svg>