<svg width="64" height="64" fill="none" xmlns="http://www.w3.org/2000/svg"><path d="M20.387 29.828c-.32 6.61 2.139 11.969 4.885 15.809 1.85 2.586 3.808 4.45 5.075 5.506.31-1.396.465-3.046.665-5.53h.002c.368-4.886.476-9.787.322-14.683v-.002c-.02-.631-.028-2.369-.038-4.677-.011-2.47-.025-5.593-.06-8.712a379.57 379.57 0 0 0-.17-8.547c-.021-.59-.043-1.14-.067-1.646-2.354 2.045-9.947 8.68-10.614 22.482Z" fill="#10AA50"/><path d="M43.206 26.12c-1.468-6.373-3.714-10.361-5.755-13.044-1.028-1.35-2.015-2.386-2.866-3.254l-.102-.105a55.541 55.541 0 0 0-.167-.17h-.001l-.058-.061c-.292-.296-.579-.588-.843-.874l.01.3c.088 2.503.14 5.565.173 8.602.035 3.188.05 6.333.06 8.794v.002c.01 2.253.018 3.934.036 4.548.156 4.961.048 9.927-.323 14.877.029 1.188.117 2.366.299 3.374.04.215.084.422.133.62.14.565.306 1.009.487 1.326l.004.006c3.854-2.974 8.475-9.094 9.238-17.566a28.42 28.42 0 0 0-.325-7.374Z" fill="#12924F"/><path fill-rule="evenodd" clip-rule="evenodd" d="m32.944 3.29-2.23.708c.11.505.208 1.685.287 3.348.024.506.046 1.056.066 1.646.087 2.475.139 5.516.172 8.547.034 3.119.048 6.242.059 8.712.01 2.308.018 4.046.037 4.677v.002c.154 4.896.047 9.797-.32 14.683h-.003c-.2 2.484-.356 4.134-.666 5.53-.122.55-.267 1.062-.45 1.57l-.095.267.04.281.005.036.014.108c.012.085.03.208.05.363l.007.05a163.992 163.992 0 0 1 .703 6.125l.1 1.057h3.279l.116-1.036c.252-2.249.63-4.482 1.13-6.69 5.56-4.011 12.66-13.855 10.28-27.576l-.005-.03-.007-.031c-1.541-6.712-3.932-11.01-6.176-13.959-1.117-1.468-2.186-2.585-3.055-3.474l-.11-.113-.003-.002v-.001l-.004-.003-.117-.12c-.771-.787-1.274-1.3-1.566-1.745a24.78 24.78 0 0 1-1.533-2.931l-.005.001Zm.725 45.82c-.188-1.017-.279-2.212-.302-3.426l-2.353-.071v.006l-.004.056v.056c.035 1.524.163 3.168.496 4.547.161.667.38 1.317.69 1.877a2.15 2.15 0 0 0 .286-.046 2.66 2.66 0 0 0 .952-.426l.023-.017.023-.016c.263-.178.531-.372.803-.581-.18-.316-.345-.76-.482-1.33-.049-.201-.093-.411-.132-.63Zm0 0c-.182-1.01-.27-2.188-.299-3.375.371-4.95.48-9.916.323-14.877-.018-.614-.026-2.295-.036-4.548v-.002c-.01-2.461-.025-5.606-.06-8.794-.033-3.037-.085-6.1-.172-8.602l-.01-.3c.263.286.55.578.842.874l.06.06.166.171.102.105c.85.868 1.838 1.904 2.866 3.254 2.041 2.683 4.288 6.672 5.755 13.045.451 2.62.53 5.084.325 7.375-.757 8.477-5.381 14.594-9.236 17.569l-.002-.004-.004-.006c-.181-.317-.348-.76-.488-1.327a10.734 10.734 0 0 1-.132-.619Zm-1.242 3.42c.13.19.279.372.448.539a63.757 63.757 0 0 0-.415 2.032l-.01-.074a200.387 200.387 0 0 0-.235-1.81c.076-.228.147-.457.212-.687Z" fill="#fff"/><path d="M32.482 52.11a2.66 2.66 0 0 0 .952-.427l.023-.017.023-.016c.263-.178.531-.372.803-.581-.18-.316-.345-.76-.482-1.33-.049-.201-.093-.411-.132-.63-.188-1.016-.279-2.211-.302-3.425l-2.353-.071v.006l-.004.056v.056c.035 1.524.163 3.168.496 4.547.161.667.38 1.317.69 1.877a2.15 2.15 0 0 0 .286-.046Z" fill="#fff"/><path d="M32.381 54.475c.069-.006.137-.013.204-.021.091-.463.188-.925.29-1.385a3.661 3.661 0 0 1-.448-.54c-.065.231-.136.46-.212.688l.04.296c.034.251.077.577.126.962Z" fill="#B8C4C2"/><path d="m32.45 55.027.01.074c.04-.216.082-.432.125-.647a4.275 4.275 0 0 1-.204.021l.07.552Z" fill="#B8C4C2"/><path fill-rule="evenodd" clip-rule="evenodd" d="M30.556 3.375 32.816 3l.128.29-2.23.708c.11.505.208 1.685.287 3.348-2.354 2.045-9.947 8.68-10.614 22.482-.32 6.61 2.139 11.969 4.885 15.809 1.85 2.586 3.808 4.45 5.075 5.506-.123.55-.268 1.062-.45 1.57l-.096.267.04.281.005.036.014.108c.012.085.03.208.05.363-1.26-.905-4.022-3.234-6.565-6.789-2.954-4.13-5.665-9.992-5.314-17.262C18.747 14.9 27.002 7.72 29.45 5.59l.253-.221c.395-.348.56-.607.653-.842.105-.263.157-.585.199-1.153Z" fill="#fff"/><path d="M43.572 26.492C40.756 13.941 34.886 10.6 33.387 8.237A26.959 26.959 0 0 1 31.749 5c-.079 1.115-.224 1.817-1.162 2.663-1.884 1.697-9.886 8.283-10.56 22.544-.627 13.297 9.678 21.496 11.04 22.343 1.047.52 2.322.011 2.944-.466 4.967-3.444 11.755-12.624 9.567-25.592" fill="#10AA50"/><path d="M32.368 45.5c-.266 3.282-.457 5.19-1.134 7.065 0 0 .444 3.125.756 6.435h1.104a59.114 59.114 0 0 1 1.204-6.93c-1.429-.69-1.875-3.69-1.93-6.57Z" fill="#B8C4C2"/><path d="M33.945 52.25c-1.42-.663-1.832-3.766-1.895-6.656.351-4.769.454-9.553.307-14.332-.075-2.508.035-23.229-.612-26.262a25.29 25.29 0 0 0 1.527 2.983c1.514 2.388 7.452 5.763 10.298 18.441 2.217 13.076-4.608 22.325-9.625 25.826Z" fill="#12924F"/></svg>