<svg width="64" height="64" fill="none" xmlns="http://www.w3.org/2000/svg"><path d="M32 63.5a4.896 4.896 0 0 1-2.425-.65l-7.712-4.563c-1.15-.65-.588-.874-.213-1 1.538-.537 1.85-.65 3.488-1.587.174-.1.4-.063.574.05l5.925 3.513a.724.724 0 0 0 .713 0l23.087-13.325a.74.74 0 0 0 .35-.626v-26.65c0-.262-.137-.5-.362-.637L32.35 4.713a.724.724 0 0 0-.713 0L8.575 18.038a.73.73 0 0 0-.362.637v26.637c0 .25.137.5.362.613l6.325 3.65c3.437 1.712 5.537-.3 5.537-2.338v-26.3c0-.375.3-.662.675-.662h2.926a.67.67 0 0 1 .674.663V47.25c0 4.575-2.5 7.2-6.837 7.2-1.337 0-2.387 0-5.313-1.45l-6.05-3.487A4.86 4.86 0 0 1 4.089 45.3V18.663c0-1.726.925-3.35 2.425-4.213L29.575 1.125c1.463-.825 3.4-.825 4.85 0l23.088 13.338a4.86 4.86 0 0 1 2.425 4.212v26.637a4.891 4.891 0 0 1-2.425 4.213L34.425 62.85A4.861 4.861 0 0 1 32 63.5Zm18.638-26.263c0-4.987-3.375-6.312-10.463-7.25-7.175-.95-7.9-1.437-7.9-3.112 0-1.387.613-3.238 5.925-3.238 4.737 0 6.487 1.026 7.212 4.226a.67.67 0 0 0 .65.524h3a.653.653 0 0 0 .488-.212.696.696 0 0 0 .175-.512c-.462-5.513-4.125-8.076-11.525-8.076-6.588 0-10.513 2.776-10.513 7.438 0 5.05 3.913 6.45 10.226 7.075 7.562.737 8.15 1.85 8.15 3.337 0 2.576-2.076 3.675-6.938 3.675-6.112 0-7.45-1.537-7.9-4.575a.662.662 0 0 0-.663-.562h-2.987c-.375 0-.662.3-.662.663 0 3.887 2.112 8.525 12.225 8.525 7.3-.013 11.5-2.9 11.5-7.925Z" fill="#689F63"/></svg>