<svg width="64" height="64" fill="none" xmlns="http://www.w3.org/2000/svg"><path d="M15.624 33.746h2.173c1.44 0 2.512-.275 3.217-.825.705-.55 1.18-1.469 1.427-2.755.237-1.236.129-2.108-.323-2.616s-1.356-.762-2.713-.762h-2.447l-1.333 6.958ZM43.5 33.746h2.173c1.44 0 2.512-.275 3.217-.825.705-.55 1.18-1.469 1.427-2.755.236-1.236.129-2.108-.323-2.616s-1.356-.762-2.713-.762h-2.447L43.5 33.746Z" fill="#fff"/><path fill-rule="evenodd" clip-rule="evenodd" d="M.9 31.5c0 9.16 13.924 16.587 31.1 16.587 17.176 0 31.1-7.426 31.1-16.587S49.176 14.912 32 14.912C14.824 14.912.9 22.34.9 31.5Zm24.378-5.685c-.947-1.1-2.454-1.65-4.52-1.65H13.89l-3.187 16.623h3.572l.847-4.42h3.059c1.35 0 2.46-.143 3.332-.43a6.291 6.291 0 0 0 2.377-1.447 7.406 7.406 0 0 0 1.454-1.845c.37-.673.633-1.415.789-2.227.367-1.919.092-3.505-.855-4.604Zm6.512-1.65.847-4.42h-3.544L25.907 36.37h3.543l1.825-9.523h2.832c.907 0 1.515.169 1.778.456.263.288.338.875.177 1.712l-1.41 7.355h3.6l1.483-7.736c.301-1.573.065-2.711-.679-3.414-.754-.702-2.124-1.054-4.11-1.054H31.79Zm21.364 1.65c-.948-1.1-2.455-1.65-4.52-1.65h-6.868l-3.187 16.623h3.572l.846-4.42h3.06c1.35 0 2.46-.143 3.332-.43a6.291 6.291 0 0 0 2.377-1.447 7.406 7.406 0 0 0 1.453-1.845c.37-.673.634-1.415.79-2.227.377-1.97.092-3.505-.855-4.604Z" fill="#fff"/></svg>