<svg width="64" height="64" fill="none" xmlns="http://www.w3.org/2000/svg"><path fill-rule="evenodd" clip-rule="evenodd" d="m50.225 20.702-.052.343Zm-.052.343c-.134.873-.283 1.836-.319 2.973Z" fill="#fff"/><path d="M27.231 19.726a3.065 3.065 0 0 0-1.094.026c-.151.036-.297.09-.416.173a.582.582 0 0 0-.26.396c-.024.167.04.34.108.471.074.145.184.296.317.436.263.277.653.544 1.116.609.467.065.889-.093 1.192-.3.153-.103.283-.223.38-.345a.88.88 0 0 0 .2-.409.584.584 0 0 0-.144-.452 1.237 1.237 0 0 0-.353-.28 3.068 3.068 0 0 0-1.046-.325ZM48.78 19.744a.435.435 0 0 0-.2-.293 1.088 1.088 0 0 0-.365-.15 2.918 2.918 0 0 0-1.039-.024 2.92 2.92 0 0 0-.993.307c-.126.07-.235.152-.31.244a.44.44 0 0 0-.112.338c.015.112.082.23.167.336.088.109.207.22.348.315.282.191.667.333 1.088.275.42-.059.781-.303 1.03-.564.124-.132.225-.271.292-.402.064-.124.11-.262.093-.382Z" fill="#fff"/><path fill-rule="evenodd" clip-rule="evenodd" d="M31.12 51.231c.062 1.461.153 2.765.275 3.822.118 1.026.273 1.91.495 2.468.35.873.962 2.348 2.248 3.432 1.34 1.13 3.284 1.74 6.074 1.14 2.22-.476 3.878-1.204 5.062-2.436 1.186-1.234 1.79-2.863 2.14-4.904.402-2.328 1.097-7.928 1.424-10.939l.028.01c.736.228 1.671.31 2.62.3 1.897-.021 4.167-.417 5.634-1.1a12.978 12.978 0 0 0 2.26-1.335c.619-.461 1.15-.964 1.472-1.45.156-.237.315-.546.349-.896a1.25 1.25 0 0 0-.487-1.136c-.323-.247-.715-.312-1.036-.323a5.037 5.037 0 0 0-1.167.124c-3.538.731-5.257.456-6.042.131a1.926 1.926 0 0 1-.409-.224c3.691-5.624 6.314-11.921 7.7-17.298.715-2.77 1.109-5.324 1.141-7.435.032-2.058-.275-3.887-1.162-5.023-4.124-5.277-9.813-6.498-14.27-6.456-2.23.02-4.177.356-5.516.67-.67.156-1.193.309-1.528.416a7.57 7.57 0 0 0-.438.155 1.072 1.072 0 0 0-.033.015 19.968 19.968 0 0 0-4.492-.573c-3.193-.053-5.72.77-7.699 2.122a35.088 35.088 0 0 0-3.306-1.024c-2.2-.563-5.164-1.097-8.123-.927-2.957.17-6.01 1.05-8.246 3.422-2.244 2.38-3.518 6.106-3.242 11.65.062 1.229.516 4.037 1.262 7.37.75 3.353 1.81 7.306 3.108 10.84 1.282 3.492 2.846 6.722 4.665 8.492.922.897 2.018 1.524 3.258 1.471 1.247-.053 2.387-.78 3.419-2.023a127.642 127.642 0 0 1 4.793-5.44l.12-.127a7.849 7.849 0 0 0 3.543.95l.007.095c-.25.296-.452.554-.625.774l-.13.166c-.28.353-.458.557-.664.722-.4.319-1.029.586-2.988.99-1.013.209-1.788.485-2.278.885-.26.213-.492.503-.58.883-.089.39.003.743.15 1.017.265.492.766.837 1.171 1.059.44.24.94.429 1.386.54 1.652.415 5.477 1.05 8.558-1.754-.02 2.396.013 4.7.099 6.692Zm9.84-47.246a23.744 23.744 0 0 1 4.526-.491c4.135-.038 9.185 1.088 12.844 5.77.488.623.813 1.91.783 3.89-.03 1.928-.393 4.336-1.084 7.015-1.284 4.977-3.673 10.795-7.014 16.065-.075-.096-.152-.192-.229-.288l-.075-.094c1.283-2.122 1.49-4.233 1.393-6.193-.042-.858-.144-1.707-.24-2.503v-.006l-.054-.452c-.111-.943-.195-1.806-.168-2.622.032-1.023.164-1.878.299-2.756l.053-.35c.142-.938.27-1.914.23-3.062l.002-.013c.038-.155.035-.299.03-.385a3.601 3.601 0 0 0-.104-.63 12.47 12.47 0 0 0-.602-1.762 22.569 22.569 0 0 0-3.015-5.117c-1.768-2.264-4.252-4.548-7.576-6.016Zm3.775 19.765c-.485-1.95-.385-3.404.359-4.256.675-.774 2.164-1.366 5.283-.986l-.152 2.194-.052.343-.319 2.973c-.031.962.068 1.942.18 2.889l.056.477v.002c.096.796.189 1.572.227 2.361.075 1.506-.054 2.985-.75 4.459a8.91 8.91 0 0 1-.474-.978c-.133-.322-.43-.857-.766-1.458l-.053-.096c-.348-.625-.768-1.379-1.204-2.216-.913-1.755-1.864-3.816-2.335-5.708Zm6.15 15.52c-.125.044-.28.087-.408.123h-.002l-.061.018-.053.015a3.388 3.388 0 0 0-.451.159 1.266 1.266 0 0 0-.635.571c-.166.305-.318.839-.273 1.78.044.035.152.101.395.177.48.15 1.204.23 2.07.22 1.738-.02 3.735-.392 4.9-.933a11.186 11.186 0 0 0 1.944-1.147c.238-.177.438-.345.601-.499l-.04.008c-3.68.76-5.818.558-7.087.032a3.597 3.597 0 0 1-.9-.524Zm-23.218 2.04.139-.177c.25-.319.53-.675.92-1.11l.005-.005c.086-.097.165-.175.237-.238.254-.22.421-.255.503-.262.148-.013.299.032.598.156.314.13.685.516.882 1.048.193.523.146.98-.064 1.275-2.079 2.915-4.968 3.063-6.906 2.776a10.602 10.602 0 0 1-1.084-.217 4.251 4.251 0 0 1-.961-.374 2.645 2.645 0 0 1-.23-.14c.058-.028.127-.057.207-.087.254-.097.6-.197 1.062-.292.549-.113 1.025-.22 1.444-.33.626-.165 1.122-.335 1.538-.538a4.06 4.06 0 0 0 .76-.475c.38-.304.667-.654.95-1.01Zm-.46-3.939c.027-.112.056-.224.087-.335.195-.701.474-1.45.754-2.203v-.002l.131-.35c.17-.458.388-.942.602-1.419.109-.243.217-.485.319-.72.313-.733.614-1.529.831-2.489.433-1.911.56-4.568-.336-8.715-.284-1.316-.926-1.927-1.67-2.215-.812-.314-1.881-.291-3.034-.025a12.213 12.213 0 0 0-3.067 1.195 6.72 6.72 0 0 0-.93.606 2.272 2.272 0 0 0-.06.051c.006.126.015.282.026.464v.002c.086 1.42.27 4.472-.196 7.812-.639 4.574 2.699 8.331 6.542 8.343ZM22.012 5.22c-2.111-.541-4.875-1.03-7.576-.875-2.703.155-5.242.947-7.048 2.864-1.8 1.908-3.018 5.087-2.756 10.33.053 1.065.477 3.745 1.22 7.069.74 3.304 1.78 7.176 3.042 10.613 1.277 3.478 2.73 6.362 4.233 7.826.74.72 1.381.99 1.935.966.549-.023 1.261-.346 2.12-1.379a129.436 129.436 0 0 1 4.797-5.449c-2.24-1.923-3.557-5.041-3.087-8.406.433-3.1.277-5.774.188-7.29a18.84 18.84 0 0 1-.044-.997v-.04l-.001-.158c0-.136.002-.332.01-.58.015-.496.053-1.2.143-2.04.18-1.679.572-3.931 1.424-6.19.747-1.984 1.862-4.006 3.53-5.643a33.712 33.712 0 0 0-2.13-.621Zm11.159 49.629a53.806 53.806 0 0 1-.265-3.695c-.11-2.54-.132-5.609-.067-8.733.008-.41.018-.82.03-1.23a.895.895 0 0 0-.041-.294 3.79 3.79 0 0 0-.201-.798c-.323-.873-.99-1.712-1.874-2.08l-.02-.007c-.283-.118-.799-.333-1.418-.279-.125.012-.25.033-.372.064.022-.09.046-.184.073-.28.173-.622.421-1.29.704-2.05l.135-.362c.151-.407.324-.792.52-1.226.114-.255.237-.527.367-.831a15.79 15.79 0 0 0 .933-2.799c.503-2.219.605-5.146-.332-9.49-.4-1.846-1.415-2.981-2.775-3.507-1.29-.499-2.77-.402-4.08-.1a13.914 13.914 0 0 0-3.536 1.376l-.05.029c.017-.217.039-.448.065-.692.17-1.585.537-3.677 1.318-5.75a15.547 15.547 0 0 1 1.576-3.127 11.239 11.239 0 0 1 2.15-2.427c1.75-1.458 4.13-2.439 7.42-2.385 6.649.11 11.022 3.507 13.694 6.928a20.782 20.782 0 0 1 2.772 4.703c.137.329.248.626.334.882-3.122-.321-5.262.225-6.485 1.626-1.365 1.564-1.257 3.823-.747 5.868.523 2.104 1.555 4.317 2.484 6.103.448.86.878 1.633 1.225 2.256l.046.081c.37.666.601 1.088.684 1.288.543 1.318 1.225 2.238 1.771 2.929l.208.261.034.042c.166.208.3.378.416.543l.01.015-.016.005a5.144 5.144 0 0 0-.687.245 3.05 3.05 0 0 0-1.47 1.347c-.373.684-.545 1.577-.49 2.733l.002.015c-.138 1.73-1.078 9.576-1.565 12.403-.324 1.88-.836 3.102-1.667 3.966-.306.319-.67.604-1.11.859-.756.439-1.737.79-3.038 1.069-2.329.5-3.688-.036-4.547-.76-.583-.492-.99-1.115-1.297-1.727a12.633 12.633 0 0 1-.442-1c-.124-.313-.261-.978-.38-2.008Z" fill="#fff"/><path fill-rule="evenodd" clip-rule="evenodd" d="m50.225 20.702-.052.343.052-.343Zm-.052.343c-.134.873-.283 1.836-.319 2.973l.32-2.973ZM28.726 40.023l.005-.005c.086-.097.165-.175.237-.238l-.242.243Zm-2.589-20.27a3.065 3.065 0 0 1 1.094-.027c.403.056.773.172 1.046.325.135.076.261.169.353.28a.584.584 0 0 1 .143.453.88.88 0 0 1-.198.408 1.753 1.753 0 0 1-.38.346 1.715 1.715 0 0 1-1.193.299c-.463-.065-.853-.332-1.116-.609a1.945 1.945 0 0 1-.317-.436c-.068-.131-.132-.304-.109-.471a.582.582 0 0 1 .261-.396c.119-.082.265-.137.416-.173Zm22.642-.01a.435.435 0 0 0-.198-.292 1.088 1.088 0 0 0-.366-.15 2.918 2.918 0 0 0-1.039-.024 2.92 2.92 0 0 0-.993.307c-.126.07-.235.152-.31.244a.44.44 0 0 0-.112.338c.015.112.082.23.167.336.088.109.207.22.348.315.282.191.667.333 1.088.275.42-.059.781-.303 1.03-.564.124-.132.225-.271.292-.402.064-.124.11-.262.093-.382Z" fill="#fff"/></svg>