<svg width="64" height="64" fill="none" xmlns="http://www.w3.org/2000/svg"><path d="M58.742 38.975c-7.218 1.49-7.715-.956-7.715-.956 7.621-11.325 10.807-25.7 8.058-29.218-7.5-9.597-20.484-5.058-20.7-4.94l-.07.012c-1.427-.296-3.023-.473-4.816-.502-3.266-.054-5.744.858-7.624 2.285 0 0-23.161-9.555-22.084 12.018.229 4.589 6.569 34.725 14.13 25.622 2.764-3.328 5.434-6.142 5.434-6.142 1.326.882 2.914 1.332 4.579 1.17l.129-.11a5.06 5.06 0 0 0 .052 1.296c-1.948 2.18-1.376 2.563-5.27 3.365-3.94.813-1.625 2.261-.114 2.64 1.832.458 6.07 1.108 8.935-2.907l-.114.458c.763.613 1.299 3.982 1.209 7.037-.09 3.055-.15 5.152.451 6.79.602 1.639 1.201 5.324 6.32 4.226 4.278-.918 6.494-3.297 6.803-7.265.218-2.82.714-2.404.745-4.926l.397-1.194c.458-3.824.073-5.057 2.708-4.483l.64.056c1.94.088 4.479-.312 5.969-1.006 3.208-1.49 5.11-3.98 1.947-3.326Z" fill="#336791"/><path d="m47.415 54.753.764-13.587-.958.826c-.121 1.613-1.076 9.599-1.569 12.457-.324 1.88-.836 3.102-1.667 3.966-.306.319-.67.604-1.11.859l2.4.383 2.14-4.904ZM32.907 51.154c-.11-2.54-.132-5.609-.067-8.733L32 40.27l-.918.87.038 10.09.275 3.822.496 2.468 2.102.335a12.633 12.633 0 0 1-.442-1c-.124-.313-.261-.978-.38-2.008a53.806 53.806 0 0 1-.264-3.694Z" fill="#fff"/><path d="M39.837 60.343c-2.329.5-3.688-.036-4.547-.76-.583-.492-.99-1.115-1.297-1.727l-2.102-.335c.349.873.962 2.348 2.247 3.432 1.34 1.13 3.284 1.74 6.074 1.14 2.22-.476 3.878-1.204 5.062-2.436l-2.398-.383c-.757.439-1.738.79-3.039 1.069ZM45.274 59.657c1.186-1.234 1.79-2.863 2.14-4.904l-2.14 4.904ZM32.87 41.192a.895.895 0 0 0-.87-.92l.84 2.149c.008-.41.018-.82.03-1.23Z" fill="#fff"/><path d="M32 40.272a.895.895 0 0 0-.918.87l.919-.87ZM31.082 41.142c-.1 3.574-.088 7.165.038 10.09l-.038-10.09ZM31.12 51.231c.062 1.461.153 2.765.275 3.822l-.275-3.822ZM31.395 55.053c.118 1.026.273 1.91.496 2.468l-.496-2.468Z" fill="#fff"/><path fill-rule="evenodd" clip-rule="evenodd" d="m26.177 4.668-.337.83.337-.83c.457.187.677.71.49 1.168a.894.894 0 0 1-1.165.49H25.5l-.01-.004-.045-.018a24.609 24.609 0 0 0-.89-.325 33.299 33.299 0 0 0-2.542-.76c-2.111-.54-4.875-1.03-7.576-.874-2.703.155-5.242.947-7.048 2.864-1.8 1.908-3.018 5.087-2.756 10.33.053 1.065.477 3.745 1.22 7.069.74 3.304 1.78 7.176 3.042 10.613 1.277 3.478 2.73 6.362 4.233 7.826.74.72 1.381.99 1.935.966.549-.023 1.261-.346 2.12-1.379a129.314 129.314 0 0 1 5.187-5.864l.086-.09.022-.024.008-.008.646.62-.646-.62a.894.894 0 1 1 1.292 1.239l-.007.007-.02.021-.082.087-.318.337a127.642 127.642 0 0 0-4.794 5.44c-1.031 1.243-2.171 1.97-3.418 2.023-1.24.053-2.336-.574-3.258-1.47-1.819-1.771-3.383-5.002-4.665-8.493-1.297-3.534-2.358-7.487-3.108-10.84-.746-3.333-1.2-6.141-1.262-7.37-.276-5.544.998-9.27 3.242-11.65 2.236-2.371 5.29-3.253 8.246-3.422 2.959-.17 5.922.364 8.123.927 1.105.284 2.03.577 2.68.8a26.337 26.337 0 0 1 .964.353l.055.022.015.006.005.002h.001ZM38.091 2.911l-.002.001h.002Zm.675 1.652a.896.896 0 0 1-.227.082.98.98 0 0 1-.182.025c-.037 0-.136-.006-.197-.015a1.587 1.587 0 0 1-.56-.356c-.133-.274-.134-.773-.057-.959.054-.086.156-.205.197-.243a.901.901 0 0 1 .14-.1h.001a.973.973 0 0 1 .172-.08c.08-.03.206-.075.372-.128.335-.107.857-.26 1.528-.417a25.604 25.604 0 0 1 5.516-.67c4.457-.04 10.146 1.18 14.27 6.457.887 1.136 1.194 2.965 1.162 5.023-.032 2.111-.426 4.665-1.14 7.435-1.43 5.541-4.172 12.06-8.043 17.813a.894.894 0 1 1-1.483-1.001c3.75-5.573 6.412-11.904 7.794-17.26.69-2.68 1.054-5.087 1.084-7.014.03-1.98-.295-3.268-.783-3.892-3.659-4.681-8.709-5.807-12.844-5.769-2.067.02-3.88.33-5.126.622a18.314 18.314 0 0 0-1.594.447Z" fill="#fff"/><path fill-rule="evenodd" clip-rule="evenodd" d="M24.868 5.185c2.095-1.747 4.898-2.86 8.594-2.8 7.33.12 12.167 3.895 15.073 7.616a22.565 22.565 0 0 1 3.015 5.117c.292.702.492 1.31.602 1.763.053.22.094.44.104.63.005.085.008.23-.03.384-.02.089-.157.601-.724.719l-.323.007c-3.672-.589-5.355.036-6.085.873-.744.852-.844 2.307-.359 4.256.471 1.892 1.422 3.953 2.335 5.708.436.837.856 1.591 1.204 2.216l.053.096c.335.601.633 1.136.766 1.458.449 1.091 1.013 1.859 1.52 2.5l.173.217c.192.24.388.486.547.712.2.287.407.631.506 1.03a.42.42 0 0 0 .035.053c.058.075.216.242.595.4.785.324 2.504.6 6.042-.132.434-.09.826-.136 1.167-.124.321.011.713.076 1.036.323.386.294.526.729.487 1.136-.034.35-.193.66-.35.896-.321.486-.852.989-1.47 1.45-.632.472-1.406.938-2.26 1.336-1.468.682-3.738 1.078-5.634 1.099-.95.01-1.885-.072-2.62-.3-.651-.203-1.588-.673-1.647-1.714-.068-1.195.103-2.112.485-2.812a3.051 3.051 0 0 1 1.47-1.346 5.144 5.144 0 0 1 .704-.251 12.11 12.11 0 0 0-.46-.6l-.209-.261c-.546-.69-1.228-1.61-1.771-2.929-.083-.2-.314-.622-.684-1.288l-.046-.081c-.347-.623-.777-1.396-1.225-2.256-.929-1.786-1.96-4-2.484-6.103-.51-2.045-.618-4.304.747-5.868 1.223-1.401 3.363-1.947 6.485-1.626a13.573 13.573 0 0 0-.334-.883 20.783 20.783 0 0 0-2.772-4.702c-2.672-3.421-7.045-6.818-13.693-6.928-3.29-.054-5.671.927-7.42 2.385-1.767 1.473-2.945 3.48-3.727 5.555-.78 2.072-1.148 4.164-1.318 5.749-.085.79-.12 1.447-.135 1.904a17.802 17.802 0 0 0-.008.66v.038m0 0a.895.895 0 1 1-1.788.047l.895-.024-.894.024V20.496l-.001-.044-.001-.158c0-.136.002-.332.01-.58.015-.496.053-1.2.143-2.04.18-1.679.572-3.931 1.424-6.19.85-2.258 2.177-4.566 4.255-6.3M50.47 17.607v-.001Zm.416 21.663c-.127.045-.281.088-.409.124l-.116.033a3.39 3.39 0 0 0-.451.159 1.266 1.266 0 0 0-.635.571c-.166.305-.318.839-.273 1.78.044.035.152.101.395.177.48.15 1.204.23 2.07.22 1.738-.02 3.735-.392 4.9-.933a11.188 11.188 0 0 0 1.944-1.147c.238-.177.438-.345.601-.499a4.039 4.039 0 0 0-.04.008c-3.68.76-5.818.558-7.087.032a3.595 3.595 0 0 1-.899-.524Zm-1.91 2.64s.004.003.009.011c-.008-.007-.01-.011-.01-.012Z" fill="#fff"/><path d="m25.957 42.795 2.77-2.772.004-.005c.086-.097.165-.175.237-.238l1.767-1.768-1.42-.279-1.918 1.09-2.978 4.51c.626-.165 1.122-.335 1.538-.538Z" fill="#fff"/><path d="M27.397 38.824c-.431.483-.749.886-1.001 1.207l-.13.166c-.28.353-.458.557-.665.722-.4.319-1.028.586-2.987.99-1.013.209-1.788.485-2.278.885-.26.213-.492.503-.58.883-.089.39.003.743.15 1.017.265.492.766.837 1.171 1.059.44.24.94.429 1.386.54l1.056-1.599a11.688 11.688 0 0 1-.622-.138 4.251 4.251 0 0 1-.961-.374 2.645 2.645 0 0 1-.23-.14c.058-.028.127-.057.207-.087.254-.097.6-.197 1.062-.292.549-.113 1.025-.22 1.444-.33l2.978-4.51ZM30.754 38.02l-.02-.008-1.766 1.768c.254-.22.421-.255.503-.262.148-.013.299.032.598.156.314.13.685.516.882 1.048.193.523.146.98-.064 1.275-2.079 2.915-4.968 3.063-6.906 2.776l-1.518 1.52c1.9.477 6.67 1.246 9.88-3.255.661-.927.612-2.056.285-2.939-.323-.873-.99-1.712-1.874-2.08Z" fill="#fff"/><path d="m23.52 44.694-1.057 1.6 1.518-1.52c-.16-.024-.315-.051-.462-.08Z" fill="#fff"/><path fill-rule="evenodd" clip-rule="evenodd" d="M28.57 17.252c1.359.526 2.375 1.661 2.773 3.508.938 4.343.835 7.27.333 9.49a15.79 15.79 0 0 1-.933 2.798c-.13.304-.253.576-.367.83-.196.435-.369.82-.52 1.227l-.135.362c-.283.76-.531 1.428-.704 2.05-.199.715-.267 1.273-.197 1.73a.895.895 0 1 1-1.768.272 4.066 4.066 0 0 1-.038-.358c-4.948-.121-8.883-4.927-8.121-10.382l.886.125-.886-.125c.433-3.1.277-5.774.188-7.29-.025-.437-.045-.778-.044-1.005.003-.388.227-.67.309-.77.12-.145.269-.281.42-.404.306-.25.717-.52 1.187-.782a13.995 13.995 0 0 1 3.536-1.375c1.31-.303 2.79-.4 4.08.1Zm-1.364 20.12c.028-.113.057-.225.088-.336.195-.701.474-1.45.754-2.203l.131-.352c.17-.459.387-.942.602-1.419.109-.243.217-.485.319-.72.313-.733.614-1.529.831-2.489.433-1.911.56-4.568-.336-8.715-.284-1.316-.926-1.927-1.67-2.215-.812-.314-1.881-.291-3.034-.025a12.213 12.213 0 0 0-3.067 1.195c-.412.23-.729.442-.93.606a2.425 2.425 0 0 0-.06.051c.006.126.015.282.026.465.086 1.42.27 4.473-.196 7.813-.639 4.574 2.699 8.331 6.542 8.343ZM20.73 20.85c-.017.025-.023.027-.004.005a.337.337 0 0 1 .004-.005Z" fill="#fff"/><path d="M25.755 20.362c-.04.293.536 1.075 1.288 1.18.751.104 1.394-.507 1.435-.8.04-.293-.536-.615-1.288-.72-.752-.105-1.395.048-1.435.34Z" fill="#fff"/><path fill-rule="evenodd" clip-rule="evenodd" d="M27.231 19.726a3.065 3.065 0 0 0-1.094.026Zm-1.094.026c-.151.036-.297.09-.416.173Zm-.416.173a.582.582 0 0 0-.26.396Zm-.26.396c-.024.167.04.34.108.471.074.145.184.296.317.436.263.277.653.544 1.116.609m-.942-1.42-.003.001c.005.02.017.052.041.1.046.087.12.193.22.298.202.214.477.39.766.43.284.04.56-.056.776-.202a1.161 1.161 0 0 0 .267-.247.46.46 0 0 0 .049-.079.66.66 0 0 0-.19-.146 2.486 2.486 0 0 0-.837-.255 2.482 2.482 0 0 0-.875.016.657.657 0 0 0-.214.083Zm2.57-.086a.585.585 0 0 1 .143.453.88.88 0 0 1-.198.408 1.75 1.75 0 0 1-.38.346 1.715 1.715 0 0 1-1.193.299m1.628-1.506a1.237 1.237 0 0 0-.353-.28Zm-.353-.28a3.068 3.068 0 0 0-1.046-.325Z" fill="#fff"/><path d="m27.86 21.044-.858.793c.467.065.89-.093 1.192-.3a1.75 1.75 0 0 0 .38-.345.88.88 0 0 0 .2-.409.585.585 0 0 0-.144-.452l-.503.466a1.161 1.161 0 0 1-.267.247Z" fill="#fff"/><path d="m27.231 19.726-1.094.026-.416.173-.26.396 1.541 1.516.858-.793a1.121 1.121 0 0 1-.776.201c-.289-.04-.564-.215-.766-.429-.1-.105-.175-.21-.22-.298a.535.535 0 0 1-.041-.1l.003-.002a.657.657 0 0 1 .215-.083c.215-.05.525-.064.874-.016.349.049.644.147.837.255a.66.66 0 0 1 .184.139l.005.007a.46.46 0 0 1-.048.079l.503-.466-.353-.28-1.046-.325ZM48.632 19.764c.04.293-.536 1.075-1.288 1.18-.752.105-1.395-.506-1.436-.8-.04-.292.537-.615 1.289-.72.751-.105 1.394.048 1.435.34Z" fill="#fff"/><path fill-rule="evenodd" clip-rule="evenodd" d="M48.147 19.59a2.629 2.629 0 0 0-.93-.018 2.63 2.63 0 0 0-.889.272.802.802 0 0 0-.226.174c-.044.054-.048.088-.046.107a.463.463 0 0 0 .104.19c.068.084.165.174.283.255.238.161.55.272.88.226.333-.046.636-.245.854-.474.109-.114.192-.231.244-.333.056-.108.067-.177.063-.204-.002-.018-.016-.05-.073-.089a.8.8 0 0 0-.264-.105Zm.434-.14c.098.069.18.165.198.294.017.12-.029.258-.093.382-.067.13-.168.27-.293.402-.248.26-.609.505-1.029.564m0 0a1.567 1.567 0 0 1-1.088-.275 1.608 1.608 0 0 1-.348-.315.737.737 0 0 1-.167-.336v-.001a.437.437 0 0 1 .111-.337c.076-.092.185-.174.31-.244a2.92 2.92 0 0 1 .994-.308c.39-.054.757-.043 1.04.024.14.034.267.082.365.15M51.272 16.842a.895.895 0 0 1 .941.847c.067 1.244-.068 2.284-.219 3.281l-.053.35c-.135.878-.267 1.733-.299 2.756-.027.816.057 1.679.168 2.622l.054.458c.096.796.198 1.645.24 2.503.102 2.082-.137 4.334-1.645 6.588a.894.894 0 1 1-1.486-.996c1.218-1.821 1.436-3.642 1.345-5.504-.04-.789-.132-1.565-.228-2.36l-.057-.48c-.11-.947-.21-1.927-.179-2.889m1.418-7.176a.895.895 0 0 0-.845.943Zm-.845.943c.057 1.054-.055 1.946-.201 2.917Zm-.201 2.917-.053.343Zm-.053.343c-.134.873-.282 1.836-.319 2.973Z" fill="#fff"/><path d="m49.854 24.018 1.418-7.176-.845.943c.057 1.054-.055 1.946-.201 2.917l-.053.343-.319 2.973Z" fill="#fff"/></svg>