<svg width="64" height="64" fill="none" xmlns="http://www.w3.org/2000/svg"><g clip-path="url('#clip0_8_745')"><path d="M31.619 0c-2.64.013-5.16.235-7.377.623-6.532 1.142-7.718 3.531-7.718 7.937v5.82H31.96v1.939H10.73c-4.486 0-8.415 2.667-9.643 7.74-1.418 5.817-1.48 9.446 0 15.518 1.097 4.52 3.718 7.741 8.204 7.741h5.308v-6.975c0-5.04 4.408-9.485 9.643-9.485h15.42c4.291 0 7.718-3.496 7.718-7.76V8.56c0-4.138-3.53-7.246-7.719-7.937A48.67 48.67 0 0 0 31.62.001ZM23.27 4.68c1.594 0 2.896 1.31 2.896 2.92 0 1.603-1.302 2.9-2.896 2.9a2.897 2.897 0 0 1-2.897-2.9c0-1.61 1.296-2.92 2.897-2.92Z" fill="url('#paint0_linear_8_745')"/><path d="M49.305 16.319v6.78c0 5.256-4.506 9.68-9.644 9.68H24.242c-4.223 0-7.718 3.576-7.718 7.76v14.538c0 4.138 3.638 6.572 7.718 7.759 4.887 1.421 9.573 1.678 15.42 0 3.886-1.113 7.718-3.353 7.718-7.759v-5.819H31.96v-1.94H55.099c4.487 0 6.159-3.095 7.719-7.74 1.611-4.783 1.543-9.383 0-15.518-1.109-4.418-3.227-7.741-7.719-7.741h-5.793Zm-8.672 36.818c1.6 0 2.897 1.297 2.897 2.901 0 1.61-1.297 2.919-2.897 2.919-1.595 0-2.897-1.31-2.897-2.919a2.9 2.9 0 0 1 2.897-2.9Z" fill="url('#paint1_linear_8_745')"/></g><defs><linearGradient id="paint0_linear_8_745" x1="0" y1="0" x2="35.267" y2="30.384" gradientUnits="userSpaceOnUse"><stop stop-color="#5A9FD4"/><stop offset="1" stop-color="#306998"/></linearGradient><linearGradient id="paint1_linear_8_745" x1="40.262" y1="55.549" x2="27.677" y2="37.718" gradientUnits="userSpaceOnUse"><stop stop-color="#FFD43B"/><stop offset="1" stop-color="#FFE873"/></linearGradient><clipPath id="clip0_8_745"><path fill="#fff" d="M0 0h64v64H0z"/></clipPath></defs></svg>