<svg width="64" height="64" fill="none" xmlns="http://www.w3.org/2000/svg"><path fill-rule="evenodd" clip-rule="evenodd" d="M1.975 51.28h22.293s-4.26-19.442 9.848-27.315c3.076-1.496 12.868-7.083 28.896 4.769.508-.424.988-.762.988-.762S49.326 13.326 32.988 14.963c-8.212.734-18.314 8.212-24.24 18.088-5.926 9.877-6.773 18.23-6.773 18.23Z" fill="#C00"/><path fill-rule="evenodd" clip-rule="evenodd" d="M1.975 51.28h22.293s-4.26-19.442 9.848-27.315c3.076-1.496 12.868-7.083 28.896 4.769.508-.424.988-.762.988-.762S49.326 13.326 32.988 14.963c-8.212.734-18.314 8.212-24.24 18.088-5.926 9.877-6.773 18.23-6.773 18.23Z" fill="#C00"/><path fill-rule="evenodd" clip-rule="evenodd" d="M1.975 51.28h22.293s-4.26-19.442 9.848-27.315c3.076-1.496 12.868-7.083 28.896 4.769.508-.424.988-.762.988-.762S49.326 13.326 32.988 14.963c-8.24.734-18.343 8.212-24.268 18.088-5.926 9.877-6.745 18.23-6.745 18.23Zm46.448-34.737.113-1.89c-.254-.142-.96-.48-2.737-.988l-.113 1.862c.931.31 1.834.65 2.737 1.016Z" fill="#C00"/><path fill-rule="evenodd" clip-rule="evenodd" d="m45.742 22.526-.112 1.777c.93.029 1.862.141 2.793.339l.113-1.75c-.96-.197-1.89-.31-2.794-.366Zm-10.44-8.805h.282L35.019 12c-.874 0-1.777.056-2.709.17l.537 1.664a23.837 23.837 0 0 1 2.455-.113Zm1.354 10.385.65 1.947a17.844 17.844 0 0 1 2.454-.988l-.62-1.862c-.96.282-1.779.592-2.484.903Zm-12.811-7.422-1.27-1.947c-.706.367-1.44.762-2.201 1.214l1.298 1.975c.734-.452 1.44-.875 2.173-1.242Zm5.785 12.699 1.354 2.032c.48-.706 1.044-1.355 1.665-2.004l-1.27-1.919a15.622 15.622 0 0 0-1.75 1.89Zm-4.092 9.086 2.286 1.806c.112-1.1.31-2.2.592-3.301l-2.032-1.609c-.366 1.044-.62 2.088-.846 3.104Zm-12.36-13.404-2.003-1.75c-.734.706-1.44 1.412-2.089 2.117l2.173 1.863a28.577 28.577 0 0 1 1.92-2.23ZM4.656 37.68l-3.245-1.185C.875 37.707.282 39.118 0 39.88l3.245 1.185c.367-.96.96-2.342 1.411-3.386Zm20.459 7.958c.056 1.495.197 2.709.338 3.555l3.387 1.214a37.282 37.282 0 0 1-.678-3.669l-3.047-1.1Z" fill="#C00"/></svg>