<svg width="64" height="64" fill="none" xmlns="http://www.w3.org/2000/svg"><g clip-path="url('#clip0_455_582')"><path d="M32 38.004c3.15 0 5.704-2.541 5.704-5.676 0-3.135-2.554-5.676-5.704-5.676s-5.704 2.541-5.704 5.676c0 3.134 2.554 5.676 5.704 5.676Z" fill="#fff"/><path d="M32 43.956c16.905 0 30.609-5.206 30.609-11.628S48.905 20.7 32 20.7 1.391 25.906 1.391 32.328s13.704 11.628 30.61 11.628Z" stroke="#fff" stroke-width="2"/><path d="M21.879 38.142c8.452 14.566 19.836 23.772 25.425 20.56 5.59-3.21 3.27-17.622-5.183-32.188C33.67 11.947 22.285 2.742 16.696 5.954c-5.59 3.21-3.27 17.622 5.183 32.188Z" stroke="#fff" stroke-width="2"/><path d="M21.879 26.514c-8.453 14.566-10.773 28.978-5.183 32.189 5.59 3.21 16.973-5.995 25.425-20.561 8.453-14.566 10.773-28.978 5.183-32.189-5.59-3.21-16.973 5.994-25.425 20.56Z" stroke="#fff" stroke-width="2"/></g><defs><clipPath id="clip0_455_582"><path fill="#fff" transform="translate(0 4)" d="M0 0h64v56.656H0z"/></clipPath></defs></svg>