<svg width="64" height="64" fill="none" xmlns="http://www.w3.org/2000/svg"><g clip-path="url('#clip0_8_673')"><path fill-rule="evenodd" clip-rule="evenodd" d="M32 0c17.673 0 32 14.327 32 32 0 17.673-14.327 32-32 32C14.327 64 0 49.673 0 32 0 14.327 14.327 0 32 0Zm.281 9.313c8.92-3.168 18.343-1.3 19.792 4.383 1.425 5.588-3.427 12.274-9.64 14.677-5.547 2.146-10.134 1.806-12.018 1.188-2.142-.703-3.398-2.116-3.704-2.913l-.006-.014c-.12-.314-.317-.825.006-1.004.2-.111.28-.085.82.509.511.564 2.568 2.078 6.475 1.64 10.254-1.15 16.43-9.117 14.479-13.404-1.366-3-9.27-4.354-19.145.566-12.053 6.006-12.707 10.958-12.81 12.838-.195 3.576 2.931 5.981 6.071 8.396 1.402 1.078 2.806 2.159 3.92 3.346.084.09.166.182.247.274 1.091-.406 2.602-.635 5.004-.676 5.834-.1 9.128 3.745 8.993 7.183-.107 2.707-2.592 3.823-3.054 3.9-.336.057-.518.067-.566-.196-.033-.181.087-.265.481-.509.394-.243 1.571-1.05 1.782-2.517.21-1.467-.891-4.972-6.505-5.627-1.989-.233-3.554-.074-4.897.28.973 2.146 1.16 6.46-1.08 9.801-2.32 3.462-6.64 5.568-10.848 4.397-1.359-.378-3.41-3.185-1.64-7.097 1.677-3.709 8.845-7.336 9.824-7.819v-.017c-.832-.717-1.964-1.496-3.21-2.354-3.726-2.566-8.476-5.838-9.33-10.256-.322-1.671.461-5.67 5.374-10.265 4.131-3.865 9.877-6.824 15.185-8.71Z" fill="#CC499C"/><path d="M25.64 42.66c.466 1.722.415 3.327-.066 4.782a7.835 7.835 0 0 1-.383.947c-.37.77-.869 1.49-1.478 2.154-1.86 2.029-4.457 2.796-5.571 2.15-1.203-.698-.6-3.558 1.555-5.836 2.32-2.452 5.656-4.028 5.656-4.028l-.005-.01.293-.16Z" fill="#CC499C"/><path fill-rule="evenodd" clip-rule="evenodd" d="M52.073 13.696C50.623 8.013 41.2 6.145 32.28 9.313c-5.308 1.886-11.054 4.845-15.185 8.71-4.913 4.595-5.696 8.594-5.373 10.265.853 4.418 5.603 7.69 9.329 10.256 1.246.858 2.378 1.637 3.21 2.354v.017c-.979.483-8.147 4.11-9.824 7.819-1.77 3.912.281 6.72 1.64 7.097 4.208 1.171 8.527-.935 10.848-4.397 2.24-3.34 2.053-7.655 1.08-9.8 1.343-.355 2.908-.514 4.897-.281 5.614.655 6.715 4.16 6.505 5.627-.21 1.467-1.388 2.274-1.782 2.517-.394.244-.514.328-.48.509.047.263.23.253.565.197.462-.078 2.947-1.194 3.054-3.901.135-3.438-3.16-7.284-8.993-7.183-2.402.041-3.913.27-5.004.676a11.21 11.21 0 0 0-.248-.274c-1.113-1.188-2.517-2.268-3.919-3.346-3.14-2.415-6.266-4.82-6.07-8.396.102-1.88.756-6.832 12.81-12.838 9.873-4.92 17.778-3.567 19.144-.566 1.951 4.287-4.225 12.255-14.479 13.404-3.907.438-5.964-1.076-6.475-1.64-.54-.594-.62-.62-.82-.51-.323.18-.127.691-.006 1.005l.006.014c.306.797 1.562 2.21 3.704 2.913 1.884.618 6.471.958 12.018-1.188 6.213-2.403 11.065-9.089 9.64-14.677ZM25.574 47.442c.481-1.455.532-3.06.067-4.783a34.58 34.58 0 0 1-.293.16l.005.01s-3.337 1.576-5.656 4.028c-2.155 2.278-2.758 5.138-1.555 5.835 1.114.647 3.712-.12 5.57-2.149a8.936 8.936 0 0 0 1.479-2.154 7.986 7.986 0 0 0 .383-.947Z" fill="#fff"/></g><defs><clipPath id="clip0_8_673"><path fill="#fff" d="M0 0h64v64H0z"/></clipPath></defs></svg>