<svg width="64" height="64" fill="none" xmlns="http://www.w3.org/2000/svg"><g clip-path="url('#clip0_7_302')" fill="#fff"><path fill-rule="evenodd" clip-rule="evenodd" d="M32 0c17.673 0 32 14.327 32 32 0 17.673-14.327 32-32 32C14.327 64 0 49.673 0 32 0 14.327 14.327 0 32 0Zm.281 9.313c8.92-3.168 18.343-1.3 19.792 4.383 1.425 5.588-3.427 12.274-9.64 14.677-5.547 2.146-10.134 1.806-12.018 1.188-2.142-.703-3.398-2.116-3.704-2.913l-.006-.014c-.12-.314-.317-.825.006-1.004.2-.111.28-.085.82.509.511.564 2.568 2.078 6.475 1.64 10.254-1.15 16.43-9.117 14.479-13.404-1.366-3-9.27-4.354-19.145.566-12.053 6.006-12.707 10.958-12.81 12.838-.195 3.576 2.931 5.981 6.071 8.396 1.402 1.078 2.806 2.159 3.92 3.346.084.09.166.182.247.274 1.091-.406 2.602-.635 5.004-.676 5.834-.1 9.128 3.745 8.993 7.183-.107 2.707-2.592 3.823-3.054 3.9-.336.057-.518.067-.566-.196-.033-.181.087-.265.481-.509.394-.243 1.571-1.05 1.782-2.517.21-1.467-.891-4.972-6.505-5.627-1.989-.233-3.554-.074-4.897.28.973 2.146 1.16 6.46-1.08 9.801-2.32 3.462-6.64 5.568-10.848 4.397-1.359-.378-3.41-3.185-1.64-7.097 1.677-3.709 8.845-7.336 9.824-7.819v-.017c-.832-.717-1.964-1.496-3.21-2.354-3.726-2.566-8.476-5.838-9.33-10.256-.322-1.671.461-5.67 5.374-10.265 4.131-3.865 9.877-6.824 15.185-8.71Z"/><path d="M25.64 42.66c.466 1.722.415 3.327-.066 4.782a7.835 7.835 0 0 1-.383.947c-.37.77-.869 1.49-1.478 2.154-1.86 2.029-4.457 2.796-5.571 2.15-1.203-.698-.6-3.558 1.555-5.836 2.32-2.452 5.656-4.028 5.656-4.028l-.005-.01.293-.16Z"/></g><defs><clipPath id="clip0_7_302"><path fill="#fff" d="M0 0h64v64H0z"/></clipPath></defs></svg>