<svg width="64" height="64" fill="none" xmlns="http://www.w3.org/2000/svg"><path d="M41.572 29.937h.414V32.1l1.15-1.138h.488l-.91.904 1.07 1.71h-.494l-.892-1.438-.41.414v1.024h-.414l-.002-3.638ZM44.11 30.963h.414v2.614h-.414v-2.614ZM45.312 30.243h.414v.72h.43v.338h-.43v1.792a.192.192 0 0 0 .236.236h.024c.06 0 .118-.01.174-.026l-.004.002v.352c-.102.02-.218.032-.338.034l-.018.001h-.006l-.007.001h-.009a.565.565 0 0 1-.338-.11l.002.002a.374.374 0 0 1-.13-.284v-1.996h-.352v-.34h.352v-.722ZM44.11 29.937h.414v.524h-.414v-.524ZM40.504 29.937h.414v.524H40.5l.004-.524ZM61.986 41.548c-1.274 1.348-2.367 2.02-3.277 2.02-.37 0-.668-.13-.894-.389-.227-.259-.34-.606-.34-1.042 0-.59.243-1.493.729-2.706.259-.652.389-1.066.389-1.242 0-.177-.07-.265-.207-.265-.077 0-.18.039-.306.115a3.776 3.776 0 0 0-.406.324 13.183 13.183 0 0 0-.943.993l-.465.538c-.203.248-.33.51-.38.786-.083.469-.138.9-.166 1.292-.017.292-.025.686-.025 1.184l-1.83.43c-.06-.746-.09-1.3-.09-1.664a11.189 11.189 0 0 1 .08-1.323c.052-.412.129-.812.23-1.202.207-.795.54-1.688.998-2.682l2.02-.389c-.425 1.143-.704 2.042-.837 2.698.906-1.01 1.623-1.708 2.155-2.098.53-.39 1.004-.583 1.417-.583.28 0 .515.106.702.318.188.212.281.479.281.797 0 .53-.237 1.401-.71 2.616-.327.833-.49 1.373-.49 1.623 0 .332.136.498.407.498.403 0 1.057-.533 1.959-1.598v.951Z" fill="#fff"/><path d="M29.473 38.313c.59-.78 1.16-1.653 1.705-2.62.436-.967.653-1.799.653-2.495 0-.204-.03-.369-.09-.493s-.138-.186-.232-.186c-.203 0-.5.508-.89 1.525-.389 1.016-.881 2.44-1.146 4.269Z" fill="#F89939"/><path fill-rule="evenodd" clip-rule="evenodd" d="m26.94 22.25-.006.005-.002.003c-7.309 7.32-5.192 21.293-2.708 23.778 2.008 2.008 16.467 4.601 23.785-2.717a23.77 23.77 0 0 0 1.48-1.621c.114-.723.52-1.63 1.215-2.723-.408.21-.855.355-1.34.438-.36.663-.923 1.375-1.69 2.135-.883.84-1.514 1.386-1.895 1.64-.38.254-.745.38-1.093.38-.871 0-1.282-.769-1.233-2.309-.552.79-1.061 1.371-1.527 1.747-.466.375-.948.563-1.445.563-.485 0-.897-.227-1.237-.683a2.57 2.57 0 0 1-.485-1.263c-.67.653-1.274 1.137-1.812 1.453-.557.328-1.282.492-1.845.492-.86 0-1.466-.24-1.818-.72-.405-.34-.638-.758-.7-1.252-.832.666-1.47 1.16-1.915 1.48-.676.328-1.215.492-1.618.492-.7 0-1.177-.228-1.428-.686-.472-.459-.652-1.073-.542-1.847-.11-1.158.141-2.549.753-4.17a26.49 26.49 0 0 1 1.83-4.487l2.102-.779a.529.529 0 0 1 .149-.033c.16 0 .291.118.392.352.103.235.154.55.154.948 0 1.126-.259 2.215-.778 3.27-.63 1.054-1.44 2.18-2.434 3.377-.154.574-.176.968-.066 1.183-.11.48-.022.86.265 1.142.067.282.3.422.703.422.189 0 .506-.106.953-.322.22-.21.71-.637 1.473-1.285-.02-1.051.392-2.01 1.234-2.874.7-.947 1.6-1.42 2.698-1.42.403 0 .924.133 1.233.398.31.265.464.612.464 1.043 0 1.142-1.214 2.068-3.642 2.78.22 1.076.797 1.615 1.73 1.615a2.02 2.02 0 0 0 1.042-.294c.321-.19.798-.603 1.433-1.238.079-.63.295-1.237.648-1.82a5.617 5.617 0 0 1 1.751-1.821c.712-.464 1.342-.696 1.887-.696.69 0 1.173.318 1.45.952l1.69-.935h.465l-.73 2.425c-.376 1.22-.564 2.056-.564 2.508 0 .474.168.712.505.712.214 0 .452-.114.711-.344.26-.23.623-.578 1.092-1.047v.005c.356-.388.682-.801.978-1.238-.476-.21-.712-.522-.712-.935 0-.426.144-.88.434-1.363.29-.482.689-.723 1.197-.723.43 0 .645.22.645.661 0 .348-.124.845-.373 1.49.916-.1 1.716-.8 2.4-2.102l.546-.024c2.657-6.097 2.081-12.692-2.063-16.836-5.818-5.817-16.467-4.601-23.786 2.717Zm17.584 8.713h-.414v2.614h.414v-2.614Zm-3.606 0h-.414l-.004 2.614h.418v-2.614Zm-1.408.034a1.152 1.152 0 0 0-.492-.11h-.02l.01-.006h-.012c-.17 0-.33.036-.466.1l-.006.002a1.019 1.019 0 0 0-.368.29l.002-.002a1.336 1.336 0 0 0-.24.458l.004-.014a1.947 1.947 0 0 0-.084.566v.068c0 .25.052.49.142.694l.002.008c.086.19.224.354.4.472l-.004-.002c.172.106.376.168.592.168h.052c.188 0 .364-.044.514-.12l.004-.002a.872.872 0 0 0 .36-.342l-.004.006a1.29 1.29 0 0 0 .166-.556h-.418c-.072.42-.286.63-.64.63h-.016a.64.64 0 0 1-.378-.12l-.002-.002a.757.757 0 0 1-.25-.336l.004.01a1.43 1.43 0 0 1-.092-.508v-.074c0-.188.032-.368.086-.524l.002-.006a.764.764 0 0 1 .248-.354l-.002.002a.624.624 0 0 1 .374-.126h.038a.6.6 0 0 1 .4.15.65.65 0 0 1 .194.42h.42v-.004a1.446 1.446 0 0 0-.058-.31l-.002-.006a.886.886 0 0 0-.466-.524l.006.004Zm-3.06-.11c.172 0 .336.036.486.098l-.008-.004a.688.688 0 0 1 .324.272l.002.002c.07.118.112.26.112.412v.02h-.44c-.016-.278-.188-.418-.52-.418h-.018l-.022-.002a.696.696 0 0 0-.372.106l.004-.002a.333.333 0 0 0-.15.28v.014c0 .09.044.172.112.22a.95.95 0 0 0 .37.15h.006l.4.098c.216.038.406.132.562.264a.62.62 0 0 1 .174.43v.048a.735.735 0 0 1-.132.424l.002-.002a.831.831 0 0 1-.374.288l-.006.002c-.16.064-.344.102-.538.102h-.026a1.171 1.171 0 0 1-.776-.224l.004.002a.877.877 0 0 1-.274-.636v-.036h.44a.915.915 0 0 0 .043.211c.02.052.05.097.085.135.122.102.28.164.454.164.02 0 .04 0 .06-.002h.036a.77.77 0 0 0 .408-.116l-.004.002a.347.347 0 0 0 .168-.298v-.01a.285.285 0 0 0-.094-.214.687.687 0 0 0-.306-.136h-.004l-.39-.094a3.126 3.126 0 0 1-.418-.132l.022.008a.931.931 0 0 1-.246-.154.566.566 0 0 1-.144-.204l-.002-.004a.762.762 0 0 1-.04-.25V31.66c0-.226.106-.426.272-.556l.002-.002a1.12 1.12 0 0 1 .666-.218c.02 0 .04 0 .062.002l-.012.002h.04Zm9.276-.644h-.414v.722h-.352v.34h.352v1.996c0 .114.05.214.13.284l-.002-.002c.094.07.212.11.338.11h.022l.018-.002c.12-.002.236-.014.338-.034v-.352l.004-.002a.632.632 0 0 1-.174.026h-.024a.192.192 0 0 1-.236-.236v-1.792h.43v-.338h-.43v-.72Zm-1.202-.306h-.414v.524h.414v-.524Zm-2.538 0h-.414l.002 3.638h.414v-1.024l.41-.414.892 1.438h.494l-1.07-1.71.91-.904h-.488l-1.15 1.138v-2.162Zm-1.068 0h-.414l-.004.524h.418v-.524Z" fill="#F89939"/><path d="M34.497 40.018c1.413-.398 2.12-1.132 2.12-2.202 0-.53-.194-.794-.58-.794-.364 0-.712.276-1.042.831-.332.555-.498 1.276-.498 2.165Z" fill="#F89939"/><path d="M36.936 30.985a1.27 1.27 0 0 0-.486-.098h-.04l.012-.002c-.022-.002-.042-.002-.062-.002-.25 0-.482.082-.666.218l-.002.002a.703.703 0 0 0-.272.556V31.701c0 .09.014.176.04.25l.002.004a.566.566 0 0 0 .144.204.931.931 0 0 0 .246.154l-.022-.008c.128.05.26.094.418.132l.39.094h.004c.114.02.22.068.306.136a.285.285 0 0 1 .094.214v.01a.347.347 0 0 1-.168.298l.004-.002a.77.77 0 0 1-.408.116h-.036c-.02.002-.04.002-.06.002a.705.705 0 0 1-.454-.164.415.415 0 0 1-.085-.135l.001.005-.002-.006v.001a.915.915 0 0 1-.042-.21h-.44v.035c0 .25.106.476.274.636l-.004-.002c.194.142.434.226.694.226.028 0 .058 0 .082-.002h.026c.194 0 .378-.038.538-.102l.006-.002a.831.831 0 0 0 .374-.288l-.002.002a.735.735 0 0 0 .132-.424v-.048a.62.62 0 0 0-.174-.43 1.182 1.182 0 0 0-.562-.264l-.4-.098h-.006a.95.95 0 0 1-.37-.15.27.27 0 0 1-.112-.22v-.014c0-.116.058-.22.15-.28l-.004.002a.696.696 0 0 1 .372-.106l.022.001.018.001c.332 0 .504.14.52.418h.44v-.02a.808.808 0 0 0-.112-.412l-.002-.002a.688.688 0 0 0-.324-.272l.008.004ZM39.018 30.887c.176 0 .344.04.492.11l-.006-.004c.222.104.39.294.466.524l.002.006c.028.092.05.2.058.31v.004h-.42a.65.65 0 0 0-.194-.42.6.6 0 0 0-.4-.15h-.038c-.14 0-.27.048-.374.126l.002-.002a.764.764 0 0 0-.248.354l-.002.006a1.617 1.617 0 0 0-.086.524v.074c0 .178.032.35.092.508l-.004-.01c.052.138.14.252.25.336l.002.002a.64.64 0 0 0 .378.12h.016c.354 0 .568-.21.64-.63h.418a1.29 1.29 0 0 1-.166.556l.004-.006a.872.872 0 0 1-.36.342l-.004.002c-.15.076-.326.12-.514.12h-.052c-.216 0-.42-.062-.592-.168l.004.002a1.13 1.13 0 0 1-.4-.472l-.002-.008a1.734 1.734 0 0 1-.142-.694v-.068c0-.198.03-.388.084-.566l-.004.014c.052-.174.134-.326.24-.458l-.002.002c.1-.124.224-.224.368-.29l.006-.002c.136-.064.296-.1.466-.1h.012l-.01.006h.02ZM40.504 30.963h.414v2.614H40.5l.004-2.614Z" fill="#fff"/><path d="M41.616 42.004c.551 0 1.071-.47 1.56-1.41.489-.942.733-1.81.733-2.605 0-.308-.07-.55-.207-.723a.671.671 0 0 0-.554-.261c-.553 0-1.076.469-1.569 1.407-.494.938-.741 1.802-.741 2.59 0 .299.073.54.22.725a.68.68 0 0 0 .558.277Z" fill="#F89939"/><path fill-rule="evenodd" clip-rule="evenodd" d="M53.855 40.6c-.041.334-.067.676-.076 1.026l.079-.078v-.951l-.002.002Zm-9.33-9.637h-.415v2.614h.414v-2.614Zm1.201-.72h-.414v.722h-.352v.34h.352v1.996c0 .114.05.214.13.284l-.002-.002c.094.07.212.11.338.11h.022l.018-.002c.12-.002.236-.014.338-.034v-.352l.004-.002a.632.632 0 0 1-.174.026h-.024a.192.192 0 0 1-.236-.236v-1.792h.43v-.338h-.43v-.72Zm-1.202-.306h-.414v.524h.414v-.524Zm-2.538 0h-.414l.002 3.638h.414v-1.024l.41-.414.892 1.438h.494l-1.07-1.71.91-.904h-.488l-1.15 1.138v-2.162Zm-1.068 0h-.414l-.004.524h.418v-.524Zm-5.083 3.07v-.002l.001.006-.001-.005Z" fill="#fff"/><path d="M49.802 43.16c.231.283.516.425.852.425.736 0 1.778-.653 3.125-1.96.009-.349.034-.691.076-1.026-.633.611-1.04.984-1.222 1.12a.949.949 0 0 1-.571.202.52.52 0 0 1-.435-.207c-.107-.137-.161-.322-.161-.555 0-.247.047-.533.14-.856.094-.322.301-.931.621-1.825l.77-2.12-.208.01a22.32 22.32 0 0 1-3.3 5.33 2.593 2.593 0 0 0-.035.405c0 .42.117.772.348 1.056Z" fill="#fff"/><path d="M9.797 29.016a7.616 7.616 0 0 0-5.652 2.134 9.893 9.893 0 0 0-2.084 6.098 9.941 9.941 0 0 0 3.644 7.702l.018.014a12.64 12.64 0 0 0 8.116 2.926c2.075 0 4.037-.498 5.768-1.38l-.072.034c.785-1.646 1.244-3.58 1.244-5.618a13.26 13.26 0 0 0-2.82-8.196 12.093 12.093 0 0 0-8.136-3.712l-.026-.002Z" fill="#3499CD"/></svg>