<svg width="64" height="64" fill="none" xmlns="http://www.w3.org/2000/svg"><path d="M36.019 36.988c-.364 0-.712.274-1.042.832a4.107 4.107 0 0 0-.5 2.174v-.008c1.414-.397 2.122-1.131 2.122-2.202 0-.53-.192-.794-.58-.794v-.002Zm7.117-.016c-.552 0-1.076.47-1.572 1.408a5.568 5.568 0 0 0-.74 2.584v.01l-.002.054c0 .252.084.486.224.672l-.002-.002a.68.68 0 0 0 .55.278h.008c.553 0 1.075-.47 1.563-1.412.431-.75.7-1.644.733-2.596v-.01c.002-.02.002-.042.002-.066a1.13 1.13 0 0 0-.212-.662l.002.004a.67.67 0 0 0-.532-.26h-.023l.002-.002Zm-11.65-4.492c-.2 0-.5.51-.89 1.528-.435 1.182-.831 2.616-1.117 4.09l-.03.182a10.019 10.019 0 0 0 1.681-2.562l.027-.062c.372-.726.608-1.58.654-2.482v-.06c0-.162-.035-.314-.095-.454l.002.008c-.062-.125-.14-.188-.232-.188Zm12.62-1.544h.414v2.614h-.414v-2.614Zm-3.605 0h.413v2.614h-.418l.005-2.614Zm-1.506-.076h.02c.175 0 .343.04.492.11l-.006-.004c.221.104.39.294.466.524l.002.006c.027.092.05.2.057.31v.004h-.42a.65.65 0 0 0-.194-.42.6.6 0 0 0-.4-.15h-.037c-.14 0-.27.048-.375.126l.002-.002a.764.764 0 0 0-.247.354l-.002.006a1.617 1.617 0 0 0-.087.524v.074c0 .178.032.35.093.508l-.005-.01c.053.138.14.252.25.336l.002.002a.64.64 0 0 0 .378.12h.017c.354 0 .568-.21.64-.63h.418a1.29 1.29 0 0 1-.166.556l.004-.006a.872.872 0 0 1-.36.342l-.005.002c-.15.076-.325.12-.513.12h-.052c-.216 0-.42-.062-.593-.168l.005.002a1.13 1.13 0 0 1-.4-.472l-.002-.008a1.734 1.734 0 0 1-.142-.694v-.068c0-.198.03-.388.084-.566l-.005.014c.053-.174.134-.326.24-.458l-.002.002c.1-.124.224-.224.368-.29l.006-.002c.136-.064.296-.1.466-.1h.013l-.01.006Zm-2.588 0h.04c.171 0 .335.036.485.098l-.008-.004a.687.687 0 0 1 .325.272l.002.002c.07.118.111.26.111.412v.022-.002h-.44c-.015-.278-.188-.418-.52-.418l-.04-.002a.696.696 0 0 0-.372.106l.005-.002a.333.333 0 0 0-.15.28v.014c0 .09.044.172.111.22a.95.95 0 0 0 .37.15h.007l.4.098c.216.038.406.132.562.264l-.003-.002a.621.621 0 0 1 .176.432v.048a.735.735 0 0 1-.132.424l.003-.002a.831.831 0 0 1-.374.288l-.007.002c-.16.064-.343.102-.538.102h-.028.002c-.023.002-.053.002-.081.002-.26 0-.5-.084-.695-.226l.005.002a.877.877 0 0 1-.274-.636v-.038.002h.44a.92.92 0 0 0 .044.216l-.002-.006c.02.052.05.098.085.136.123.102.28.164.455.164.02 0 .04 0 .06-.002h.036a.77.77 0 0 0 .407-.116l-.004.002a.347.347 0 0 0 .169-.298v-.01a.285.285 0 0 0-.095-.214.687.687 0 0 0-.306-.136h-.003l-.39-.094a3.126 3.126 0 0 1-.418-.132l.022.008a.931.931 0 0 1-.246-.154.567.567 0 0 1-.145-.204l-.002-.004a.762.762 0 0 1-.04-.25v-.02.002-.024c0-.226.107-.426.273-.556l.002-.002a1.12 1.12 0 0 1 .727-.216l-.011.002Zm8.902-.644h.413v.72h.43v.338h-.43v1.792a.192.192 0 0 0 .236.236h.025c.06 0 .117-.01.174-.026l-.004.002v.352c-.102.02-.218.032-.338.034l-.04.002a.565.565 0 0 1-.338-.11l.002.002a.374.374 0 0 1-.13-.284v-1.996h-.352v-.34h.352v-.722Zm-1.203-.306h.414v.524h-.414v-.524Zm-2.538 0h.415v2.162l1.15-1.138h.487l-.91.904 1.07 1.71h-.494l-.892-1.438-.41.414v1.024h-.413l-.002-3.638Zm-1.067 0h.413v.524h-.418l.005-.524Zm-30.704-.894a7.617 7.617 0 0 0-5.654 2.136l.002-.002a9.893 9.893 0 0 0-2.084 6.098 9.941 9.941 0 0 0 3.644 7.702l.018.014a12.64 12.64 0 0 0 8.116 2.926c2.075 0 4.037-.498 5.768-1.38l-.072.034c.785-1.646 1.244-3.58 1.244-5.618a13.26 13.26 0 0 0-2.843-8.224l.023.028a12.093 12.093 0 0 0-8.136-3.712l-.026-.002Zm43.011 7.316a22.42 22.42 0 0 1-3.36 5.41l.029-.034c-.018.11-.028.236-.03.366v.054c0 .382.131.732.353 1.01l-.002-.004c.197.26.502.424.849.424.74 0 1.786-.66 3.136-1.966-.002.1-.008.2-.008.302 0 .365.03.92.09 1.664l1.831-.43c0-.5.009-.892.025-1.184.036-.49.094-.932.176-1.366l-.012.074a1.71 1.71 0 0 1 .382-.79l-.003.002.464-.54c.306-.356.614-.68.938-.986l.007-.006c.122-.112.253-.218.392-.316l.012-.008a.64.64 0 0 1 .304-.114c.138 0 .21.088.21.264a4.928 4.928 0 0 1-.403 1.272l.013-.03a8.143 8.143 0 0 0-.729 2.676l-.001.034a1.526 1.526 0 0 0 .342 1.046l-.002-.002c.208.238.511.388.85.388h.046-.002a5.17 5.17 0 0 0 3.272-2.006l.01-.014v-.952c-.903 1.065-1.556 1.599-1.96 1.6-.272 0-.409-.168-.409-.5a6.128 6.128 0 0 1 .505-1.662l-.017.038c.356-.764.609-1.65.71-2.582l.005-.038v-.04c0-.29-.106-.554-.282-.758l.002.002a.902.902 0 0 0-.686-.318h-.02a2.49 2.49 0 0 0-1.42.586l.004-.004c-.794.642-1.5 1.33-2.138 2.078l-.018.022c.248-1.06.535-1.96.884-2.83l-.047.13-2.022.39a15.672 15.672 0 0 0-.97 2.57l-.027.116a9.396 9.396 0 0 0-.225 1.146l-.006.054c-.39.393-.798.768-1.224 1.124a.944.944 0 0 1-.571.2h-.02a.523.523 0 0 1-.414-.204.89.89 0 0 1-.16-.56c.008-.308.058-.6.145-.878l-.006.022c.094-.324.3-.932.622-1.826l.77-2.122-.183.006ZM41.001 15.83a20.837 20.837 0 0 0-14.064 6.392l-.007.006c-7.322 7.322-5.206 21.318-2.72 23.806 1.744 1.742 12.842 3.923 20.54-.292a14.323 14.323 0 0 0 3.269-2.428c.51-.513.997-1.05 1.46-1.608a7.625 7.625 0 0 1 1.238-2.788l-.016.024c-.389.202-.84.356-1.315.436l-.028.004a9.743 9.743 0 0 1-1.685 2.134l-.005.004c-.58.576-1.2 1.114-1.853 1.606l-.046.032c-.304.224-.68.364-1.088.38h-.005c-.874 0-1.285-.77-1.233-2.31a8.514 8.514 0 0 1-1.52 1.74l-.01.008c-.386.336-.89.546-1.442.56h-.002a1.5 1.5 0 0 1-1.236-.676l-.005-.006a2.563 2.563 0 0 1-.482-1.256v-.01a10.026 10.026 0 0 1-1.774 1.432l-.04.024a3.526 3.526 0 0 1-1.81.492h-.041c-.03.002-.063.002-.099.002-.672 0-1.28-.276-1.715-.722a2.422 2.422 0 0 1-.64-1.296l-.003-.014v.01c-.583.56-1.23 1.064-1.923 1.498l-.05.03a3.203 3.203 0 0 1-1.619.492h-.049a1.727 1.727 0 0 1-1.378-.684l-.005-.004a2.883 2.883 0 0 1-.548-1.696c0-.052.003-.106.005-.158v.008c.05-1.508.322-2.936.786-4.276l-.03.102a26.087 26.087 0 0 1 1.9-4.634l-.069.144 2.105-.78a.5.5 0 0 1 .148-.032h.002c.158 0 .29.118.392.35.098.256.154.552.154.86 0 .032 0 .062-.002.094v-.004a7.28 7.28 0 0 1-.8 3.316l.02-.042a14.81 14.81 0 0 1-2.438 3.384l.003-.004c-.045.575-.068.97-.068 1.184l-.001.104c0 .382.1.74.274 1.05l-.006-.01a.804.804 0 0 0 .704.422c.36-.014.688-.134.96-.328l-.007.004c.558-.406 1.05-.836 1.503-1.304l.003-.004a4.78 4.78 0 0 1 1.208-2.858l-.004.004a3.525 3.525 0 0 1 2.693-1.422h.005c.027-.002.059-.002.089-.002.435 0 .833.152 1.15.404l-.005-.002c.287.242.467.6.467 1.002v.042c0 1.145-1.216 2.071-3.646 2.782.22 1.074.8 1.614 1.732 1.614.385 0 .745-.11 1.05-.298l-.008.006a8.87 8.87 0 0 0 1.431-1.236l.005-.006c.092-.684.32-1.298.657-1.838l-.011.02a5.709 5.709 0 0 1 1.732-1.812l.02-.014a3.574 3.574 0 0 1 1.877-.694h.013c.023-.002.05-.002.075-.002.627 0 1.16.392 1.37.944l.005.01 1.692-.934h.464l-.73 2.426c-.273.732-.47 1.582-.563 2.464l-.003.046c0 .474.168.712.504.712.282-.026.53-.152.712-.342.26-.23.623-.58 1.092-1.05v.002c.342-.37.664-.774.956-1.198l.023-.036a1.014 1.014 0 0 1-.712-.936c.02-.51.18-.98.443-1.374l-.006.01a1.334 1.334 0 0 1 1.186-.724h.012c.022-.004.047-.004.074-.004a.578.578 0 0 1 .57.67v-.004a4.58 4.58 0 0 1-.385 1.518l.013-.03c.917-.1 1.718-.801 2.401-2.104l.57-.022c1.059-2.002 1.678-4.38 1.678-6.898 0-3.814-1.421-7.296-3.765-9.944l.014.016a13.08 13.08 0 0 0-9.764-3.674l.03-.002Z" fill="#fff"/></svg>