<svg width="64" height="64" fill="none" xmlns="http://www.w3.org/2000/svg"><g clip-path="url('#clip0_455_554')"><mask id="mask0_455_554" style="mask-type:luminance" maskUnits="userSpaceOnUse" x="4" y="15" width="56" height="34"><path d="M4 15h56v33.382H4V15Z" fill="#fff"/></mask><g mask="url('#mask0_455_554')"><path fill-rule="evenodd" clip-rule="evenodd" d="M32 15c-7.467 0-12.133 3.71-14 11.127 2.8-3.709 6.067-5.1 9.8-4.172 2.13.528 3.652 2.064 5.338 3.763 2.745 2.769 5.922 5.973 12.862 5.973 7.467 0 12.133-3.71 14-11.127-2.8 3.709-6.067 5.1-9.8 4.172-2.13-.528-3.652-2.064-5.338-3.763C42.117 18.204 38.94 15 32 15ZM18 31.69c-7.467 0-12.133 3.71-14 11.128 2.8-3.709 6.067-5.1 9.8-4.172 2.13.529 3.652 2.064 5.338 3.763 2.745 2.769 5.922 5.973 12.862 5.973 7.467 0 12.133-3.71 14-11.127-2.8 3.709-6.067 5.1-9.8 4.172-2.13-.528-3.652-2.065-5.338-3.763C28.117 34.895 24.94 31.69 18 31.69Z" fill="#38BDF8"/></g></g><defs><clipPath id="clip0_455_554"><path fill="#fff" transform="translate(4 15)" d="M0 0h56v34H0z"/></clipPath></defs></svg>