<svg width="64" height="64" fill="none" xmlns="http://www.w3.org/2000/svg"><g clip-path="url('#clip0_8_392')"><path fill-rule="evenodd" clip-rule="evenodd" d="M6.25 0h51.5A6.25 6.25 0 0 1 64 6.25v51.5A6.25 6.25 0 0 1 57.75 64H6.25A6.25 6.25 0 0 1 0 57.75V6.25A6.25 6.25 0 0 1 6.25 0Zm33.367 57.186v-6.258a12.024 12.024 0 0 0 3.698 2.141c1.33.476 2.673.714 4.03.714.795 0 1.49-.072 2.083-.215.594-.143 1.09-.342 1.487-.596.398-.255.694-.555.89-.9.196-.346.294-.72.294-1.124a2.43 2.43 0 0 0-.47-1.467c-.313-.43-.74-.828-1.281-1.193a13.389 13.389 0 0 0-1.927-1.056 66.257 66.257 0 0 0-2.407-1.036c-2.19-.913-3.824-2.027-4.9-3.344-1.076-1.317-1.614-2.907-1.614-4.772 0-1.46.294-2.715.88-3.764a7.474 7.474 0 0 1 2.397-2.591c1.01-.678 2.181-1.177 3.511-1.496 1.33-.32 2.74-.479 4.226-.479 1.46 0 2.755.088 3.883.264 1.128.176 2.169.447 3.12.812v5.846a9.44 9.44 0 0 0-1.535-.86 12.193 12.193 0 0 0-1.712-.616 13.07 13.07 0 0 0-3.404-.479 8.63 8.63 0 0 0-1.956.205c-.587.137-1.083.33-1.487.577a2.873 2.873 0 0 0-.939.89 2.109 2.109 0 0 0-.333 1.163c0 .47.124.89.372 1.262.248.371.6.723 1.056 1.056.457.332 1.011.658 1.663.977.653.32 1.39.649 2.211.988 1.122.47 2.13.968 3.022 1.496.894.528 1.66 1.124 2.3 1.79a6.97 6.97 0 0 1 1.466 2.277c.34.854.509 1.848.509 2.982 0 1.565-.297 2.878-.89 3.94a7.224 7.224 0 0 1-2.416 2.582c-1.017.658-2.201 1.131-3.55 1.418-1.35.287-2.776.43-4.275.43a23.78 23.78 0 0 1-4.392-.391c-1.39-.26-2.592-.652-3.61-1.173ZM37.125 35.51h-8.027v22.865h-6.36V35.51H14.75v-5.135h22.375v5.135Z" fill="#fff"/></g><defs><clipPath id="clip0_8_392"><path fill="#fff" d="M0 0h64v64H0z"/></clipPath></defs></svg>