<svg width="64" height="64" viewBox="0 0 64 64" fill="none" xmlns="http://www.w3.org/2000/svg">
<path d="M8.91968 57.6024L3.78406 0H60.2161L55.0749 57.5933L31.9656 64L8.91968 57.6024Z" fill="#264DE4"/>
<path d="M50.6735 53.926L55.067 4.70975H32V59.103L50.6735 53.926Z" fill="#2965F1"/>
<path d="M15.5575 26.0738L16.1907 33.1384H32V26.0738H15.5575ZM14.9274 18.8394H32V11.7746H14.2852L14.9274 18.8394ZM32 44.4215L31.969 44.4298L24.101 42.3053L23.5982 36.6708H16.5062L17.496 47.7634L31.9675 51.7809L32 51.7718V44.4215Z" fill="#EBEBEB"/>
<path d="M31.9756 26.0738V33.1384H40.675L39.855 42.3008L31.9756 44.4274V51.7774L46.4586 47.7634L46.5648 46.5698L48.2248 27.9708L48.3973 26.0738L49.6727 11.7746H31.9756V18.8394H41.9305L41.2875 26.0738H31.9756Z" fill="white"/>
</svg>
