<svg width="64" height="64" viewBox="0 0 64 64" fill="none" xmlns="http://www.w3.org/2000/svg">
<path d="M19.5275 53.8652C17.1656 51.9843 14.6461 50.1809 12.9244 47.6415C9.30175 43.1634 6.51246 37.9786 4.60559 32.5301C3.45301 28.9872 3.05828 25.1888 1.57245 21.7828C0.0181373 19.309 1.83881 16.6048 4.51508 15.8184C5.70661 15.5869 7.80169 14.4489 5.27271 15.2623C3.0054 16.9466 2.78598 13.7334 5.11093 13.53C6.69759 13.3164 7.28168 12.0013 6.73909 10.8174C5.03589 9.69279 10.8691 8.45688 7.93407 6.77887C4.87654 3.4389 12.2109 2.79595 10.4014 6.58913C9.96826 9.50592 15.5263 6.05453 14.2367 9.4228C15.5475 11.0404 19.1451 9.79096 19.0558 12.0602C20.9653 12.1931 21.6206 13.8198 23.413 13.9447C25.2707 14.7941 28.6383 15.4634 29.2705 17.583C27.4274 19.0603 23.1597 14.5313 22.9546 18.6208C23.5114 24.6619 23.3695 30.8851 25.5525 36.638C26.5851 40.1215 29.0882 42.8636 31.3488 45.5767C33.5117 48.2338 36.4415 50.1042 39.4277 51.6793C42.0472 52.9301 44.8713 53.7597 47.7261 54.2803C48.884 53.3835 50.9283 50.0497 52.7346 51.4555C52.8203 53.0351 49.1494 54.7575 52.5619 54.5829C54.5657 53.9709 55.9556 56.152 57.6057 54.1846C59.1259 56.0079 63.9244 53.0197 62.8427 56.7465C61.3801 57.7019 59.2469 57.1246 57.7818 58.439C55.3662 57.2174 53.4431 59.532 50.769 59.2393C47.7992 59.7779 44.778 59.9953 41.7671 60C36.8276 59.6049 31.7835 59.4383 27.0844 57.697C24.4373 56.9182 21.854 55.3921 19.5275 53.8652ZM23.6991 55.6953C26.284 56.8272 28.8115 58.02 31.6443 58.3798C36.1386 59.0127 40.7797 59.9862 45.2901 59.0982C43.2488 58.1649 41.1384 59.4618 39.1047 58.4308C36.6656 58.9622 34.0481 58.2955 31.5685 57.9672C28.7487 56.6954 25.7057 55.821 23.0651 54.1702C19.7656 52.95 24.7716 55.7351 25.6626 55.9607C27.7253 57.1461 23.3944 55.353 22.7838 54.8602C21.0563 53.879 20.8361 54.0841 22.6128 55.0805C22.9706 55.2926 23.3242 55.5148 23.6991 55.6953ZM18.7806 52.176C21.2854 53.1154 18.7696 50.3926 17.6218 50.5508C17.1133 49.6575 15.6789 49.0932 16.6907 48.6134C14.8707 49.2531 14.7842 46.1806 13.9287 46.6196C12.0032 46.004 13.1793 43.8233 10.8858 42.4842C10.6764 41.0731 8.60704 39.8492 7.947 37.7207C7.65549 36.631 5.60907 33.5016 6.86619 36.414C7.93656 39.2176 9.81981 41.6186 11.387 44.0168C12.604 46.3002 14.0409 48.6866 16.2572 50.1111C17.0043 50.8367 17.7256 51.9485 18.7806 52.176ZM11.5649 44.1546C12.023 44.9836 11.6523 43.7716 11.5649 44.1546ZM21.7803 53.3021C22.335 53.0506 20.9828 52.9853 21.7803 53.3021ZM23.1401 53.8043C22.9992 53.1108 22.5194 54.192 23.1401 53.8043ZM24.842 54.5231C25.6523 53.7419 23.5933 54.0306 24.842 54.5231ZM27.7591 56.1692C28.2515 55.4323 26.1832 55.8911 27.7591 56.1692ZM22.1575 52.2156C23.4161 51.3913 20.532 52.2042 22.1575 52.2156ZM23.4343 52.8602C23.3986 52.4244 22.9793 53.0554 23.4343 52.8602ZM29.8156 56.8929C30.8414 57.5484 35.806 58.3296 32.6972 57.1617C32.1771 57.2727 26.9329 55.6598 29.8156 56.8929ZM19.6851 48.9044C19.5854 48.4673 18.0928 48.4218 19.6851 48.9044ZM22.6558 50.6574C23.429 50.1114 21.0511 50.2363 22.6558 50.6574ZM25.1546 52.2086C26.264 51.7851 23.3548 51.7831 25.1546 52.2086ZM18.4763 47.5714C19.68 48.5061 23.3309 47.6912 20.3198 47.0134C18.9493 46.2738 15.8605 45.7675 17.9659 47.4595L18.4763 47.5714ZM26.847 52.7443C27.3484 51.8793 24.7444 52.2503 26.847 52.7443ZM24.3034 50.6975C27.2469 51.5405 21.8283 48.8128 23.5772 50.3872L23.9648 50.5648L24.3034 50.6975ZM29.4032 53.6818C26.8853 53.2927 32.1908 53.7087 29.4032 53.6818ZM17.4037 45.9384C17.2949 45.4127 16.7158 45.9825 17.4037 45.9384ZM34.1186 56.3599C34.1929 55.4104 33.2089 57.0665 34.1186 56.3599ZM22.1609 48.8881C21.9923 48.3881 21.2899 48.8676 22.1609 48.8881ZM17.6681 45.6086C19.2685 45.5113 15.4771 44.8946 17.6681 45.6086ZM12.3458 42.1253C12.1466 41.3485 10.6044 40.729 12.3458 42.1253ZM26.3181 51.1033C26.1802 51.1774 26.025 50.7649 26.3181 51.1033ZM35.0149 56.5069C34.987 55.9897 34.5412 56.7027 35.0149 56.5069ZM25.5484 50.2986C25.7049 49.6322 24.1838 50.0968 25.5484 50.2986ZM19.0694 46.1412C20.26 46.0121 17.1622 45.3262 19.0694 46.1412ZM30.0292 53.0365C31.8846 52.2922 28.2209 52.6731 30.0292 53.0365ZM24.3284 49.1183C26.4667 49.3974 21.7842 47.6457 23.8592 48.9615L24.3284 49.1183ZM31.7599 53.7449C33.7563 52.5365 33.0981 56.5745 35.1468 54.086C37.1677 52.592 33.4016 55.933 35.8923 54.3524C37.6935 53.1326 40.354 54.9306 42.0347 55.5172C43.2434 55.4571 44.4184 56.5754 45.6575 55.8951C48.0427 55.2446 40.9932 54.9303 42.8411 53.7762C40.6586 54.4194 39.0461 53.0095 37.9721 51.594C35.524 51.0216 32.6934 49.7544 31.4716 47.5608C30.9734 46.7371 32.1912 47.6768 31.0416 46.3305C29.5664 45.002 28.8297 43.4939 27.8394 41.8791C26.6564 41.2401 26.5186 39.3592 26.399 41.816C26.4084 40.2655 24.9706 39.2218 24.6197 39.6557C24.6134 38.1624 26.1584 38.9109 25.0768 37.8061C24.8441 36.2583 24.0776 34.6456 23.8472 32.8982C23.4893 32.0558 23.7968 30.2518 22.6256 32.1586C22.1989 34.1738 22.484 29.6821 23.1475 31.1633C24.0185 29.6519 22.8348 29.8296 22.7864 30.0395C23.3537 28.7643 23.1455 26.9554 22.6383 27.6455C22.9406 26.2938 23.1159 22.6711 22.1858 23.3131C22.7496 21.8997 23.2551 16.8458 20.8075 18.7727C19.8156 18.7868 18.0978 19.1373 17.2859 19.5461C19.8317 20.967 17.0298 20.0593 15.9934 19.8334C15.8584 21.1482 14.8319 20.5796 13.5495 20.5924C15.5978 20.849 12.5521 22.7135 11.3771 21.9893C9.85102 22.7277 12.6941 24.5711 11.4077 25.141C11.5658 26.0003 9.06978 24.8307 9.26581 26.8151C7.78432 26.1841 9.06181 29.169 9.803 28.1595C12.3227 28.8499 11.5768 30.4241 11.641 31.9195C11.2304 32.7909 9.61406 29.8714 11.281 30.0066C9.96591 27.8435 9.82628 29.2247 8.73348 30.2296C8.47924 30.3026 11.521 31.6593 9.61213 32.3302C11.2915 32.5926 11.3393 34.0806 11.6812 35.0221C12.6906 36.0866 12.484 33.8467 13.6918 35.126C12.9275 33.9863 9.64343 31.9149 12.2875 32.5792C12.2734 31.4322 11.8093 30.5072 12.6194 30.5297C13.4216 29.0587 11.7792 34.1564 13.5874 32.287C14.088 32.0657 14.212 30.8142 15.1117 32.4052C16.4185 33.7068 15.5837 34.65 13.7403 33.4581C14.0701 34.5909 16.2063 34.9957 15.8049 36.7672C16.2304 38.3252 16.8258 37.7513 17.3448 37.6613C17.7519 39.1751 17.9831 38.0619 18.0024 37.3416C19.8665 37.7456 19.4299 38.8613 20.0131 39.6407C21.2976 40.2278 18.1746 35.6616 20.3798 38.2677C22.7 40.3887 21.25 41.274 19.1678 40.9342C20.4857 40.8264 20.9106 42.7381 22.559 42.6709C24.0622 43.395 25.0799 46.1758 22.4889 45.0182C21.5903 44.1978 18.4101 43.1858 21.0076 44.7462C23.4066 45.8711 25.3119 46.544 27.6256 47.9559C29.2815 49.1528 29.9969 50.5236 30.6245 50.795C29.2328 51.468 26.4305 50.2575 28.5114 49.8866C27.2135 49.6472 25.7537 48.9826 26.9968 50.62C28.0539 51.5136 30.742 51.4189 31.2239 51.5202C30.8154 52.4314 30.1144 52.5039 31.2406 52.5746C29.9842 53.2525 31.6435 53.3575 31.7599 53.7449ZM29.1907 46.3988C28.4263 45.5894 28.2286 44.0733 29.0549 45.3925C29.4787 45.5648 30.4124 47.87 29.1907 46.3988ZM37.5577 51.7801C38.0345 51.7488 37.5716 52.1468 37.5577 51.7801ZM27.9837 44.4141C28.2602 45.358 27.9544 43.1904 27.9837 44.4141ZM27.1521 43.2813C28.3643 43.814 26.1907 41.4003 27.1521 43.2813ZM17.0748 36.239C17.6396 36.0864 17.3527 37.2171 17.0748 36.239ZM25.0951 40.6406C25.5027 41.7473 25.442 39.3216 25.0951 40.6406ZM19.429 36.6514C20.2645 37.3341 19.0295 35.9236 19.429 36.6514ZM24.2917 38.2298C23.3808 36.1634 24.9366 37.1011 24.4932 38.5684L24.2917 38.2298ZM15.9059 32.5674C15.4986 31.8895 14.825 29.9004 15.0419 29.2932C15.2381 30.2821 17.1189 33.549 15.9645 30.6465C14.6887 28.2134 17.4894 31.4362 17.7775 32.0431C17.9117 32.6468 16.9904 31.8781 17.6146 33.2937C16.4763 31.682 16.9426 34.1839 15.9059 32.5674ZM13.3142 30.7592C13.9075 31.84 13.4209 29.183 13.3142 30.7592ZM14.48 31.1655C15.4232 32.8241 15.0363 29.9758 14.48 31.1655ZM11.6757 28.9691C10.7108 27.9983 10.0125 27.1034 11.7208 28.3666C12.3791 28.3926 10.2584 26.3315 11.8794 27.7121C13.5838 28.0267 12.721 30.5417 11.6757 28.9691ZM13.1487 28.9301C13.7091 28.3679 13.4462 29.4835 13.1487 28.9301ZM14.0551 29.2243C15.0861 29.9002 13.2056 27.6121 14.0551 29.2243ZM12.2533 27.4808C9.44827 24.9534 15.778 28.8025 12.7115 27.9494L12.2533 27.4808ZM20.2901 32.2087C19.0762 31.4718 19.9684 27.021 20.3823 30.0651C21.5624 29.6786 20.3172 31.6372 21.1973 31.619C21.0586 32.8548 20.6649 33.2991 20.2901 32.2087ZM23.2627 33.9876C23.5132 34.9047 23.3817 32.6462 23.2627 33.9876ZM22.7463 33.471C22.88 32.898 22.7602 34.1459 22.7463 33.471ZM12.8035 26.6503C11.0015 24.133 18.0407 29.1967 13.9577 27.2888C13.5311 27.1758 13.0177 27.1355 12.8035 26.6503ZM18.5278 29.7232C18.9087 30.0746 18.3573 27.6036 18.5278 29.7232ZM22.8738 32.546C23.2102 31.3386 22.8989 33.3447 22.8738 32.546ZM13.0796 25.6896C14.1506 25.4576 17.518 27.594 14.4257 26.2998C14.0821 25.9147 13.3496 26.0897 13.0796 25.6896ZM22.2767 30.3308C22.3912 28.1634 22.9161 29.0361 22.2807 30.641L22.2767 30.3308ZM13.8768 24.9354C14.3132 24.2873 12.7184 22.0051 14.1067 24.1168C14.7066 24.5994 15.8436 24.9252 14.8397 25.1283C16.4185 26.5384 14.4547 25.5104 13.8768 24.9354ZM21.8218 29.6538C22.1233 27.1848 22.0877 31.1003 21.8218 29.6538ZM12.9654 22.655C13.2988 22.5107 13.1415 23.1046 12.9654 22.655ZM15.0378 23.9039C16.0217 25.1676 15.5712 22.7707 15.0378 23.9039ZM20.8835 27.1964C20.9938 27.8294 20.8779 26.7612 20.8835 27.1964ZM20.5449 26.4374C21.2996 27.5104 19.7336 24.4106 20.5449 26.4374ZM20.0467 25.1086C20.5096 26.1607 19.9105 24.2711 20.0467 25.1086ZM20.8575 23.7741C20.3007 22.7807 21.5606 19.3963 21.7012 21.4953C21.1135 23.1308 21.5317 24.0457 21.9416 21.8521C22.6987 20.1257 21.7781 25.2588 20.8575 23.7741ZM21.6907 18.741C21.9334 18.4392 21.7446 19.1046 21.6907 18.741ZM20.2993 46.5013C20.3407 46.6869 19.9693 46.2097 20.2993 46.5013ZM23.1657 47.9695C24.7601 48.3837 24.752 47.7183 23.3109 47.5206C22.5358 46.7905 20.0901 46.0162 22.2792 47.43C22.4241 47.8018 22.8822 47.7932 23.1657 47.9695ZM17.5046 44.1624C18.383 44.8256 20.8133 46.0421 18.756 44.4149C19.4496 43.5989 17.4284 43.1646 18.0989 42.6188C16.3934 41.5622 16.7535 41.6562 17.9483 41.6894C15.8987 40.7618 18.2442 40.8312 18.1337 40.3559C17.3434 40.1979 14.2083 38.9449 16.0527 40.4588C14.1777 39.4909 15.6059 40.8194 15.0392 40.679C13.1219 40.1497 16.7466 42.1575 14.7347 41.659C15.8346 42.5416 17.6953 43.9197 15.1997 42.593C14.8709 43.0722 16.9856 43.7986 17.5046 44.1624ZM20.5026 45.9062C24.1477 47.0955 18.7154 44.4532 20.5026 45.9062ZM35.849 55.3193C35.896 54.5871 35.3508 55.944 35.849 55.3193ZM37.4264 55.9915C38.2674 55.1664 37.4607 57.3058 38.8199 55.7895C38.8346 54.704 38.778 54.0629 37.258 55.3815C36.839 55.6168 36.6519 56.6172 37.4264 55.9915ZM12.388 40.0704C12.1297 39.0424 10.5776 39.0477 12.388 40.0704ZM14.0723 41.1879C13.4468 40.1379 11.8407 40.2373 14.0723 41.1879ZM23.6543 47.0388C24.5898 47.8801 27.951 47.6561 24.7906 47.1423C24.3225 46.4416 21.8183 46.6102 23.6543 47.0388ZM36.8264 55.2754C38.2662 54.0521 35.4314 55.8211 36.8264 55.2754ZM39.821 57.3589C39.8299 56.9664 39.2003 57.5308 39.821 57.3589ZM39.8256 56.8093C38.2806 56.9105 41.42 55.0989 39.8256 56.8093ZM8.24537 36.5589C6.88642 34.5957 7.40061 33.7132 6.09011 32.1102C5.84202 30.8844 3.84191 28.1028 5.05561 31.0497C6.16729 32.7732 6.49763 35.4417 8.24537 36.5589ZM39.3254 56.2656C42.2588 54.3459 38.1213 55.4294 39.3254 56.2656ZM41.5647 57.1538C43.0337 55.8768 40.6355 56.8867 41.5647 57.1538ZM11.8887 37.9004C12.3092 37.2671 10.803 37.8194 11.8887 37.9004ZM41.0971 56.5473C42.5194 55.6188 40.7694 55.7614 40.8393 56.6327L41.0971 56.5473ZM21.7946 44.2288C21.7457 43.6018 21.0435 44.282 21.7946 44.2288ZM22.9875 44.9238C22.6084 44.1477 22.4046 45.0457 22.9875 44.9238ZM43.3794 57.1748C45.2015 55.8439 42.2748 56.92 42.9969 57.427L43.3794 57.1748ZM42.6816 56.8334C44.166 55.574 41.1145 57.3915 42.6816 56.8334ZM46.2466 59.2371C47.2432 58.5613 45.0358 59.0185 46.2466 59.2371ZM12.8028 37.4437C14.1387 37.7468 18.1415 40.7749 15.78 37.6531C14.5706 37.2906 15.2959 34.2973 14.0623 34.8271C14.8903 36.2276 14.7435 36.8237 13.005 35.9408C10.82 34.8608 11.7771 36.476 12.2042 36.9211C11.6222 37.055 12.9739 37.4325 12.8028 37.4437ZM6.7163 32.5769C6.95547 31.5753 4.51411 27.0668 5.56346 30.3178C5.94224 30.9988 5.90373 32.2894 6.7163 32.5769ZM17.8876 39.5503C17.8549 39.4679 17.1997 38.9678 17.8876 39.5503ZM19.5816 39.9495C19.5807 38.8885 17.7091 39.5186 19.5816 39.9495ZM34.2616 49.3195C33.1548 49.3027 33.9816 48.5946 34.2616 49.3195ZM34.9665 49.8409C34.8625 49.4352 34.5598 49.9192 34.9665 49.8409ZM40.7852 53.5518C41.3448 53.1332 40.0869 53.4983 40.7852 53.5518ZM9.75654 33.3627C11.3572 32.7353 8.04153 32.9153 9.75654 33.3627ZM32.9693 48.1697C32.9515 47.1205 31.9488 48.43 32.9693 48.1697ZM9.12411 31.8706C10.1523 31.5189 8.17294 31.6389 9.12411 31.8706ZM12.1085 33.3343C12.0899 32.9894 11.7928 33.4648 12.1085 33.3343ZM48.5093 55.9348C49.8315 55.6634 52.8445 56.6162 53.3314 55.5798C51.7258 55.5404 47.7764 54.4329 47.5895 55.8441L47.941 55.9002L48.5093 55.9348ZM13.057 33.5763C13.08 32.5131 12.2382 33.5366 13.057 33.5763ZM5.21029 28.0651C4.85394 26.0395 3.85495 27.7586 5.21029 28.0651ZM7.08145 28.5413C7.10444 27.8909 5.36877 27.9561 7.08145 28.5413ZM8.15076 29.0731C7.90882 29.3933 7.84167 28.8196 8.15076 29.0731ZM14.8791 33.4432C15.1958 33.1486 14.1291 33.225 14.8791 33.4432ZM7.43855 27.8738C7.25769 26.3439 5.27133 27.6446 7.43855 27.8738ZM3.60237 25.3536C3.54781 24.6475 3.22853 25.62 3.60237 25.3536ZM4.17298 24.9173C4.07989 24.08 3.68307 25.0238 4.17298 24.9173ZM7.3258 26.8227C8.65898 26.2925 4.8974 25.726 7.05339 26.7226L7.3258 26.8227ZM49.5213 53.212C50.3746 52.4199 48.4368 52.9671 49.5213 53.212ZM54.6188 55.8874C54.9608 54.8633 53.7579 56.0222 54.6188 55.8874ZM7.64801 25.1496C7.78845 24.1589 6.59107 25.3463 7.64801 25.1496ZM3.16232 22.1067C2.92135 20.708 2.95431 18.253 5.2592 19.0826C2.18255 19.7011 7.38859 22.9544 6.73116 20.3858C8.02482 20.4499 9.26186 19.6117 8.58296 20.8838C11.1319 20.5988 12.899 18.3609 15.361 18.6745C17.2788 18.4175 19.3757 18.2226 21.4424 17.441C23.1416 17.317 24.7774 15.4647 23.846 14.3668C21.5287 14.1683 19.1031 14.4618 16.5419 14.9773C13.7037 15.5746 11.1258 16.7096 8.26215 17.1968C5.47094 17.5764 8.82358 18.2428 8.02406 18.3912C6.56757 18.9029 9.76105 19.248 7.83524 19.7874C6.64589 19.5584 5.40794 19.1447 5.91598 17.8756C3.24224 18.2269 0.892795 19.3505 3.00521 22.1054L3.16232 22.1067ZM9.60505 18.7844C10.2319 16.4461 12.9636 20.7085 10.6326 19.095C10.3541 18.884 9.89622 18.7119 9.60505 18.7844ZM9.72701 17.6507C10.6318 16.9682 10.208 18.0333 9.72701 17.6507ZM10.8759 17.6692C10.9576 16.5932 13.5059 18.2388 11.2961 18.0565L10.8759 17.6692ZM12.4474 17.0294C13.0213 16.3504 12.6124 17.6333 12.4474 17.0294ZM12.8495 16.7568C13.8051 15.5942 18.2612 16.0148 14.9995 16.6435C14.1252 15.977 13.4551 17.0364 12.8495 16.7568ZM18.6649 15.8492C21.554 16.9777 18.5195 12.6736 18.6649 15.8492ZM20.3149 15.84C20.9182 14.2395 22.656 15.1978 20.5941 15.5184C20.6389 15.6887 20.5336 16.3447 20.3149 15.84ZM6.99733 24.3281C8.79985 23.2105 5.08376 23.3585 6.99733 24.3281ZM8.33011 24.703C8.96208 24.0226 6.95691 24.4271 8.33011 24.703ZM4.40314 21.8812C5.4331 21.0801 3.18433 21.5766 4.40314 21.8812ZM57.6277 55.5947C57.6574 54.6653 56.8404 56.0135 57.6277 55.5947ZM52.2194 51.8578C52.3732 50.7877 51.5244 51.9511 52.2194 51.8578ZM59.1149 55.955C60.5549 55.96 63.4781 55.5022 60.3448 55.5037C59.8531 55.5813 57.4799 55.5647 59.1149 55.955ZM9.50244 24.0472C10.6679 23.9661 11.3258 22.7455 9.27704 22.8157C6.1018 22.4829 12.0785 23.9165 8.86971 23.5066C8.43855 23.7957 9.47739 24.1272 9.50244 24.0472ZM10.5288 24.5732C10.4072 23.8155 10.1685 24.9756 10.5288 24.5732ZM11.7464 21.286C12.2521 20.6509 11.0465 21.1162 11.7464 21.286ZM7.8705 14.7263C9.95044 14.0099 12.7947 13.2048 13.7768 15.079C12.7773 13.8611 13.3734 12.662 14.3175 14.4428C15.6523 16.2446 16.3205 13.6233 15.4523 13.019C16.4417 14.2637 17.567 14.8518 16.1148 13.0976C17.6929 11.1756 12.9548 13.3493 11.8779 13.3274C11.3598 13.5629 6.52843 14.575 7.8705 14.7263ZM9.08946 12.3626C10.2757 11.4561 13.192 12.9018 11.3206 11.4617C11.1376 11.2981 7.22225 12.5537 9.08946 12.3626ZM13.414 12.5434C14.8023 12.5792 12.8152 10.655 14.4695 11.5269C14.1978 10.6282 12.5434 10.46 11.7346 10.101C11.2771 10.9226 12.6658 12.5544 13.414 12.5434ZM9.84776 8.56868C10.328 7.90947 9.00603 8.90288 9.84776 8.56868ZM11.6153 8.99702C13.8525 8.69657 11.045 8.02152 11.1644 8.97288L11.6153 8.99702ZM8.31497 6.38234C6.73971 4.30027 11.2775 6.73233 9.677 4.55233C8.32994 3.46626 7.03549 5.77453 8.31497 6.38234ZM28.531 17.4074C29.2535 16.1106 25.548 15.6593 28.0442 16.9478C28.274 17.0255 28.222 17.4971 28.531 17.4074Z" fill="white"/>
</svg>
