<svg width="64" height="64" viewBox="0 0 64 64" fill="none" xmlns="http://www.w3.org/2000/svg">
<path d="M61.1695 29.3001L34.6993 2.83118C33.1752 1.3064 30.7029 1.3064 29.1775 2.83118L23.6814 8.32858L30.6534 15.3006C32.2739 14.753 34.1319 15.1205 35.4231 16.4124C36.7222 17.7122 37.0864 19.586 36.5249 21.2124L43.2456 27.9324C44.872 27.3715 46.7471 27.7344 48.0456 29.0349C49.86 30.8493 49.86 33.7894 48.0456 35.6051C46.2298 37.4202 43.2898 37.4202 41.4734 35.6051C40.1089 34.2393 39.7711 32.2336 40.4632 30.5524L34.1952 24.285V40.7779C34.6373 40.997 35.0549 41.2886 35.4231 41.6567C37.2375 43.4712 37.2375 46.4112 35.4231 48.2276C33.6086 50.0414 30.6666 50.0414 28.8535 48.2276C27.0391 46.4106 27.0391 43.4705 28.8535 41.6567C29.3022 41.2087 29.8214 40.8696 30.3756 40.6426V23.996C29.8214 23.7691 29.3035 23.4332 28.8535 22.9819C27.4792 21.6083 27.1486 19.5906 27.8533 17.9029L20.9802 11.0285L2.82926 29.1774C1.30447 30.7035 1.30447 33.1758 2.82926 34.7005L29.3008 61.1702C30.825 62.6949 33.2966 62.6949 34.8227 61.1702L61.1695 34.8233C62.6943 33.2985 62.6943 30.8249 61.1695 29.3001Z" fill="white"/>
</svg>
