<svg width="64" height="64" viewBox="0 0 64 64" fill="none" xmlns="http://www.w3.org/2000/svg">
<path d="M58.7873 31.4806C58.7873 27.8664 56.133 24.8507 52.6365 24.2066L61 0.0068512H21.4668L29.8429 24.2556C26.4682 24.9925 23.9367 27.9512 23.9367 31.4806C23.9367 34.1312 25.3645 36.4594 27.5044 37.7676C26.4751 39.2718 25.2545 40.6874 23.8558 41.9819C21.6378 44.0348 19.1665 45.5918 16.5023 46.616C13.8189 44.9623 12.6845 41.8439 13.8627 39.1271L14.128 38.5148C17.0752 37.5067 19.1967 34.7544 19.1967 31.5234C19.1967 27.4411 15.8113 24.1202 11.6502 24.1202C7.48908 24.1202 4.10396 27.4411 4.10396 31.5234C4.10396 33.5838 4.96706 35.4496 6.35633 36.7931C6.09729 37.3318 5.83432 37.8688 5.56743 38.4038C4.29709 40.9635 2.85735 43.8648 2.31275 47.0865C1.23116 53.4849 2.97558 58.5998 7.22473 61.4889C9.80322 63.242 12.4216 63.9316 15.0565 63.9314C20.0183 63.9312 25.0372 61.4859 29.9462 59.0938C33.4818 57.3711 37.1375 55.5897 40.7487 54.716C42.0924 54.3909 43.4749 54.1953 44.9386 53.9882C47.8412 53.5774 50.8428 53.1528 53.5015 51.6422C56.5831 49.8911 58.6928 46.9536 59.2892 43.5831C59.8013 40.6897 59.1848 37.792 57.6817 35.3343C58.4062 34.1747 58.7889 32.8408 58.7873 31.4806ZM55.8248 31.4806C55.8248 33.9603 53.7686 35.9778 51.2408 35.9778C48.7135 35.9778 46.657 33.9603 46.657 31.4806C46.657 29.001 48.7135 26.9837 51.2408 26.9837C53.7686 26.9837 55.8248 29.001 55.8248 31.4806ZM56.8675 2.91314L49.4821 24.2825C49.1643 24.3571 48.8519 24.4521 48.5469 24.567L41.2511 9.96588L33.9342 24.4806C33.6155 24.3724 33.2896 24.2855 32.9589 24.2206L25.5989 2.91314H56.8675ZM31.483 26.9837C34.0105 26.9837 36.0667 29.001 36.0667 31.4806C36.0667 33.9603 34.0105 35.9778 31.483 35.9778C28.9556 35.9778 26.8992 33.9603 26.8992 31.4806C26.8992 29.001 28.9556 26.9837 31.483 26.9837ZM11.6502 27.0265C14.178 27.0265 16.2342 29.0437 16.2342 31.5234C16.2342 34.003 14.178 36.0205 11.6502 36.0205C9.12288 36.0205 7.0664 34.003 7.0664 31.5234C7.0664 29.0437 9.12288 27.0265 11.6502 27.0265ZM56.3703 43.0859C55.9244 45.6065 54.3374 47.8085 52.0166 49.1271C49.8532 50.3564 47.2606 50.7233 44.5157 51.1116C43.0453 51.3196 41.5247 51.5348 40.0393 51.8943C36.1117 52.8444 32.3073 54.6982 28.6284 56.4909C21.266 60.0785 14.9076 63.1765 8.91246 59.1001C4.52088 56.1142 4.72369 50.5895 5.23533 47.562C5.7094 44.7572 6.99127 42.174 8.23096 39.6759C8.44189 39.2512 8.651 38.8257 8.8583 38.3993C9.48338 38.6448 10.1394 38.8063 10.8085 38.8795C9.54671 42.9654 11.5313 47.4078 15.6965 49.5071L16.2665 49.7945L16.8703 49.5836C20.1633 48.4332 23.1974 46.5868 25.8888 44.0959C27.6286 42.4858 29.1236 40.7044 30.353 38.8009C30.727 38.8562 31.1047 38.884 31.483 38.8841C35.5386 38.8841 39.0179 35.5708 39.0294 31.4806C39.0294 29.2852 38.0492 27.3109 36.4968 25.9539L41.2394 16.5454L46.0301 26.1332C44.5927 27.4821 43.6946 29.3797 43.6946 31.4806C43.6946 35.5631 47.0797 38.8841 51.2408 38.8841C52.78 38.8854 54.2824 38.4222 55.5441 37.5573C56.3922 39.2605 56.7082 41.1769 56.3703 43.0859Z" fill="white"/>
</svg>
