<svg width="64" height="64" viewBox="0 0 64 64" fill="none" xmlns="http://www.w3.org/2000/svg">
<g clip-path="url(#clip0_8_691)">
<path fill-rule="evenodd" clip-rule="evenodd" d="M64 0H0V64H64V0ZM21.7468 50.5214C22.6916 52.1976 23.551 53.6147 25.6173 53.6147C27.5931 53.6147 28.8396 52.8417 28.8396 49.8357V29.3862H34.8536V49.917C34.8536 56.1443 31.2025 58.9785 25.8733 58.9785C21.058 58.9785 18.2695 56.4866 16.8513 53.4852L21.7468 50.5214ZM48.9244 53.6523C45.9581 53.6523 44.2809 52.1051 42.9917 50.0003L38.1044 52.8396C39.87 56.3281 43.4784 58.9897 49.0636 58.9897C54.7759 58.9897 59.0293 56.0234 59.0293 50.6088C59.0293 45.5863 56.1442 43.3524 51.0344 41.1611L49.5309 40.5171C46.9506 39.3996 45.8331 38.6692 45.8331 36.865C45.8331 35.4052 46.9496 34.2877 48.7111 34.2877C50.4381 34.2877 51.5505 35.0161 52.5816 36.865L57.2648 33.858C55.2838 30.3736 52.5349 29.0428 48.7111 29.0428C43.3402 29.0428 39.9035 32.4764 39.9035 36.9869C39.9035 41.8834 42.7865 44.1996 47.1264 46.0485L48.6298 46.6936C51.3727 47.8933 53.0083 48.6237 53.0083 50.686C53.0083 52.4069 51.4164 53.6523 48.9244 53.6523Z" fill="#F7DF1E"/>
</g>
<defs>
<clipPath id="clip0_8_691">
<rect width="64" height="64" fill="white"/>
</clipPath>
</defs>
</svg>
