<svg width="64" height="64" viewBox="0 0 64 64" fill="none" xmlns="http://www.w3.org/2000/svg">
<path fill-rule="evenodd" clip-rule="evenodd" d="M29.8967 52.7122C30.0786 52.2047 30.2245 51.6936 30.3465 51.1431C30.6561 49.7466 30.8119 48.0971 31.0123 45.6128L33.3672 45.6835C33.395 47.1546 33.5223 48.5963 33.8015 49.7284C33.9411 50.2943 34.1079 50.7376 34.2895 51.0552C34.4729 51.3759 34.6291 51.496 34.7156 51.538L35.5546 51.9455L35.344 52.8446C34.7941 55.1921 34.3838 57.5694 34.115 59.9642L33.9988 61H30.7194L30.6205 59.9431C30.4598 58.2263 30.2647 56.5549 30.1095 55.3111C30.032 54.6897 29.9646 54.1761 29.9166 53.8183C29.9144 53.8013 29.9121 53.7846 29.9099 53.7683C29.8891 53.6132 29.8723 53.4905 29.8605 53.4047C29.8539 53.3572 29.8489 53.321 29.8455 53.2969L29.8405 53.2611L29.8008 52.9799L29.8967 52.7122ZM32.2149 53.2165C32.2262 53.2986 32.2396 53.3979 32.255 53.5129C32.2887 53.7641 32.3317 54.0901 32.381 54.4751C32.403 54.6476 32.4264 54.8319 32.4507 55.0267C32.4537 55.0512 32.4568 55.076 32.4599 55.1009C32.5004 54.8849 32.542 54.6692 32.5847 54.4536C32.6764 53.991 32.7733 53.5293 32.8753 53.0686C32.8763 53.0641 32.8773 53.0595 32.8783 53.055C32.71 52.8872 32.562 52.7039 32.4316 52.5133C32.4301 52.5188 32.4285 52.5242 32.427 52.5296C32.3619 52.7604 32.2914 52.9888 32.2149 53.2165Z" fill="white"/>
<path fill-rule="evenodd" clip-rule="evenodd" d="M30.7146 3.99816L32.9442 3.29044L32.9491 3.28887C33.394 4.29832 33.9062 5.27753 34.4824 6.22005C34.7742 6.66555 35.2766 7.17791 36.0482 7.96474C36.1235 8.04159 36.2011 8.12182 36.2816 8.2041C37.1515 9.09262 38.2201 10.2105 39.3368 11.6781C41.5807 14.627 43.9719 18.9251 45.5134 25.6368L45.5204 25.6672L45.5257 25.6978C47.9595 39.7348 40.4728 49.7137 34.8638 53.5417L34.3097 53.9199L33.6983 53.641C33.3798 53.4958 33.1078 53.2973 32.8753 53.0686C32.7058 52.9019 32.5573 52.7193 32.427 52.5296C32.3553 52.4252 32.2891 52.3187 32.228 52.2116C31.9019 51.6397 31.6728 50.9678 31.5062 50.2784C31.1729 48.8993 31.045 47.2553 31.0109 45.7309L31.0096 45.6748L31.0138 45.6189C31.3822 40.7314 31.4895 35.8282 31.3355 30.9296L31.3354 30.9283C31.3163 30.2968 31.3084 28.5591 31.298 26.2515C31.2869 23.7812 31.2728 20.6579 31.2387 17.5395C31.2055 14.5077 31.1536 11.4669 31.0675 8.99183C31.047 8.40197 31.0247 7.85151 31.0007 7.34579C30.9218 5.68266 30.8249 4.50342 30.7146 3.99816ZM33.4141 8.61066C33.4178 8.71038 33.4214 8.81084 33.4249 8.91198C33.5119 11.4146 33.5641 14.477 33.5973 17.5144C33.6321 20.7016 33.6461 23.8468 33.6571 26.3083C33.6671 28.5626 33.6745 30.2434 33.6931 30.858C33.8491 35.8192 33.7414 40.785 33.3704 45.735C33.4049 47.1793 33.528 48.6103 33.8006 49.7383C33.9386 50.3096 34.1038 50.7545 34.2837 51.0699L34.2851 51.0725C39.1832 47.2977 45.3302 38.4457 43.206 26.1209C41.739 19.7477 39.4924 15.7592 37.4507 13.076C36.4231 11.7256 35.4356 10.6902 34.5853 9.82173C34.4954 9.72988 34.4057 9.63759 34.3163 9.54662C34.0037 9.22884 33.6966 8.91661 33.4141 8.61066Z" fill="white"/>
<path d="M32.381 54.4751C32.4498 54.4695 32.5177 54.4623 32.5847 54.4536C32.6764 53.991 32.7733 53.5293 32.8753 53.0686C32.7058 52.9019 32.5573 52.7193 32.427 52.5296C32.3619 52.7604 32.2914 52.9888 32.2149 53.2165C32.2262 53.2986 32.2396 53.3979 32.255 53.5129C32.2887 53.7641 32.3317 54.0901 32.381 54.4751Z" fill="white"/>
<path d="M32.4507 55.0267L32.4599 55.1009C32.5004 54.8849 32.542 54.6692 32.5847 54.4536C32.5177 54.4623 32.4498 54.4695 32.381 54.4751C32.403 54.6476 32.4264 54.8319 32.4507 55.0267Z" fill="white"/>
<path fill-rule="evenodd" clip-rule="evenodd" d="M30.5556 3.37503L32.8161 3C32.8582 3.09707 32.9009 3.19388 32.9442 3.29044L30.7146 3.99816C30.8249 4.50342 30.9218 5.68266 31.0007 7.34579C28.6466 9.39102 21.0538 16.0267 20.3868 29.8276C20.0676 36.4378 22.526 41.7965 25.2724 45.6366C27.1224 48.2231 29.0795 50.0871 30.3465 51.1431C30.2245 51.6936 30.0786 52.2047 29.8967 52.7122L29.8008 52.9799L29.8405 53.2611L29.8455 53.2969L29.8605 53.4047C29.8723 53.4905 29.8891 53.6132 29.9099 53.7683C28.6495 52.863 25.888 50.5341 23.3454 46.979C20.391 42.8482 17.6797 36.987 18.0307 29.7167C18.7468 14.8999 27.0023 7.7204 29.4514 5.59052C29.5443 5.50973 29.629 5.43607 29.7045 5.36966C30.0988 5.02246 30.2639 4.76292 30.3572 4.52834C30.4619 4.26508 30.5144 3.94265 30.5556 3.37503Z" fill="white"/>
</svg>
