<svg width="64" height="64" viewBox="0 0 64 64" fill="none" xmlns="http://www.w3.org/2000/svg">
<path d="M20.3868 29.8276C20.0676 36.4378 22.526 41.7965 25.2724 45.6366C27.1224 48.2231 29.0795 50.0871 30.3465 51.1431C30.6561 49.7466 30.8119 48.0971 31.0123 45.6128L31.0143 45.6129C31.3822 40.7274 31.4895 35.8262 31.3355 30.9296L31.3354 30.9283C31.3163 30.2968 31.3084 28.5591 31.298 26.2515C31.2869 23.7812 31.2728 20.6579 31.2387 17.5395C31.2055 14.5077 31.1536 11.4669 31.0675 8.99183C31.047 8.40197 31.0247 7.85151 31.0007 7.34579C28.6466 9.39102 21.0538 16.0267 20.3868 29.8276Z" fill="#10AA50"/>
<path d="M43.206 26.1209C41.738 19.7474 39.4922 15.759 37.4507 13.076C36.4231 11.7256 35.4356 10.6902 34.5853 9.82173C34.5512 9.78687 34.5171 9.75194 34.483 9.71704C34.4274 9.66001 34.3718 9.60306 34.3163 9.54662L34.3149 9.54637C34.2953 9.52643 34.2762 9.50594 34.2567 9.48605C33.9649 9.1895 33.6784 8.89835 33.4142 8.61213L33.4249 8.91198C33.5119 11.4146 33.5641 14.477 33.5973 17.5144C33.6321 20.7016 33.6461 23.8468 33.6571 26.3083L33.6571 26.3096C33.6671 28.5632 33.6745 30.2435 33.6931 30.858C33.8491 35.8192 33.7414 40.785 33.3704 45.735C33.3988 46.9225 33.487 48.1009 33.669 49.1094C33.7087 49.3242 33.7528 49.531 33.8015 49.7284C33.9411 50.2943 34.1079 50.7376 34.2895 51.0552C34.2906 51.0572 34.2917 51.0591 34.2928 51.061C38.1467 48.0873 42.7676 41.9672 43.5308 33.4955C43.7354 31.2047 43.6575 28.741 43.206 26.1209Z" fill="#12924F"/>
<path fill-rule="evenodd" clip-rule="evenodd" d="M32.9442 3.29044L30.7146 3.99816C30.8249 4.50342 30.9218 5.68266 31.0007 7.34579C31.0247 7.85151 31.047 8.40197 31.0675 8.99183C31.1536 11.4669 31.2055 14.5077 31.2387 17.5395C31.2728 20.6579 31.2869 23.7812 31.298 26.2515C31.3084 28.5591 31.3163 30.2968 31.3354 30.9283L31.3355 30.9296C31.4895 35.8262 31.3822 40.7274 31.0143 45.6129L31.0123 45.6128C30.8119 48.0971 30.6561 49.7466 30.3465 51.1431C30.2245 51.6936 30.0786 52.2047 29.8967 52.7122L29.8008 52.9799L29.8405 53.2611L29.8455 53.2969L29.8605 53.4047C29.8723 53.4905 29.8891 53.6132 29.9099 53.7683L29.9166 53.8183C29.9646 54.1761 30.032 54.6897 30.1095 55.3111C30.2647 56.5549 30.4598 58.2263 30.6205 59.9431L30.7194 61H33.9988L34.115 59.9642C34.3674 57.7153 34.7447 55.4819 35.245 53.2741C40.8046 49.2627 47.9047 39.419 45.5257 25.6978L45.5204 25.6672L45.5134 25.6368C43.9719 18.9251 41.5807 14.627 39.3368 11.6781C38.2201 10.2105 37.1515 9.09262 36.2816 8.2041C36.2443 8.16599 36.2077 8.12832 36.1715 8.09123L36.1692 8.08877L36.1683 8.08787L36.1654 8.08489C36.1257 8.04408 36.0866 8.00397 36.0482 7.96474C35.2766 7.17791 34.7742 6.66555 34.4824 6.22005C33.9062 5.27753 33.394 4.29832 32.9491 3.28887L32.9442 3.29044ZM33.669 49.1094C33.4809 48.0926 33.3901 46.898 33.3672 45.6835L31.0143 45.6129L31.0138 45.6189L31.0096 45.6748L31.0109 45.7309C31.045 47.2553 31.1729 48.8993 31.5062 50.2784C31.6673 50.945 31.8869 51.5953 32.196 52.1546C32.287 52.1467 32.3825 52.1316 32.4823 52.1091C32.8752 52.0203 33.2294 51.8365 33.4339 51.683L33.4567 51.6659L33.4804 51.6499C33.743 51.472 34.011 51.2782 34.283 51.0687C34.1034 50.7534 33.9385 50.3089 33.8006 49.7383C33.7521 49.5377 33.7084 49.3275 33.669 49.1094ZM33.669 49.1094C33.487 48.1009 33.3988 46.9225 33.3704 45.735C33.7414 40.785 33.8491 35.8192 33.6931 30.858C33.6745 30.2435 33.6671 28.5632 33.6571 26.3096L33.6571 26.3083C33.6461 23.8468 33.6321 20.7016 33.5973 17.5144C33.5641 14.477 33.5119 11.4146 33.4249 8.91198L33.4142 8.61213C33.6784 8.89835 33.9649 9.1895 34.2567 9.48605L34.3163 9.54662C34.3718 9.60306 34.4274 9.66001 34.483 9.71704L34.5853 9.82173C35.4356 10.6902 36.4231 11.7256 37.4507 13.076C39.4924 15.7592 41.739 19.7477 43.206 26.1209C43.6575 28.741 43.7354 31.2047 43.5308 33.4955C42.7736 41.9729 38.1498 48.0898 34.295 51.0648L34.2928 51.061L34.2895 51.0552C34.1079 50.7376 33.9411 50.2943 33.8015 49.7284C33.7528 49.531 33.7087 49.3242 33.669 49.1094ZM32.427 52.5296C32.5573 52.7193 32.7058 52.9019 32.8753 53.0686C32.7733 53.5293 32.6764 53.991 32.5847 54.4536C32.542 54.6692 32.5004 54.8849 32.4599 55.1009L32.4507 55.0267C32.4264 54.8319 32.403 54.6476 32.381 54.4751C32.3317 54.0901 32.2887 53.7641 32.255 53.5129C32.2396 53.3979 32.2262 53.2986 32.2149 53.2165C32.2914 52.9888 32.3619 52.7604 32.427 52.5296Z" fill="white"/>
<path d="M32.4823 52.1091C32.8752 52.0203 33.2294 51.8365 33.4339 51.683L33.4567 51.6659L33.4804 51.6499C33.743 51.472 34.011 51.2782 34.283 51.0687C34.1034 50.7534 33.9385 50.3089 33.8006 49.7383C33.7521 49.5377 33.7084 49.3275 33.669 49.1094C33.4809 48.0926 33.3901 46.898 33.3672 45.6835L31.0143 45.6129L31.0138 45.6189L31.0096 45.6748L31.0109 45.7309C31.045 47.2553 31.1729 48.8993 31.5062 50.2784C31.6673 50.945 31.8869 51.5953 32.196 52.1546C32.287 52.1467 32.3825 52.1316 32.4823 52.1091Z" fill="white"/>
<path d="M32.381 54.4751C32.4498 54.4695 32.5177 54.4623 32.5847 54.4536C32.6764 53.991 32.7733 53.5293 32.8753 53.0686C32.7058 52.9019 32.5573 52.7193 32.427 52.5296C32.3619 52.7604 32.2914 52.9888 32.2149 53.2165C32.2262 53.2986 32.2396 53.3979 32.255 53.5129C32.2887 53.7641 32.3317 54.0901 32.381 54.4751Z" fill="#B8C4C2"/>
<path d="M32.4507 55.0267L32.4599 55.1009C32.5004 54.8849 32.542 54.6692 32.5847 54.4536C32.5177 54.4623 32.4498 54.4695 32.381 54.4751C32.403 54.6476 32.4264 54.8319 32.4507 55.0267Z" fill="#B8C4C2"/>
<path fill-rule="evenodd" clip-rule="evenodd" d="M30.5556 3.37503L32.8161 3C32.8582 3.09707 32.9009 3.19388 32.9442 3.29044L30.7146 3.99816C30.8249 4.50342 30.9218 5.68266 31.0007 7.34579C28.6466 9.39102 21.0538 16.0267 20.3868 29.8276C20.0676 36.4378 22.526 41.7965 25.2724 45.6366C27.1224 48.2231 29.0795 50.0871 30.3465 51.1431C30.2245 51.6936 30.0786 52.2047 29.8967 52.7122L29.8008 52.9799L29.8405 53.2611L29.8455 53.2969L29.8605 53.4047C29.8723 53.4905 29.8891 53.6132 29.9099 53.7683C28.6495 52.863 25.888 50.5341 23.3454 46.979C20.391 42.8482 17.6797 36.987 18.0307 29.7167C18.7468 14.8999 27.0023 7.7204 29.4514 5.59052C29.5443 5.50973 29.629 5.43607 29.7045 5.36966C30.0988 5.02246 30.2639 4.76292 30.3572 4.52834C30.4619 4.26508 30.5144 3.94265 30.5556 3.37503Z" fill="white"/>
<path d="M43.5725 26.4921C40.7556 13.9406 34.8846 10.5993 33.3869 8.23729C32.7693 7.19677 32.2222 6.1152 31.7494 5C31.6703 6.11503 31.5249 6.81749 30.5866 7.66305C28.7025 9.35975 20.7009 15.9458 20.0275 30.207C19.4001 43.5037 29.7053 51.7028 31.0668 52.5502C32.1137 53.0706 33.3887 52.5614 34.0106 52.0838C38.9783 48.6402 45.7656 39.4599 43.578 26.4921" fill="#10AA50"/>
<path d="M32.3681 45.5C32.1016 48.7823 31.9107 50.6895 31.234 52.5651C31.234 52.5651 31.6782 55.6899 31.9901 59H33.0939C33.3572 56.669 33.7592 54.3552 34.2979 52.0702C32.869 51.3808 32.4229 48.3802 32.3681 45.5Z" fill="#B8C4C2"/>
<path d="M33.9452 52.25C32.5241 51.5874 32.113 48.4844 32.0497 45.5936C32.4012 40.825 32.5036 36.041 32.3567 31.2615C32.2823 28.7536 32.392 8.03349 31.7447 5C32.1875 6.02741 32.6977 7.02389 33.2719 7.98281C34.786 10.3706 40.7236 13.7457 43.5696 26.424C45.7869 39.5003 38.962 48.7491 33.9452 52.25Z" fill="#12924F"/>
</svg>
