<svg width="64" height="64" viewBox="0 0 64 64" fill="none" xmlns="http://www.w3.org/2000/svg">
<path d="M32 63.5C31.1625 63.5 30.3125 63.275 29.575 62.85L21.8625 58.2875C20.7125 57.6375 21.275 57.4125 21.65 57.2875C23.1875 56.75 23.5 56.6375 25.1375 55.7C25.3125 55.6 25.5375 55.6375 25.7125 55.75L31.6375 59.2625C31.85 59.3875 32.15 59.3875 32.35 59.2625L55.4375 45.9375C55.65 45.8125 55.7875 45.5625 55.7875 45.3125V18.6625C55.7875 18.4 55.65 18.1625 55.425 18.025L32.35 4.71251C32.1375 4.58751 31.85 4.58751 31.6375 4.71251L8.57502 18.0375C8.35002 18.1625 8.21252 18.4125 8.21252 18.675V45.3125C8.21252 45.5625 8.35002 45.8125 8.57502 45.925L14.9 49.575C18.3375 51.2875 20.4375 49.275 20.4375 47.2375V20.9375C20.4375 20.5625 20.7375 20.275 21.1125 20.275H24.0375C24.4 20.275 24.7125 20.5625 24.7125 20.9375V47.25C24.7125 51.825 22.2125 54.45 17.875 54.45C16.5375 54.45 15.4875 54.45 12.5625 53L6.51252 49.5125C5.01252 48.65 4.08752 47.0375 4.08752 45.3V18.6625C4.08752 16.9375 5.01252 15.3125 6.51252 14.45L29.575 1.12501C31.0375 0.300006 32.975 0.300006 34.425 1.12501L57.5125 14.4625C59.0125 15.325 59.9375 16.9375 59.9375 18.675V45.3125C59.9375 47.0375 59.0125 48.65 57.5125 49.525L34.425 62.85C33.6875 63.275 32.85 63.5 32 63.5ZM50.6375 37.2375C50.6375 32.25 47.2625 30.925 40.175 29.9875C33 29.0375 32.275 28.55 32.275 26.875C32.275 25.4875 32.8875 23.6375 38.2 23.6375C42.9375 23.6375 44.6875 24.6625 45.4125 27.8625C45.475 28.1625 45.75 28.3875 46.0625 28.3875H49.0625C49.25 28.3875 49.425 28.3125 49.55 28.175C49.675 28.0375 49.7375 27.85 49.725 27.6625C49.2625 22.15 45.6 19.5875 38.2 19.5875C31.6125 19.5875 27.6875 22.3625 27.6875 27.025C27.6875 32.075 31.6 33.475 37.9125 34.1C45.475 34.8375 46.0625 35.95 46.0625 37.4375C46.0625 40.0125 43.9875 41.1125 39.125 41.1125C33.0125 41.1125 31.675 39.575 31.225 36.5375C31.175 36.2125 30.9 35.975 30.5625 35.975H27.575C27.2 35.975 26.9125 36.275 26.9125 36.6375C26.9125 40.525 29.025 45.1625 39.1375 45.1625C46.4375 45.15 50.6375 42.2625 50.6375 37.2375Z" fill="white"/>
</svg>
