<svg width="64" height="64" viewBox="0 0 64 64" fill="none" xmlns="http://www.w3.org/2000/svg">
<path d="M15.6245 33.7457H17.7969C19.2368 33.7457 20.3094 33.4707 21.0141 32.9207C21.7189 32.3705 22.1943 31.4522 22.4413 30.1655C22.6777 28.9301 22.57 28.0583 22.1184 27.5504C21.6662 27.0425 20.7619 26.7885 19.4051 26.7885H16.9581L15.6245 33.7457Z" fill="white"/>
<path d="M43.5003 33.7457H45.6726C47.1125 33.7457 48.1851 33.4707 48.8898 32.9207C49.5948 32.3705 50.07 31.4522 50.317 30.1655C50.5535 28.9301 50.4458 28.0583 49.9941 27.5504C49.5419 27.0425 48.6376 26.7885 47.2808 26.7885H44.8338L43.5003 33.7457Z" fill="white"/>
<path fill-rule="evenodd" clip-rule="evenodd" d="M0.899902 31.4997C0.899902 40.6607 14.8242 48.0873 32 48.0873C49.1757 48.0873 63.1001 40.6607 63.1001 31.4997C63.1001 22.3388 49.1757 14.9121 32 14.9121C14.8242 14.9121 0.899902 22.3388 0.899902 31.4997ZM25.2781 25.8147C24.3307 24.7151 22.8236 24.1654 20.7575 24.1654H13.8897L10.7032 40.7884H14.2746L15.1218 36.3689H18.1809C19.5308 36.3689 20.6411 36.2255 21.5129 35.9376C22.3846 35.6504 23.1769 35.1682 23.89 34.4915C24.4885 33.9337 24.9727 33.3185 25.3436 32.6457C25.714 31.9733 25.9771 31.2312 26.1327 30.4195C26.5005 28.5 26.2253 26.9142 25.2781 25.8147ZM31.7896 24.1653L32.6368 19.7458H29.0935L25.907 36.3689H29.4503L31.2754 26.8456H34.1074C35.0139 26.8456 35.6222 27.015 35.8852 27.3022C36.1483 27.5895 36.2227 28.1772 36.0623 29.0139L34.6527 36.3689H38.2523L39.7348 28.6334C40.0362 27.0599 39.8 25.9215 39.0563 25.219C38.3023 24.5169 36.9324 24.1653 34.9462 24.1653H31.7896ZM53.1538 25.8147C52.2065 24.7151 50.6993 24.1654 48.6332 24.1654H41.7655L38.579 40.7884H42.1505L42.9975 36.3689H46.0566C47.4065 36.3689 48.5168 36.2255 49.3886 35.9376C50.2603 35.6504 51.0526 35.1682 51.7657 34.4915C52.3642 33.9337 52.8484 33.3185 53.2193 32.6457C53.5897 31.9733 53.8528 31.2312 54.0084 30.4195C54.3863 28.449 54.1012 26.9142 53.1538 25.8147Z" fill="white"/>
</svg>
