<svg width="64" height="64" viewBox="0 0 64 64" fill="none" xmlns="http://www.w3.org/2000/svg">
<path fill-rule="evenodd" clip-rule="evenodd" d="M50.2255 20.7022C50.2085 20.8149 50.1909 20.929 50.1731 21.0446ZM50.1731 21.0446C50.0386 21.9183 49.8904 22.8809 49.8541 24.0185Z" fill="white"/>
<path d="M27.231 19.726C26.8281 19.6697 26.4409 19.6801 26.137 19.7522C25.986 19.7881 25.8397 19.8428 25.721 19.9251C25.6022 20.0074 25.4854 20.1368 25.4601 20.3208C25.4367 20.4881 25.5008 20.6609 25.5686 20.7922C25.6434 20.9368 25.7526 21.0879 25.8859 21.228C26.1492 21.5049 26.5392 21.7724 27.0022 21.8368C27.4693 21.902 27.891 21.7437 28.1943 21.5379C28.3469 21.4344 28.477 21.314 28.5746 21.1924C28.6662 21.0784 28.7523 20.9346 28.7733 20.7835C28.7989 20.5996 28.722 20.4432 28.63 20.3312C28.5382 20.2195 28.4124 20.1267 28.2769 20.0508C28.0041 19.8982 27.6344 19.7822 27.231 19.726Z" fill="white"/>
<path d="M48.7795 19.7439C48.7616 19.6154 48.6793 19.5186 48.5809 19.4505C48.4827 19.3825 48.3557 19.3335 48.2153 19.3002C47.9334 19.2333 47.5656 19.2221 47.1761 19.2765C46.7866 19.3308 46.4359 19.4423 46.1829 19.5838C46.0569 19.6543 45.9481 19.7362 45.8721 19.8285C45.796 19.921 45.7432 20.0373 45.7606 20.1658C45.7764 20.2779 45.8434 20.3962 45.9281 20.5016C46.0159 20.6108 46.1348 20.7212 46.2761 20.817C46.5577 21.008 46.9429 21.1504 47.3644 21.0916C47.7841 21.0333 48.1452 20.7888 48.3933 20.5277C48.5182 20.3964 48.6187 20.2566 48.686 20.1263C48.7501 20.0024 48.7962 19.8641 48.7795 19.7439Z" fill="white"/>
<path fill-rule="evenodd" clip-rule="evenodd" d="M31.1196 51.2311C31.1822 52.6921 31.2735 53.9964 31.3948 55.0531C31.5126 56.0793 31.6676 56.9622 31.8905 57.5207C32.2396 58.3943 32.8525 59.8688 34.1378 60.953C35.4774 62.083 37.4218 62.6925 40.2123 62.0939C42.4326 61.6172 44.0902 60.8894 45.2742 59.6569C46.46 58.4227 47.0632 56.7943 47.4147 54.7531C47.8158 52.4254 48.5106 46.8251 48.8377 43.8143L48.8664 43.8233C49.6021 44.0523 50.5371 44.1344 51.4869 44.1239C53.3826 44.103 55.6525 43.7068 57.1201 43.0247C57.9752 42.627 58.7487 42.1606 59.3802 41.6893C59.9986 41.2278 60.5299 40.725 60.8517 40.239C61.0084 40.0024 61.1674 39.693 61.201 39.343C61.2402 38.936 61.1003 38.5009 60.7141 38.2066C60.3911 37.9604 59.9992 37.8951 59.6782 37.884C59.3372 37.8723 58.945 37.9182 58.5109 38.008C54.9729 38.7393 53.2539 38.4643 52.4695 38.1391C52.2858 38.063 52.154 37.9845 52.0603 37.9153C55.751 32.2914 58.3736 25.9938 59.7605 20.6168C60.4749 17.8469 60.8688 15.2931 60.9013 13.1823C60.9331 11.1236 60.626 9.29475 59.7389 8.15949C55.6147 2.88229 49.9257 1.66146 45.4689 1.70291C43.2391 1.72366 41.292 2.05883 39.9529 2.37229C39.2824 2.52924 38.7597 2.68183 38.4247 2.78933C38.2594 2.84237 38.1326 2.88675 38.0534 2.91713C38.0337 2.92468 38.0103 2.93391 37.9871 2.94387C37.9796 2.94707 37.9681 2.9521 37.9543 2.95855C36.5742 2.61633 35.0789 2.41206 33.4623 2.38552C30.2687 2.33308 27.7423 3.15689 25.763 4.50844C25.5984 4.44731 25.3877 4.3712 25.1363 4.28474C24.4863 4.06117 23.5619 3.76754 22.4566 3.48442C20.2562 2.92079 17.2928 2.38666 14.3344 2.55654C11.3772 2.72634 8.3237 3.60749 6.08787 5.9793C3.84425 8.35935 2.56957 12.0849 2.84644 17.6282C2.90783 18.8576 3.36233 21.6656 4.1082 24.9991C4.85831 28.3516 5.91864 32.3051 7.21588 35.8387C8.49774 39.3305 10.0622 42.5606 11.8811 44.331C12.803 45.2283 13.8985 45.8551 15.1393 45.8024C16.3856 45.7494 17.5257 45.0219 18.5578 43.7793C19.9287 42.1277 21.2351 40.6531 22.1991 39.591C22.6809 39.0602 23.0766 38.6331 23.3514 38.3391L23.4703 38.2122C24.5435 38.791 25.7453 39.1299 27.0138 39.1611C27.0159 39.1931 27.0183 39.2252 27.021 39.2572C26.7717 39.5531 26.5686 39.8114 26.3957 40.0313C26.3503 40.089 26.307 40.1441 26.2655 40.1965C25.9858 40.5496 25.8077 40.7544 25.6015 40.919C25.2017 41.238 24.573 41.5046 22.6139 41.9086C21.601 42.1177 20.8257 42.3944 20.3364 42.794C20.0761 43.0066 19.8441 43.2973 19.7566 43.6773C19.667 44.0665 19.7586 44.4204 19.9057 44.6935C20.1707 45.1856 20.672 45.531 21.077 45.7529C21.5165 45.9937 22.0166 46.1819 22.463 46.2936C24.1152 46.7076 27.9404 47.3438 31.0206 44.5394C31.0013 46.9355 31.0342 49.2385 31.1196 51.2311ZM40.9591 3.98469C42.1567 3.73773 43.7295 3.51036 45.4855 3.49403C49.6214 3.45555 54.6714 4.58158 58.3303 9.26341C58.8177 9.88729 59.1434 11.1746 59.1129 13.1546C59.0831 15.0824 58.7197 17.4897 58.0286 20.1689C56.7448 25.1463 54.3559 30.9643 51.0153 36.2342C50.9403 36.1385 50.863 36.0419 50.7865 35.9462L50.7858 35.9453L50.711 35.8517C51.9937 33.7298 52.2004 31.6191 52.1039 29.6592C52.0617 28.8012 51.9597 27.9523 51.8641 27.156L51.8634 27.1502C51.8451 26.9975 51.827 26.8468 51.8096 26.6983C51.699 25.7547 51.6154 24.8915 51.6419 24.0756C51.6745 23.0527 51.8058 22.1979 51.9406 21.3203C51.9584 21.2042 51.9763 21.0877 51.9941 20.9703C52.1359 20.0319 52.2642 19.0561 52.2232 17.9084L52.2264 17.8954C52.2636 17.7404 52.261 17.5963 52.2564 17.5101C52.2462 17.3201 52.2052 17.1011 52.1518 16.8809C52.0416 16.4271 51.8415 15.8203 51.5498 15.1184C50.9649 13.7107 49.9852 11.8571 48.5351 10.0006C46.7666 7.73656 44.2835 5.45296 40.9591 3.98469ZM44.7352 23.7499C44.2497 21.8007 44.3501 20.346 45.0938 19.494C45.7689 18.7204 47.2576 18.1283 50.3773 18.5076L50.2255 20.7022C50.2085 20.8149 50.1909 20.929 50.1731 21.0446L49.8541 24.0185C49.823 24.9805 49.9221 25.96 50.0331 26.907C50.0518 27.0668 50.0708 27.2256 50.0898 27.3836L50.0901 27.3864C50.1856 28.1824 50.2786 28.9582 50.3174 29.7474C50.3916 31.2529 50.2627 32.7321 49.5666 34.206C49.4003 33.9103 49.2402 33.5867 49.0925 33.2281C48.96 32.9064 48.6621 32.3713 48.3272 31.7698L48.2735 31.6735C47.9259 31.0492 47.5059 30.295 47.0704 29.458C46.1573 27.7033 45.2063 25.6415 44.7352 23.7499ZM50.8859 39.2695C50.7595 39.3137 50.6046 39.3572 50.4773 39.393L50.4754 39.3935L50.4138 39.4109L50.3607 39.4261C50.1946 39.4744 50.0471 39.5227 49.9098 39.5847C49.6517 39.7011 49.4351 39.8617 49.2748 40.156C49.1086 40.461 48.9572 40.9945 49.0019 41.9356C49.0457 41.971 49.1542 42.0372 49.3973 42.1128C49.8775 42.2623 50.6006 42.3424 51.4673 42.3328C53.2047 42.3137 55.2022 41.9414 56.3669 41.4C57.1156 41.0518 57.7827 40.6477 58.3113 40.2531C58.5487 40.076 58.7489 39.9076 58.9124 39.7541L58.8726 39.7622C55.1923 40.5229 53.0538 40.32 51.7853 39.7941C51.4147 39.6405 51.1195 39.4595 50.8859 39.2695ZM27.6668 41.3096C27.7125 41.252 27.7586 41.1934 27.8058 41.1334C28.0568 40.8144 28.3368 40.4585 28.7261 40.0227L28.7307 40.0176C28.8168 39.921 28.896 39.8432 28.9681 39.7804C29.222 39.5594 29.3892 39.5251 29.4715 39.5179C29.6186 39.5051 29.7699 39.5502 30.069 39.6742C30.383 39.8046 30.754 40.1898 30.9508 40.7216C31.1443 41.2445 31.0974 41.7023 30.8869 41.9974C28.808 44.9124 25.9191 45.0596 23.9813 44.7734C23.8204 44.7496 23.666 44.7229 23.5192 44.6945C23.2924 44.6506 23.0837 44.6027 22.8967 44.5559C22.5877 44.4785 22.2318 44.3439 21.9355 44.1816C21.8485 44.1339 21.772 44.0867 21.7066 44.0416C21.7642 44.0145 21.8326 43.9852 21.9134 43.9545C22.1672 43.858 22.5135 43.7581 22.9748 43.6629C23.5239 43.5497 24.0004 43.4423 24.4188 43.3325C25.0451 43.1681 25.5415 42.9982 25.9575 42.7948C26.2429 42.6552 26.4904 42.4999 26.7161 42.3199C27.0969 42.016 27.3843 41.6663 27.6668 41.3096ZM27.2065 37.3711C27.2337 37.259 27.263 37.1473 27.2938 37.0363C27.4886 36.3349 27.7677 35.5859 28.0482 34.8334L28.0489 34.8315C28.0924 34.7148 28.1359 34.598 28.1791 34.4813C28.3492 34.0229 28.5665 33.539 28.7805 33.0623C28.8899 32.8188 28.9984 32.577 29.0995 32.3412C29.4133 31.6094 29.7137 30.8133 29.9313 29.853C30.3643 27.942 30.4907 25.2855 29.5952 21.1385C29.3108 19.8219 28.6685 19.2107 27.925 18.9232C27.1127 18.6091 26.0439 18.632 24.8912 18.8982C23.7553 19.1606 22.6449 19.6349 21.8235 20.0929C21.4121 20.3224 21.0955 20.5353 20.8944 20.6991C20.8716 20.7176 20.8515 20.7346 20.8337 20.7501C20.8399 20.8759 20.8493 21.0316 20.8603 21.2143L20.8604 21.2155C20.9463 22.6359 21.1307 25.6876 20.6643 29.0276C20.0255 33.6021 23.363 37.3591 27.2065 37.3711ZM22.0133 5.21975C19.9017 4.67885 17.138 4.18968 14.4368 4.34479C11.7343 4.49997 9.19544 5.29209 7.38855 7.20886C5.58944 9.11738 4.37101 12.2957 4.63289 17.5387C4.68608 18.604 5.11 21.2841 5.8536 24.6075C6.59296 27.912 7.63316 31.7843 8.89471 35.2207C10.1716 38.699 11.6242 41.5831 13.1278 43.0466C13.8672 43.7663 14.5093 44.0363 15.0634 44.0128C15.612 43.9895 16.3243 43.6672 17.1825 42.6341C18.5747 40.9569 19.8992 39.4618 20.8755 38.3862C21.3267 37.8891 21.704 37.481 21.9797 37.1855C19.7401 35.2618 18.423 32.144 18.8928 28.7795C19.3258 25.6794 19.1697 23.005 19.0813 21.4892C19.056 21.0568 19.0363 20.7186 19.0373 20.4918L19.0367 20.4524C19.0362 20.4154 19.0357 20.3623 19.0357 20.2942C19.0358 20.1581 19.0378 19.9617 19.0455 19.7137C19.0608 19.2181 19.0989 18.5148 19.1893 17.6733C19.3697 15.9952 19.7613 13.7425 20.6126 11.4834C21.3599 9.50046 22.4748 7.47758 24.1437 5.84056C23.5732 5.65342 22.8478 5.43349 22.0133 5.21975ZM33.1718 54.8485C33.0571 53.8497 32.9683 52.5916 32.9067 51.1543C32.7978 48.614 32.7753 45.5454 32.8399 42.4207C32.8484 42.0116 32.8583 41.6017 32.8698 41.1918C32.8727 41.089 32.8581 40.9898 32.8288 40.8969C32.7906 40.6181 32.7204 40.3488 32.628 40.0992C32.3047 39.2255 31.6378 38.3865 30.7538 38.0195L30.7347 38.0116C30.4507 37.8936 29.935 37.6794 29.3158 37.7335C29.1906 37.7445 29.0667 37.7656 28.9439 37.7969C28.9659 37.7061 28.9903 37.6126 29.0171 37.5162C29.1896 36.8951 29.4381 36.2278 29.7212 35.4673C29.7653 35.3488 29.8103 35.228 29.8559 35.1048C30.007 34.6976 30.1801 34.3132 30.3757 33.8785C30.4903 33.6238 30.6128 33.3518 30.7431 33.0479C31.0811 32.2596 31.4253 31.354 31.6756 30.2493C32.1785 28.0302 32.2813 25.1031 31.3435 20.7599C30.9446 18.9132 29.9289 17.778 28.5693 17.2523C27.2786 16.7532 25.7995 16.8502 24.4892 17.1529C23.3628 17.4131 22.2793 17.8441 21.4017 18.2896C21.2454 18.3689 21.0957 18.4486 20.9534 18.528L20.9024 18.5566C20.92 18.34 20.9415 18.1088 20.9677 17.865C21.1381 16.2804 21.5053 14.1878 22.2861 12.1158C22.6941 11.0331 23.2104 9.96839 23.862 8.98843C24.4585 8.09131 25.1685 7.26523 26.0126 6.56141C27.7619 5.10296 30.1424 4.12243 33.4329 4.17647C40.0808 4.28562 44.4539 7.68301 47.1262 11.1042C48.4655 12.8188 49.3675 14.529 49.8984 15.8065C50.0353 16.136 50.1458 16.4325 50.2321 16.6892C47.1104 16.3679 44.9702 16.9136 43.747 18.3152C42.3823 19.8788 42.4902 22.1377 42.9997 24.1833C43.5235 26.2865 44.5551 28.5004 45.4842 30.2858C45.9317 31.1457 46.3624 31.9193 46.7091 32.5418L46.7546 32.6235C47.1253 33.2894 47.3563 33.7105 47.439 33.9112C47.9819 35.2291 48.6642 36.1492 49.2102 36.8396C49.2846 36.9337 49.3538 37.0203 49.4184 37.1012L49.452 37.1433C49.6179 37.351 49.7529 37.5212 49.8684 37.686L49.8789 37.701L49.8624 37.7058C49.6679 37.7623 49.4266 37.8382 49.1753 37.9515C48.6561 38.1856 48.0958 38.58 47.7046 39.2981C47.3318 39.9824 47.1596 40.8747 47.2157 42.0311L47.2165 42.0462C47.0793 43.7766 46.1393 51.6217 45.652 54.4485C45.3282 56.3294 44.8156 57.5507 43.9853 58.4151C43.6793 58.7336 43.3155 59.0188 42.8755 59.274C42.1192 59.7129 41.1377 60.0633 39.8374 60.3425C37.5085 60.8421 36.1487 60.3073 35.2902 59.5831C34.7067 59.0909 34.3004 58.4681 33.9926 57.8562C33.8188 57.5108 33.6765 57.1688 33.5514 56.8557C33.4267 56.5435 33.2899 55.8779 33.1718 54.8485Z" fill="white"/>
<path fill-rule="evenodd" clip-rule="evenodd" d="M50.2255 20.7022L50.1731 21.0446C50.1909 20.929 50.2085 20.8149 50.2255 20.7022ZM50.1731 21.0446C50.0386 21.9183 49.8904 22.8809 49.8541 24.0185L50.1731 21.0446ZM28.7261 40.0227L28.7307 40.0176C28.8168 39.921 28.896 39.8432 28.9681 39.7804L28.7261 40.0227ZM26.137 19.7522C26.4409 19.6801 26.8281 19.6697 27.231 19.726C27.6344 19.7822 28.0041 19.8982 28.2769 20.0508C28.4124 20.1267 28.5382 20.2195 28.63 20.3312C28.722 20.4432 28.7989 20.5996 28.7733 20.7835C28.7523 20.9346 28.6662 21.0784 28.5746 21.1924C28.477 21.314 28.3469 21.4344 28.1943 21.5379C27.891 21.7437 27.4693 21.902 27.0022 21.8368C26.5392 21.7724 26.1492 21.5049 25.8859 21.228C25.7526 21.0879 25.6434 20.9368 25.5686 20.7922C25.5008 20.6609 25.4367 20.4881 25.4601 20.3208C25.4854 20.1368 25.6022 20.0074 25.721 19.9251C25.8397 19.8428 25.986 19.7881 26.137 19.7522ZM48.7795 19.7439C48.7616 19.6154 48.6793 19.5186 48.5809 19.4505C48.4827 19.3825 48.3557 19.3335 48.2153 19.3002C47.9334 19.2333 47.5656 19.2221 47.1761 19.2765C46.7866 19.3308 46.4359 19.4423 46.1829 19.5838C46.0569 19.6543 45.9481 19.7362 45.8721 19.8285C45.796 19.921 45.7432 20.0373 45.7606 20.1658C45.7764 20.2779 45.8434 20.3962 45.9281 20.5016C46.0159 20.6108 46.1348 20.7212 46.2761 20.817C46.5577 21.008 46.9429 21.1504 47.3644 21.0916C47.7841 21.0333 48.1452 20.7888 48.3933 20.5277C48.5182 20.3964 48.6187 20.2566 48.686 20.1263C48.7501 20.0024 48.7962 19.8641 48.7795 19.7439Z" fill="white"/>
</svg>
