<svg width="64" height="64" viewBox="0 0 64 64" fill="none" xmlns="http://www.w3.org/2000/svg">
<path d="M58.7417 38.9748C51.5236 40.4658 51.0274 38.0185 51.0274 38.0185C58.6485 26.6941 61.8344 12.3194 59.085 8.80125C51.5846 -0.795523 38.6008 3.74313 38.3842 3.86097L38.3144 3.87347C36.8884 3.57702 35.2924 3.40042 33.4987 3.3711C30.2327 3.3175 27.7552 4.22854 25.8753 5.65617C25.8753 5.65617 2.71362 -3.89894 3.79084 17.6735C4.02 22.2629 10.3595 52.3988 17.9209 43.2963C20.6846 39.9679 23.3549 37.1536 23.3549 37.1536C24.6813 38.0359 26.269 38.486 27.9336 38.3243L28.0629 38.2144C28.0227 38.6276 28.0411 39.0319 28.1147 39.5104C26.1667 41.6898 26.7391 42.0725 22.8451 42.8752C18.9049 43.6883 21.2196 45.1361 22.7309 45.5144C24.563 45.9733 28.8017 46.6232 31.6657 42.6083L31.5515 43.0664C32.3148 43.6786 32.8507 47.0484 32.7609 50.1031C32.6711 53.1579 32.6111 55.2552 33.2125 56.8933C33.8139 58.5315 34.4132 62.2173 39.5323 61.1189C43.8097 60.2009 46.0263 57.8222 46.3347 53.8543C46.5535 51.0334 47.0487 51.4504 47.08 48.9284L47.4772 47.7344C47.9352 43.9105 47.5499 42.6769 50.1852 43.2506L50.8256 43.307C52.7652 43.3953 55.3038 42.9946 56.7937 42.3011C60.002 40.8101 61.9047 38.3207 58.7414 38.9748H58.7417Z" fill="#336791"/>
<path d="M47.4147 54.7531L48.1794 41.1657L47.2207 41.9918C47.0999 43.6051 46.1446 51.5909 45.6521 54.4485C45.3282 56.3294 44.8157 57.5507 43.9853 58.415C43.6793 58.7336 43.3155 59.0188 42.8756 59.274L45.2743 59.6569L47.4147 54.7531Z" fill="white"/>
<path d="M32.9067 51.1543C32.7978 48.614 32.7753 45.5454 32.8399 42.4207L32.0008 40.2715L31.0818 41.1417L31.1196 51.2311L31.3948 55.0531L31.8906 57.5207L33.9926 57.8562C33.8188 57.5108 33.6765 57.1688 33.5514 56.8557C33.4268 56.5435 33.29 55.8779 33.1718 54.8485C33.0571 53.8497 32.9683 52.5916 32.9067 51.1543Z" fill="white"/>
<path d="M39.8374 60.3425C37.5085 60.8421 36.1488 60.3073 35.2902 59.5831C34.7067 59.0909 34.3004 58.4681 33.9926 57.8562L31.8906 57.5207C32.2396 58.3943 32.8525 59.8688 34.1378 60.953C35.4774 62.083 37.4219 62.6925 40.2124 62.0939C42.4327 61.6172 44.0902 60.8894 45.2743 59.6569L42.8756 59.274C42.1192 59.7129 41.1377 60.0633 39.8374 60.3425Z" fill="white"/>
<path d="M45.2743 59.6569C46.46 58.4227 47.0632 56.7943 47.4147 54.7531L45.2743 59.6569Z" fill="white"/>
<path d="M32.8698 41.1918C32.8836 40.6974 32.4946 40.2853 32.0008 40.2715L32.8399 42.4207C32.8484 42.0116 32.8584 41.6017 32.8698 41.1918Z" fill="white"/>
<path d="M32.0008 40.2715C31.5071 40.2577 31.0956 40.6473 31.0818 41.1417L32.0008 40.2715Z" fill="white"/>
<path d="M31.0818 41.1417C30.982 44.7157 30.9943 48.3074 31.1196 51.2311L31.0818 41.1417Z" fill="white"/>
<path d="M31.1196 51.2311C31.1823 52.6921 31.2735 53.9964 31.3948 55.0531L31.1196 51.2311Z" fill="white"/>
<path d="M31.3948 55.0531C31.5126 56.0793 31.6676 56.9622 31.8906 57.5207L31.3948 55.0531Z" fill="white"/>
<path fill-rule="evenodd" clip-rule="evenodd" d="M26.1771 4.66787C26.1776 4.66807 26.178 4.66823 25.8396 5.49726L26.1771 4.66787C26.6343 4.855 26.8543 5.37823 26.6675 5.83609C26.4806 6.29383 25.9587 6.5133 25.5016 6.32643L25.4996 6.3256L25.4896 6.32158L25.4453 6.30395C25.4051 6.2881 25.3439 6.26425 25.2631 6.23364C25.1015 6.17242 24.8617 6.0842 24.5553 5.97881C23.942 5.76786 23.0641 5.48891 22.0133 5.21976C19.9017 4.67886 17.138 4.18969 14.4368 4.3448C11.7343 4.49999 9.19544 5.2921 7.38855 7.20887C5.58944 9.11739 4.37101 12.2957 4.63289 17.5387C4.68608 18.604 5.11 21.2841 5.8536 24.6075C6.59296 27.912 7.63316 31.7843 8.8947 35.2207C10.1716 38.699 11.6242 41.5832 13.1278 43.0466C13.8672 43.7663 14.5093 44.0363 15.0634 44.0128C15.612 43.9895 16.3243 43.6672 17.1825 42.6341C18.5747 40.9569 19.8992 39.4618 20.8755 38.3863C21.3638 37.8482 21.7655 37.4146 22.0456 37.115C22.1857 36.9652 22.2954 36.8489 22.3703 36.7697L22.4561 36.6793L22.4784 36.6559L22.4858 36.6481C22.4859 36.6481 22.4865 36.6474 23.1321 37.2671L22.4858 36.6481C22.8276 36.291 23.3944 36.2783 23.751 36.6206C24.1076 36.9628 24.1196 37.5298 23.7778 37.8869L23.7714 37.8936L23.7507 37.9152L23.6685 38.0019C23.5959 38.0786 23.4888 38.1922 23.3514 38.3392C23.0766 38.6331 22.6808 39.0603 22.1991 39.591C21.2351 40.6531 19.9287 42.1277 18.5578 43.7793C17.5257 45.0219 16.3856 45.7494 15.1393 45.8024C13.8985 45.8551 12.803 45.2283 11.8811 44.3311C10.0622 42.5606 8.49774 39.3305 7.21588 35.8388C5.91864 32.3051 4.85831 28.3516 4.1082 24.9991C3.36233 21.6656 2.90783 18.8576 2.84644 17.6282C2.56957 12.0849 3.84425 8.35937 6.08787 5.97931C8.3237 3.60751 11.3772 2.72636 14.3344 2.55655C17.2928 2.38667 20.2562 2.9208 22.4566 3.48444C23.5619 3.76756 24.4863 4.06118 25.1363 4.28475C25.4615 4.39661 25.7187 4.49114 25.896 4.55833C25.9847 4.59194 26.0535 4.61873 26.101 4.63746L26.156 4.65935L26.1712 4.66548L26.1756 4.66728L26.1771 4.66787Z" fill="white"/>
<path fill-rule="evenodd" clip-rule="evenodd" d="M38.0912 2.91127C38.0893 2.91185 38.0885 2.9121 38.0885 2.91208C38.0886 2.91206 38.0895 2.91177 38.0912 2.91127ZM38.7659 4.56339C38.7218 4.58592 38.6752 4.60508 38.6263 4.62042C38.6105 4.62539 38.5767 4.6359 38.5391 4.64488C38.5282 4.64747 38.5101 4.65161 38.4879 4.65565C38.4731 4.65834 38.4224 4.6675 38.3571 4.66978C38.3197 4.67031 38.2212 4.66421 38.1603 4.65492C38.0489 4.62647 37.7529 4.46296 37.5997 4.29851C37.4665 4.0254 37.4659 3.52555 37.5429 3.34011C37.597 3.25409 37.6991 3.13454 37.7402 3.09667C37.806 3.03962 37.8663 3.00502 37.8804 2.99694C37.8808 2.99672 37.8811 2.99652 37.8814 2.99634C37.9047 2.98296 37.9241 2.97317 37.9349 2.96783C37.9572 2.95686 37.9763 2.94848 37.9871 2.94387C38.0103 2.93391 38.0337 2.92468 38.0534 2.91713C38.1326 2.88675 38.2594 2.84237 38.4247 2.78933C38.7596 2.68183 39.2823 2.52924 39.9528 2.37229C41.292 2.05883 43.239 1.72366 45.4688 1.70291C49.9256 1.66146 55.6147 2.88229 59.7388 8.15949L59.7388 8.15953C60.626 9.29479 60.933 11.1236 60.9013 13.1823C60.8687 15.2931 60.4749 17.8469 59.7604 20.6168C58.3312 26.1583 55.5893 32.6777 51.7185 38.4296C51.4425 38.8398 50.8866 38.9482 50.477 38.6718C50.0674 38.3954 49.9592 37.8388 50.2352 37.4286C53.9854 31.8558 56.647 25.5255 58.0286 20.1689C58.7196 17.4897 59.0831 15.0824 59.1128 13.1546C59.1433 11.1746 58.8177 9.88729 58.3302 9.26341C54.6713 4.58158 49.6214 3.45555 45.4855 3.49403C43.4189 3.51325 41.6062 3.82474 40.36 4.11646C39.7378 4.2621 39.2614 4.40174 38.9705 4.49507C38.883 4.52316 38.8147 4.54627 38.7659 4.56339Z" fill="white"/>
<path fill-rule="evenodd" clip-rule="evenodd" d="M24.8682 5.18488C26.9632 3.43809 29.7658 2.32481 33.4623 2.38551C40.7918 2.50585 45.6287 6.27963 48.5351 10.0006C49.9853 11.8571 50.9649 13.7107 51.5498 15.1184C51.8416 15.8203 52.0417 16.4271 52.1518 16.8809C52.2053 17.1011 52.2462 17.3201 52.2564 17.5101C52.261 17.5963 52.2637 17.7404 52.2264 17.8954C52.2052 17.9838 52.0689 18.4962 51.5016 18.6137L51.179 18.621C47.5075 18.0324 45.8243 18.6569 45.0938 19.494C44.3502 20.346 44.2497 21.8007 44.7352 23.7498C45.2064 25.6415 46.1573 27.7033 47.0704 29.458C47.506 30.295 47.9259 31.0492 48.2736 31.6735L48.3272 31.7698C48.6621 32.3713 48.96 32.9064 49.0925 33.2281C49.5419 34.3192 50.1057 35.0867 50.6125 35.7277C50.6692 35.7994 50.7273 35.8721 50.7858 35.9452C50.9782 36.1859 51.174 36.4308 51.3325 36.6569C51.5338 36.9441 51.7402 37.2883 51.8385 37.6865C51.8445 37.6974 51.8557 37.7159 51.8745 37.7402C51.9321 37.8147 52.0903 37.9819 52.4695 38.1391C53.2539 38.4643 54.9729 38.7393 58.5109 38.008C58.9451 37.9182 59.3372 37.8723 59.6782 37.884C59.9993 37.8951 60.3911 37.9604 60.7141 38.2066C61.1004 38.5009 61.2402 38.936 61.201 39.343C61.1674 39.693 61.0084 40.0024 60.8518 40.239C60.53 40.725 59.9986 41.2278 59.3803 41.6893C58.7488 42.1606 57.9752 42.627 57.1202 43.0247C55.6525 43.7068 53.3827 44.103 51.487 44.1239C50.5371 44.1344 49.6022 44.0523 48.8664 43.8233C48.2156 43.6208 47.2793 43.1508 47.2199 42.1099C47.152 40.9152 47.3234 39.9979 47.7046 39.2981C48.0958 38.58 48.6562 38.1856 49.1753 37.9515C49.4266 37.8382 49.6679 37.7623 49.8624 37.7058C49.868 37.7042 49.8735 37.7026 49.8789 37.701C49.8755 37.6961 49.872 37.6911 49.8684 37.686C49.7452 37.5102 49.5998 37.3282 49.4184 37.1012C49.3538 37.0203 49.2846 36.9337 49.2102 36.8396C48.6643 36.1492 47.9819 35.2291 47.439 33.9112C47.3563 33.7105 47.1253 33.2894 46.7546 32.6235L46.7091 32.5418C46.3625 31.9193 45.9317 31.1457 45.4842 30.2858C44.5552 28.5004 43.5235 26.2865 42.9997 24.1833C42.4902 22.1377 42.3823 19.8788 43.747 18.3152C44.9703 16.9136 47.1104 16.3679 50.2321 16.6892C50.1459 16.4325 50.0354 16.136 49.8984 15.8065C49.3675 14.529 48.4655 12.8187 47.1263 11.1042C44.454 7.68301 40.0808 4.28561 33.433 4.17646C30.1424 4.12243 27.7619 5.10295 26.0126 6.56141C24.2464 8.03402 23.0677 10.0419 22.2861 12.1158C21.5053 14.1878 21.1381 16.2804 20.9678 17.865C20.8829 18.6548 20.8475 19.3121 20.8333 19.7693C20.8263 19.9977 20.8245 20.1758 20.8244 20.295C20.8244 20.3545 20.8248 20.3994 20.8252 20.4284L20.8257 20.4599L20.8259 20.4665C20.8259 20.4666 20.8259 20.4663 20.8259 20.4665M20.8259 20.4665C20.8386 20.9607 20.449 21.3726 19.9554 21.3857C19.4616 21.3987 19.0508 21.0084 19.0378 20.5139L19.9318 20.4904C19.0378 20.5139 19.0378 20.5144 19.0378 20.5139L19.0378 20.5117L19.0377 20.5079L19.0374 20.4956L19.0367 20.4523C19.0362 20.4154 19.0357 20.3623 19.0358 20.2942C19.0358 20.158 19.0378 19.9617 19.0455 19.7137C19.0609 19.2181 19.0989 18.5148 19.1894 17.6733C19.3697 15.9952 19.7613 13.7425 20.6127 11.4834C21.4632 9.22632 22.7901 6.91751 24.8682 5.18488M50.4703 17.6064C50.4707 17.614 50.4703 17.613 50.4702 17.6048ZM50.886 39.2695C50.7595 39.3137 50.6046 39.3572 50.4773 39.393C50.4347 39.405 50.3951 39.4161 50.3608 39.4261C50.1946 39.4744 50.0472 39.5227 49.9098 39.5847C49.6517 39.7011 49.4351 39.8617 49.2748 40.156C49.1086 40.461 48.9573 40.9945 49.0019 41.9356C49.0458 41.971 49.1543 42.0372 49.3973 42.1128C49.8775 42.2623 50.6006 42.3424 51.4673 42.3328C53.2047 42.3137 55.2022 41.9414 56.367 41.4C57.1156 41.0518 57.7827 40.6477 58.3113 40.2531C58.5487 40.076 58.7489 39.9076 58.9124 39.7541C58.8993 39.7567 58.886 39.7594 58.8726 39.7622C55.1923 40.5229 53.0538 40.3199 51.7854 39.7941C51.4147 39.6405 51.1196 39.4595 50.886 39.2695ZM48.9758 41.9085C48.9765 41.9082 48.9801 41.9119 48.9846 41.9202C48.9774 41.9128 48.9751 41.9087 48.9758 41.9085Z" fill="white"/>
<path d="M25.9574 42.7948L28.7261 40.0227L28.7307 40.0176C28.8168 39.921 28.896 39.8432 28.9681 39.7804L30.7347 38.0116L29.3158 37.7335L27.3974 38.8235L24.4188 43.3325C25.0451 43.1681 25.5415 42.9982 25.9574 42.7948Z" fill="white"/>
<path d="M27.3974 38.8235C26.9656 39.3066 26.6484 39.7099 26.3957 40.0313C26.3503 40.089 26.307 40.1441 26.2655 40.1965C25.9858 40.5496 25.8077 40.7544 25.6014 40.919C25.2017 41.238 24.573 41.5046 22.6138 41.9086C21.601 42.1177 20.8257 42.3944 20.3364 42.794C20.0761 43.0066 19.8441 43.2973 19.7566 43.6773C19.667 44.0666 19.7586 44.4204 19.9057 44.6935C20.1707 45.1856 20.672 45.531 21.077 45.7529C21.5165 45.9937 22.0166 46.1819 22.463 46.2936L23.5192 44.6945C23.2924 44.6506 23.0837 44.6028 22.8967 44.5559C22.5877 44.4785 22.2318 44.3439 21.9355 44.1816C21.8485 44.1339 21.772 44.0867 21.7066 44.0416C21.7642 44.0145 21.8326 43.9852 21.9134 43.9545C22.1672 43.858 22.5135 43.7581 22.9748 43.6629C23.5239 43.5497 24.0004 43.4423 24.4188 43.3325L27.3974 38.8235Z" fill="white"/>
<path d="M30.7538 38.0195L30.7347 38.0116L28.9681 39.7804C29.222 39.5594 29.3892 39.5251 29.4714 39.5179C29.6186 39.5051 29.7699 39.5502 30.069 39.6742C30.383 39.8046 30.754 40.1899 30.9508 40.7216C31.1443 41.2445 31.0974 41.7024 30.8869 41.9974C28.808 44.9124 25.9191 45.0596 23.9813 44.7734L22.463 46.2936C24.3623 46.7695 29.1328 47.5391 32.3425 43.0385C33.0041 42.1109 32.9547 40.9818 32.628 40.0992C32.3047 39.2255 31.6378 38.3865 30.7538 38.0195Z" fill="white"/>
<path d="M23.5192 44.6945L22.463 46.2936L23.9813 44.7734C23.8204 44.7496 23.666 44.7229 23.5192 44.6945Z" fill="white"/>
<path fill-rule="evenodd" clip-rule="evenodd" d="M28.5693 17.2523C29.9288 17.778 30.9446 18.9132 31.3435 20.7599L31.3435 20.7599C32.2813 25.1031 32.1784 28.0302 31.6756 30.2493C31.4253 31.354 31.0811 32.2596 30.7431 33.0479C30.6127 33.3518 30.4903 33.6238 30.3757 33.8785C30.18 34.3132 30.007 34.6976 29.8559 35.1048C29.8103 35.228 29.7653 35.3488 29.7212 35.4673C29.438 36.2278 29.1896 36.8951 29.0171 37.5162C28.8182 38.2322 28.7502 38.7902 28.8202 39.2469C28.8951 39.7359 28.5601 40.193 28.0718 40.268C27.5836 40.343 27.1271 40.0075 27.0522 39.5186C27.034 39.3998 27.0214 39.2805 27.0138 39.1611C22.0655 39.0397 18.1311 34.2338 18.8928 28.7795L19.7785 28.9035L18.8928 28.7795C19.3257 25.6794 19.1697 23.005 19.0812 21.4892C19.0557 21.0521 19.0358 20.7114 19.0373 20.4845L19.0373 20.4844C19.0399 20.0958 19.264 19.8144 19.346 19.7147C19.4659 19.5692 19.6148 19.4325 19.7657 19.3095C20.0723 19.0598 20.4834 18.79 20.9533 18.528C21.8948 18.003 23.1622 17.4594 24.4892 17.1529C25.7995 16.8502 27.2785 16.7532 28.5693 17.2523ZM27.2064 37.3711C27.2337 37.259 27.263 37.1473 27.2938 37.0363C27.4886 36.3349 27.7677 35.5859 28.0481 34.8334C28.0919 34.7161 28.1356 34.5986 28.1791 34.4813L28.1793 34.4808C28.3494 34.0225 28.5664 33.539 28.7805 33.0623C28.8898 32.8188 28.9984 32.577 29.0995 32.3412C29.4133 31.6094 29.7136 30.8133 29.9313 29.853C30.3643 27.942 30.4907 25.2855 29.5952 21.1385C29.3108 19.8219 28.6685 19.2107 27.925 18.9232C27.1127 18.6091 26.0438 18.632 24.8912 18.8982C23.7553 19.1606 22.6449 19.6349 21.8235 20.0929C21.412 20.3224 21.0955 20.5353 20.8943 20.6991C20.8716 20.7176 20.8515 20.7346 20.8337 20.7501C20.8399 20.8761 20.8493 21.0322 20.8604 21.2155C20.9462 22.6359 21.1307 25.6877 20.6643 29.0276C20.0254 33.6021 23.3629 37.3591 27.2064 37.3711ZM20.7295 20.8503C20.7134 20.8748 20.7072 20.8771 20.7258 20.8546C20.7269 20.8533 20.7281 20.8519 20.7295 20.8503Z" fill="white"/>
<path d="M25.7554 20.3618C25.7141 20.6548 26.2911 21.4366 27.0434 21.5411C27.7944 21.646 28.4373 21.035 28.4781 20.7423C28.5188 20.4493 27.9425 20.1266 27.1899 20.0217C26.4384 19.9166 25.7951 20.0695 25.7554 20.3618Z" fill="white"/>
<path fill-rule="evenodd" clip-rule="evenodd" d="M27.231 19.726C26.8281 19.6697 26.441 19.6801 26.137 19.7522ZM26.137 19.7522C25.986 19.7881 25.8397 19.8428 25.721 19.9251ZM25.721 19.9251C25.6022 20.0074 25.4854 20.1368 25.4601 20.3208ZM25.4601 20.3208C25.4368 20.4881 25.5008 20.6609 25.5687 20.7922C25.6434 20.9368 25.7526 21.0879 25.8859 21.228C26.1492 21.5049 26.5393 21.7724 27.0022 21.8368M26.0602 20.4161C26.0591 20.4169 26.058 20.4177 26.0569 20.4184C26.0623 20.4376 26.0736 20.4703 26.0981 20.5177C26.1435 20.6055 26.2178 20.7112 26.3176 20.8163C26.5205 21.0296 26.7951 21.2052 27.0843 21.2454C27.3683 21.2851 27.6437 21.1903 27.8599 21.0437C27.967 20.971 28.0522 20.8903 28.11 20.8183C28.116 20.8108 28.1216 20.8036 28.1267 20.7967C28.1536 20.7606 28.1681 20.734 28.1755 20.7181C28.1738 20.7158 28.1719 20.7133 28.1696 20.7105C28.1413 20.676 28.0836 20.6266 27.9861 20.572C27.7928 20.4639 27.498 20.366 27.1488 20.3173C26.8003 20.2686 26.49 20.2821 26.2745 20.3332C26.1657 20.359 26.0968 20.3907 26.0602 20.4161ZM28.63 20.3312C28.722 20.4432 28.7989 20.5997 28.7733 20.7835C28.7523 20.9346 28.6662 21.0784 28.5746 21.1924C28.477 21.3141 28.3469 21.4344 28.1943 21.5379C27.8911 21.7437 27.4693 21.902 27.0022 21.8368M28.63 20.3312C28.5382 20.2195 28.4124 20.1267 28.2769 20.0508ZM28.2769 20.0508C28.0041 19.8982 27.6344 19.7822 27.231 19.726Z" fill="white"/>
<path d="M27.8599 21.0437C27.86 21.0435 27.8597 21.0438 27.8599 21.0437L27.0022 21.8368C27.4693 21.902 27.8911 21.7437 28.1943 21.5379C28.3469 21.4344 28.477 21.3141 28.5746 21.1924C28.6662 21.0784 28.7523 20.9346 28.7733 20.7835C28.7989 20.5997 28.722 20.4432 28.63 20.3312L28.1267 20.7967C28.1216 20.8036 28.116 20.8108 28.11 20.8183C28.0522 20.8903 27.967 20.971 27.8599 21.0437Z" fill="white"/>
<path d="M27.231 19.726L26.137 19.7522L25.721 19.9251L25.4601 20.3208L27.0022 21.8368L27.8599 21.0437C27.6437 21.1903 27.3683 21.2851 27.0843 21.2454C26.7951 21.2052 26.5205 21.0296 26.3176 20.8163C26.2178 20.7112 26.1435 20.6055 26.0981 20.5177C26.0736 20.4703 26.0623 20.4376 26.0569 20.4184L26.0602 20.4161C26.0968 20.3907 26.1657 20.359 26.2745 20.3332C26.49 20.2821 26.8003 20.2686 27.1488 20.3173C27.498 20.366 27.7928 20.4639 27.9861 20.572C28.0836 20.6266 28.1413 20.676 28.1696 20.7105L28.1755 20.7181C28.1681 20.734 28.1536 20.7606 28.1267 20.7967L28.63 20.3312L28.2769 20.0508L27.231 19.726Z" fill="white"/>
<path d="M48.6319 19.7644C48.6726 20.0574 48.0963 20.8393 47.3439 20.9438C46.5922 21.0487 45.9494 20.4377 45.9082 20.1449C45.8684 19.8519 46.4449 19.5292 47.1966 19.4243C47.9484 19.3194 48.5911 19.4722 48.6319 19.7646V19.7644Z" fill="white"/>
<path fill-rule="evenodd" clip-rule="evenodd" d="M48.1466 19.5907C47.9089 19.5343 47.5796 19.5216 47.2172 19.5721C46.8549 19.6227 46.5416 19.7251 46.3283 19.8444C46.2213 19.9043 46.1464 19.9646 46.1021 20.0185C46.0581 20.0719 46.0535 20.1064 46.0559 20.1245C46.0609 20.1589 46.0897 20.2266 46.1604 20.3144C46.2282 20.3988 46.3247 20.4895 46.4432 20.5699C46.6813 20.7313 46.9933 20.842 47.3233 20.7959L47.3234 20.7959C47.6562 20.7497 47.9595 20.5511 48.1774 20.3219C48.2856 20.2081 48.3686 20.0909 48.4213 19.989C48.4773 19.8808 48.4879 19.8116 48.4843 19.7852L48.4843 19.7852C48.4818 19.7675 48.4685 19.7356 48.4114 19.6961C48.3542 19.6565 48.2659 19.619 48.1466 19.5907ZM48.5809 19.4505C48.6793 19.5186 48.7616 19.6154 48.7795 19.7439L48.7795 19.7438C48.7963 19.8641 48.7501 20.0024 48.686 20.1263C48.6187 20.2566 48.5182 20.3964 48.3933 20.5277C48.1452 20.7888 47.7841 21.0333 47.3644 21.0916M47.3644 21.0916C46.9428 21.1504 46.5577 21.008 46.2761 20.817C46.1348 20.7212 46.0159 20.6108 45.9281 20.5016C45.8434 20.3962 45.7764 20.2778 45.7606 20.1658L45.7605 20.165L45.7605 20.165C45.7431 20.0366 45.796 19.921 45.8721 19.8285C45.9481 19.7362 46.0569 19.6543 46.1829 19.5838C46.4359 19.4423 46.7866 19.3308 47.1761 19.2765C47.5656 19.2221 47.9334 19.2333 48.2153 19.3002C48.3557 19.3335 48.4827 19.3825 48.5809 19.4505" fill="white"/>
<path fill-rule="evenodd" clip-rule="evenodd" d="M51.2722 16.8424C51.7654 16.8158 52.1868 17.1946 52.2134 17.6885C52.2804 18.9325 52.145 19.9725 51.9941 20.9703C51.9764 21.0877 51.9585 21.2042 51.9407 21.3203C51.8059 22.1979 51.6745 23.0527 51.642 24.0756C51.6155 24.8915 51.6991 25.7547 51.8096 26.6983C51.8272 26.8487 51.8456 27.0014 51.8642 27.1561C51.9598 27.9523 52.0618 28.8012 52.104 29.6592C52.2065 31.7409 51.9669 33.9927 50.4593 36.2473C50.1845 36.6583 49.629 36.7683 49.2186 36.4931C48.8082 36.2179 48.6983 35.6617 48.9731 35.2507C50.1905 33.4299 50.4091 31.6088 50.3175 29.7474C50.2786 28.9582 50.1856 28.1824 50.0902 27.3864C50.0711 27.2275 50.052 27.0678 50.0331 26.907C49.9222 25.96 49.823 24.9805 49.8542 24.0185M51.2722 16.8424C50.7789 16.8691 50.4007 17.2911 50.4273 17.785ZM50.4273 17.785C50.4841 18.8393 50.3724 19.7311 50.2256 20.7022ZM50.2256 20.7022C50.2086 20.8149 50.191 20.929 50.1732 21.0446ZM50.1732 21.0446C50.0386 21.9183 49.8905 22.8809 49.8542 24.0185Z" fill="white"/>
<path d="M49.8542 24.0185L51.2722 16.8424L50.4273 17.785C50.4841 18.8393 50.3724 19.7311 50.2256 20.7022C50.2086 20.8149 50.191 20.929 50.1732 21.0446L49.8542 24.0185Z" fill="white"/>
</svg>
