<svg width="64" height="64" viewBox="0 0 64 64" fill="none" xmlns="http://www.w3.org/2000/svg">
<g clip-path="url(#clip0_8_745)">
<path d="M31.6189 0.000523481C28.9799 0.0126516 26.4597 0.235261 24.2422 0.62336C17.7098 1.76483 16.5237 4.15401 16.5237 8.56008V14.3792H31.9608V16.3188H16.5237H10.7304C6.24394 16.3188 2.3155 18.986 1.08673 24.0598C-0.330638 29.8756 -0.393506 33.5047 1.08673 39.5773C2.18405 44.0976 4.80459 47.3183 9.29102 47.3183H14.5986V40.3425C14.5986 35.303 19.0071 30.8576 24.2422 30.8576H39.6613C43.9534 30.8576 47.3798 27.3622 47.3798 23.0989V8.56008C47.3798 4.42226 43.8505 1.31395 39.6613 0.62336C37.0094 0.186748 34.2579 -0.0116049 31.6189 0.000523481ZM23.2707 4.6807C24.8652 4.6807 26.1674 5.98966 26.1674 7.59913C26.1674 9.20289 24.8652 10.4998 23.2707 10.4998C21.6704 10.4998 20.374 9.20289 20.374 7.59913C20.374 5.98966 21.6704 4.6807 23.2707 4.6807Z" fill="url(#paint0_linear_8_745)"/>
<path d="M49.305 16.3188V23.0989C49.305 28.3553 44.7993 32.7795 39.6613 32.7795H24.2423C20.0188 32.7795 16.5238 36.3548 16.5238 40.5383V55.0771C16.5238 59.2149 20.1617 61.6487 24.2423 62.8358C29.1288 64.257 33.8147 64.5138 39.6613 62.8358C43.5477 61.7229 47.3798 59.4831 47.3798 55.0771V49.258H31.9608V47.3183H47.3798H55.0984C59.5848 47.3183 61.2566 44.2231 62.8168 39.5773C64.4285 34.7946 64.36 30.1952 62.8168 24.0598C61.7081 19.6423 59.5905 16.3188 55.0984 16.3188H49.305ZM40.6329 53.1374C42.2331 53.1374 43.5296 54.4343 43.5296 56.038C43.5296 57.6475 42.2331 58.9565 40.6329 58.9565C39.0384 58.9565 37.7362 57.6475 37.7362 56.038C37.7362 54.4343 39.0384 53.1374 40.6329 53.1374Z" fill="url(#paint1_linear_8_745)"/>
</g>
<defs>
<linearGradient id="paint0_linear_8_745" x1="-1.92231e-07" y1="-1.65161e-07" x2="35.2666" y2="30.3839" gradientUnits="userSpaceOnUse">
<stop stop-color="#5A9FD4"/>
<stop offset="1" stop-color="#306998"/>
</linearGradient>
<linearGradient id="paint1_linear_8_745" x1="40.2619" y1="55.5488" x2="27.6766" y2="37.7182" gradientUnits="userSpaceOnUse">
<stop stop-color="#FFD43B"/>
<stop offset="1" stop-color="#FFE873"/>
</linearGradient>
<clipPath id="clip0_8_745">
<rect width="64" height="64" fill="white"/>
</clipPath>
</defs>
</svg>
