<svg width="64" height="64" viewBox="0 0 64 64" fill="none" xmlns="http://www.w3.org/2000/svg">
<path fill-rule="evenodd" clip-rule="evenodd" d="M1.97534 51.2804H24.2681C24.2681 51.2804 20.0071 31.8377 34.1164 23.9647C37.1923 22.4691 46.9842 16.8818 63.0124 28.7337C63.5203 28.3104 64 27.9718 64 27.9718C64 27.9718 49.3263 13.3263 32.9877 14.963C24.776 15.6966 14.6738 23.1746 8.74783 33.0511C2.8219 42.9277 1.97534 51.2804 1.97534 51.2804Z" fill="#CC0000"/>
<path fill-rule="evenodd" clip-rule="evenodd" d="M1.97534 51.2804H24.2681C24.2681 51.2804 20.0071 31.8377 34.1164 23.9647C37.1923 22.4691 46.9842 16.8818 63.0124 28.7337C63.5203 28.3104 64 27.9718 64 27.9718C64 27.9718 49.3263 13.3263 32.9877 14.963C24.776 15.6966 14.6738 23.1746 8.74783 33.0511C2.8219 42.9277 1.97534 51.2804 1.97534 51.2804Z" fill="#CC0000"/>
<path fill-rule="evenodd" clip-rule="evenodd" d="M1.97534 51.2804H24.2681C24.2681 51.2804 20.0071 31.8378 34.1164 23.9647C37.1923 22.4691 46.9842 16.8818 63.0124 28.7337C63.5203 28.3104 64 27.9718 64 27.9718C64 27.9718 49.3263 13.3263 32.9877 14.963C24.7478 15.6967 14.6455 23.1746 8.71961 33.0512C2.79368 42.9277 1.97534 51.2804 1.97534 51.2804ZM48.4233 16.5432L48.5362 14.6526C48.2822 14.5115 47.5768 14.1729 45.799 13.6649L45.6861 15.5274C46.6173 15.8378 47.5203 16.1764 48.4233 16.5432Z" fill="#CC0000"/>
<path fill-rule="evenodd" clip-rule="evenodd" d="M45.7425 22.5256L45.6296 24.3033C46.5608 24.3316 47.4921 24.4444 48.4233 24.642L48.5362 22.8924C47.5767 22.6949 46.6455 22.582 45.7425 22.5256ZM35.3016 13.7213H35.5838L35.0194 12C34.1446 12 33.2416 12.0564 32.3104 12.1693L32.8466 13.8342C33.6649 13.7496 34.4832 13.7213 35.3016 13.7213ZM36.6561 24.1058L37.3051 26.0529C38.1235 25.6578 38.9418 25.3192 39.7601 25.0653L39.1393 23.2028C38.1799 23.485 37.3615 23.7954 36.6561 24.1058ZM23.8448 16.6843L22.575 14.7372C21.8695 15.1041 21.1358 15.4991 20.3739 15.9506L21.672 17.9259C22.4056 17.4744 23.1111 17.0511 23.8448 16.6843ZM29.6296 29.3827L30.9841 31.4145C31.4638 30.709 32.0282 30.06 32.649 29.4109L31.3792 27.4921C30.7302 28.0847 30.1376 28.7337 29.6296 29.3827ZM25.5379 38.4691L27.8236 40.2751C27.9365 39.1746 28.134 38.0741 28.4162 36.9735L26.3845 35.3651C26.0176 36.4092 25.7637 37.4533 25.5379 38.4691ZM13.1781 25.0653L11.1746 23.3157C10.4409 24.0212 9.73545 24.7266 9.08642 25.4321L11.2593 27.2945C11.8519 26.5326 12.5009 25.7707 13.1781 25.0653ZM4.65608 37.679L1.41093 36.4938C0.874779 37.7072 0.282187 39.1182 0 39.8801L3.24515 41.0653C3.61199 40.1058 4.20459 38.7231 4.65608 37.679ZM25.1146 45.6367C25.1711 47.1323 25.3122 48.3457 25.4533 49.1922L28.8395 50.4056C28.5855 49.3051 28.3316 48.0635 28.1623 46.7372L25.1146 45.6367Z" fill="#CC0000"/>
</svg>
