<svg width="64" height="64" viewBox="0 0 64 64" fill="none" xmlns="http://www.w3.org/2000/svg">
<g clip-path="url(#clip0_455_581)">
<path d="M32 38.0035C35.1504 38.0035 37.7043 35.4624 37.7043 32.3278C37.7043 29.1933 35.1504 26.6522 32 26.6522C28.8496 26.6522 26.2957 29.1933 26.2957 32.3278C26.2957 35.4624 28.8496 38.0035 32 38.0035Z" fill="#61DAFB"/>
<path d="M32.0001 43.9561C48.9048 43.9561 62.6087 38.75 62.6087 32.3279C62.6087 25.9058 48.9048 20.6996 32.0001 20.6996C15.0953 20.6996 1.39136 25.9058 1.39136 32.3279C1.39136 38.75 15.0953 43.9561 32.0001 43.9561Z" stroke="#61DAFB" stroke-width="2"/>
<path d="M21.8788 38.142C30.3312 52.7083 41.7146 61.9136 47.3044 58.7026C52.8942 55.4915 50.5736 41.0801 42.1212 26.5138C33.6689 11.9474 22.2855 2.74211 16.6957 5.95315C11.1059 9.1642 13.4265 23.5756 21.8788 38.142Z" stroke="#61DAFB" stroke-width="2"/>
<path d="M21.8788 26.5138C13.4264 41.0801 11.1059 55.4915 16.6956 58.7026C22.2854 61.9136 33.6688 52.7083 42.1212 38.142C50.5735 23.5756 52.8941 9.1642 47.3043 5.95316C41.7146 2.74211 30.3311 11.9474 21.8788 26.5138Z" stroke="#61DAFB" stroke-width="2"/>
</g>
<defs>
<clipPath id="clip0_455_581">
<rect width="64" height="56.6557" fill="white" transform="translate(0 4)"/>
</clipPath>
</defs>
</svg>
