<svg width="64" height="64" viewBox="0 0 64 64" fill="none" xmlns="http://www.w3.org/2000/svg">
<g clip-path="url(#clip0_7_302)">
<path fill-rule="evenodd" clip-rule="evenodd" d="M32.0002 -0.000152588C49.6733 -0.000152588 64.0002 14.3268 64.0002 32C64.0002 49.6731 49.6733 64 32.0002 64C14.327 64 0 49.6731 0 32C0 14.3268 14.327 -0.000152588 32.0002 -0.000152588ZM32.2812 9.31331C41.2001 6.1447 50.6237 8.01297 52.0728 13.6963C53.4977 19.2844 48.6462 25.9696 42.4334 28.373C36.8861 30.5187 32.2991 30.1789 30.4149 29.5605C28.273 28.8577 27.0165 27.4448 26.7105 26.648L26.705 26.6339C26.5843 26.32 26.3876 25.8087 26.7105 25.6299C26.9116 25.5185 26.9918 25.5453 27.5306 26.139C28.0423 26.7028 30.0993 28.217 34.0061 27.779C44.2604 26.6298 50.4363 18.662 48.485 14.3751C47.1189 11.3744 39.2143 10.0205 29.3403 14.9406C17.2866 20.9469 16.633 25.8986 16.5302 27.779C16.3347 31.3553 19.4612 33.76 22.6014 36.1753C24.0031 37.2533 25.4075 38.3335 26.5204 39.5209C26.6053 39.6114 26.6874 39.7028 26.7681 39.7947C27.8592 39.3887 29.3699 39.1601 31.7723 39.1187C37.6056 39.0182 40.9001 42.8638 40.7647 46.3016C40.6585 49.0093 38.1729 50.1246 37.7109 50.2025C37.3752 50.2593 37.193 50.2691 37.1453 50.0059C37.1121 49.8249 37.2322 49.7406 37.626 49.497C38.0196 49.2536 39.1971 48.447 39.4075 46.98C39.6181 45.5134 38.5167 42.0083 32.9033 41.3527C30.914 41.1203 29.3487 41.279 28.006 41.6333C28.9794 43.7793 29.1658 48.0934 26.926 51.4343C24.6051 54.8962 20.2863 57.0024 16.0777 55.8314C14.7193 55.4535 12.6676 52.646 14.4376 48.7336C16.115 45.0251 23.283 41.3976 24.2623 40.9155V40.8982C23.4297 40.1814 22.2981 39.402 21.0518 38.5437C17.3265 35.978 12.5763 32.7064 11.7229 28.2881C11.4 26.617 12.1833 22.6178 17.0957 18.023C21.2273 14.1584 26.9734 11.1989 32.2812 9.31331Z" fill="white"/>
<path d="M25.6407 42.6593C26.1062 44.3815 26.0551 45.9874 25.5743 47.4418C25.5209 47.6033 25.462 47.7632 25.3981 47.9211C25.3343 48.0787 25.2651 48.2347 25.191 48.3886C24.8201 49.1581 24.3224 49.8783 23.7129 50.5431C21.8536 52.5715 19.2559 53.3385 18.142 52.6922C16.9392 51.9951 17.5417 49.1351 19.6974 46.8566C22.0164 44.405 25.3531 42.8288 25.3531 42.8288L25.348 42.8188C25.4441 42.7671 25.5417 42.7138 25.6407 42.6593Z" fill="white"/>
</g>
<defs>
<clipPath id="clip0_7_302">
<rect width="64" height="64" fill="white"/>
</clipPath>
</defs>
</svg>
