<svg width="64" height="64" viewBox="0 0 64 64" fill="none" xmlns="http://www.w3.org/2000/svg">
<path d="M41.5723 29.9372H41.9863V32.0992L43.1363 30.9612H43.6242L42.7143 31.8652L43.7842 33.5752H43.2903L42.3983 32.1372L41.9883 32.5512V33.5752H41.5743L41.5723 29.9372Z" fill="white"/>
<path d="M44.1103 30.9632H44.5243V33.5772H44.1103V30.9632Z" fill="white"/>
<path d="M45.3122 30.2432H45.7262V30.9632H46.1562V31.3012H45.7262V33.0932C45.7222 33.1092 45.7202 33.1252 45.7202 33.1432C45.7202 33.2492 45.8062 33.3352 45.9122 33.3352C45.9302 33.3352 45.9462 33.3332 45.9622 33.3292H45.9862C46.0462 33.3292 46.1042 33.3192 46.1602 33.3032L46.1562 33.3052V33.6572C46.0542 33.6772 45.9382 33.6892 45.8182 33.6912C45.8125 33.6912 45.8062 33.6917 45.7998 33.6922L45.7944 33.6926L45.7867 33.693L45.7782 33.6932C45.6522 33.6932 45.5342 33.6532 45.4402 33.5832L45.4422 33.5852C45.3622 33.5152 45.3122 33.4152 45.3122 33.3012V33.2772V31.3052H44.9603V30.9652H45.3122V30.2432Z" fill="white"/>
<path d="M44.1103 29.9372H44.5243V30.4612H44.1103V29.9372Z" fill="white"/>
<path d="M40.5042 29.9372H40.9182V30.4612H40.5002L40.5042 29.9372Z" fill="white"/>
<path d="M61.9865 41.5484C60.712 42.8956 59.6187 43.5686 58.7087 43.5686C58.3389 43.5686 58.0409 43.4389 57.8146 43.1794C57.5879 42.9203 57.4749 42.5728 57.4749 42.1369C57.4749 41.5465 57.718 40.644 58.2038 39.4306C58.4629 38.7793 58.593 38.3648 58.593 38.1889C58.593 38.0121 58.5235 37.9237 58.3862 37.9237C58.3091 37.9237 58.2064 37.9626 58.0798 38.0393C57.9633 38.1165 57.8282 38.225 57.6737 38.3626C57.5361 38.4893 57.3811 38.6438 57.2102 38.8253C57.0608 38.9811 56.9007 39.1575 56.7306 39.3554L56.2664 39.8939C56.0627 40.142 55.9356 40.4037 55.8861 40.6799C55.8029 41.1489 55.748 41.5798 55.7201 41.972C55.7033 42.2637 55.6953 42.6579 55.6953 43.1556L53.8659 43.5852C53.8057 42.8403 53.7747 42.2856 53.7747 41.9219C53.7747 41.8226 53.776 41.7239 53.7786 41.6257C53.7878 41.2762 53.8135 40.934 53.8555 40.5992C53.9073 40.1873 53.9839 39.7866 54.0855 39.3973C54.2923 38.6021 54.6245 37.7087 55.0828 36.715L57.1021 36.3263C56.6775 37.4688 56.3989 38.3678 56.2664 39.0241C57.1715 38.0145 57.889 37.3156 58.4208 36.926C58.9518 36.5368 59.4246 36.3431 59.8378 36.3431C60.1185 36.3431 60.3532 36.449 60.5401 36.661C60.7279 36.8732 60.8213 37.1397 60.8213 37.4582C60.8213 37.9875 60.584 38.8594 60.1101 40.0739C59.7842 40.9068 59.6213 41.4473 59.6213 41.6969C59.6213 42.0291 59.7568 42.195 60.0278 42.195C60.4312 42.195 61.0847 41.6623 61.9865 40.5974V41.5484Z" fill="white"/>
<path d="M29.4728 38.3127C30.0634 37.5336 30.6325 36.6599 31.1781 35.6933C31.6138 34.7262 31.8314 33.8944 31.8314 33.1975C31.8314 32.9944 31.8014 32.8293 31.7411 32.7052C31.6804 32.5809 31.6026 32.5185 31.509 32.5185C31.3056 32.5185 31.0085 33.0268 30.6193 34.0435C30.2301 35.0601 29.738 36.4834 29.4728 38.3127Z" fill="#F89939"/>
<path fill-rule="evenodd" clip-rule="evenodd" d="M26.9402 22.2492L26.9342 22.2552L26.9319 22.2576C19.623 29.5785 21.7396 43.5512 24.2238 46.0359C26.2321 48.0441 40.6908 50.6374 48.0092 43.319C48.5336 42.7946 49.0267 42.2532 49.4881 41.6976C49.6028 40.9749 50.0084 40.0676 50.7043 38.9748C50.2957 39.1847 49.8492 39.3303 49.3634 39.4133C49.0046 40.0755 48.4413 40.7877 47.6745 41.5484C46.7915 42.3871 46.1596 42.9341 45.7793 43.1882C45.3985 43.4419 45.0344 43.5686 44.6864 43.5686C43.8145 43.5686 43.4036 42.799 43.4531 41.2593C42.9014 42.0481 42.392 42.6303 41.9257 43.0063C41.4598 43.3814 40.9785 43.5686 40.4812 43.5686C39.9963 43.5686 39.584 43.3415 39.244 42.8861C38.9772 42.5287 38.8158 42.1078 38.7588 41.6227C38.0885 42.2755 37.4849 42.7603 36.9475 43.0759C36.3899 43.4043 35.6653 43.5684 35.1017 43.5684C34.2412 43.5684 33.6357 43.3283 33.2843 42.8487C32.879 42.5072 32.6456 42.0897 32.5838 41.5956C31.7525 42.2622 31.1141 42.756 30.669 43.0759C29.9934 43.4043 29.454 43.5684 29.0508 43.5684C28.3504 43.5684 27.8741 43.3395 27.623 42.8816C27.1512 42.4232 26.971 41.8086 27.081 41.0354C26.971 39.8769 27.2221 38.486 27.8343 36.8644C28.3357 35.2414 28.9462 33.746 29.6632 32.3778L31.7657 31.5994C31.8316 31.5774 31.8818 31.5661 31.915 31.5661C32.0745 31.5661 32.2064 31.6837 32.3075 31.9177C32.4097 32.1528 32.4611 32.4688 32.4611 32.866C32.4611 33.9917 32.202 35.0815 31.6827 36.1354C31.0536 37.1898 30.2428 38.3151 29.2494 39.5125C29.0951 40.0865 29.073 40.4807 29.183 40.6961C29.073 41.1765 29.1612 41.5566 29.4478 41.8382C29.5145 42.1202 29.7488 42.2603 30.1514 42.2603C30.3398 42.2603 30.6569 42.1535 31.1036 41.9383C31.3234 41.7286 31.8147 41.3006 32.5769 40.6527C32.5576 39.6015 32.9686 38.6434 33.8111 37.7787C34.5115 36.8319 35.4114 36.3589 36.509 36.3589C36.9123 36.3589 37.4329 36.4918 37.7423 36.7565C38.0513 37.0217 38.2059 37.369 38.2059 37.7995C38.2059 38.942 36.992 39.8684 34.5641 40.5805C34.7845 41.6561 35.3611 42.1946 36.2938 42.1946C36.6581 42.1946 37.0054 42.0967 37.3363 41.9013C37.657 41.7116 38.1342 41.2984 38.7691 40.6631C38.8477 40.033 39.0637 39.426 39.4174 38.8422C39.8731 38.0916 40.4566 37.4852 41.1682 37.0217C41.8799 36.5581 42.5096 36.3261 43.0553 36.3261C43.7453 36.3261 44.2283 36.6435 44.5043 37.2778L46.1959 36.3429H46.6601L45.9295 38.7678C45.5543 39.9877 45.3661 40.8238 45.3661 41.2761C45.3661 41.7505 45.534 41.9878 45.8709 41.9878C46.0853 41.9878 46.3226 41.8735 46.5821 41.6442C46.8417 41.4149 47.2051 41.0659 47.6741 40.5969L47.6741 40.6024C48.0298 40.2135 48.3558 39.8005 48.6518 39.3636C48.1765 39.1538 47.9397 38.8419 47.9397 38.4287C47.9397 38.0032 48.084 37.5496 48.3745 37.0662C48.6641 36.5839 49.0626 36.3427 49.5706 36.3427C50.0011 36.3427 50.2159 36.5627 50.2159 37.0044C50.2159 37.3521 50.0919 37.8485 49.8431 38.4944C50.759 38.3948 51.5592 37.6946 52.2439 36.392L52.7895 36.3678C55.446 30.2712 54.8704 23.6765 50.726 19.5324C44.9081 13.7146 34.2591 14.9308 26.9402 22.2492ZM44.5243 30.9632H44.1103V33.5772H44.5243V30.9632ZM40.9182 30.9632H40.5042L40.5002 33.5772H40.9182V30.9632ZM39.5102 30.9972C39.3622 30.9272 39.1942 30.8872 39.0182 30.8872H38.9982L39.0082 30.8812H38.9962C38.8262 30.8812 38.6662 30.9172 38.5302 30.9812L38.5242 30.9832C38.3802 31.0492 38.2562 31.1492 38.1562 31.2732L38.1582 31.2712C38.0522 31.4032 37.9702 31.5552 37.9182 31.7292L37.9222 31.7152C37.8682 31.8932 37.8382 32.0832 37.8382 32.2812V32.3092V32.3492C37.8382 32.5992 37.8902 32.8392 37.9802 33.0432L37.9822 33.0512C38.0682 33.2412 38.2062 33.4052 38.3822 33.5232L38.3782 33.5212C38.5502 33.6272 38.7542 33.6892 38.9702 33.6892H38.9962H39.0222C39.2102 33.6892 39.3862 33.6452 39.5362 33.5692L39.5402 33.5672C39.6902 33.4912 39.8142 33.3732 39.9002 33.2252L39.8962 33.2312C39.9902 33.0672 40.0482 32.8792 40.0622 32.6752H39.6442C39.5722 33.0952 39.3582 33.3052 39.0042 33.3052H38.9882C38.8462 33.3052 38.7142 33.2612 38.6102 33.1852L38.6082 33.1832C38.4982 33.0992 38.4102 32.9852 38.3582 32.8472L38.3622 32.8572C38.3022 32.6992 38.2702 32.5272 38.2702 32.3492V32.3132V32.2752C38.2702 32.0872 38.3022 31.9072 38.3562 31.7512L38.3582 31.7452C38.4042 31.6052 38.4922 31.4832 38.6062 31.3912L38.6042 31.3932C38.7082 31.3152 38.8382 31.2672 38.9782 31.2672H38.9902H39.0162C39.1702 31.2672 39.3102 31.3232 39.4162 31.4172C39.5262 31.5252 39.5982 31.6712 39.6102 31.8372H40.0302V31.8332C40.0222 31.7232 40.0002 31.6152 39.9722 31.5232L39.9702 31.5172C39.8942 31.2872 39.7262 31.0972 39.5042 30.9932L39.5102 30.9972ZM36.4502 30.8872C36.6222 30.8872 36.7862 30.9232 36.9362 30.9852L36.9282 30.9812C37.0662 31.0372 37.1762 31.1332 37.2522 31.2532L37.2542 31.2552C37.3242 31.3732 37.3662 31.5152 37.3662 31.6672V31.6872H36.9262C36.9102 31.4092 36.7382 31.2692 36.4062 31.2692C36.4005 31.2692 36.3942 31.2688 36.3878 31.2683C36.3808 31.2678 36.3735 31.2672 36.3662 31.2672C36.2302 31.2672 36.1022 31.3052 35.9942 31.3732L35.9982 31.3712C35.9062 31.4312 35.8482 31.5352 35.8482 31.6512V31.6652C35.8482 31.7552 35.8922 31.8372 35.9602 31.8852C36.0662 31.9572 36.1922 32.0112 36.3302 32.0352H36.3362L36.7362 32.1332C36.9522 32.1712 37.1422 32.2652 37.2982 32.3972C37.4053 32.5091 37.4722 32.66 37.4722 32.8272V32.8612V32.8752C37.4722 33.0332 37.4242 33.1792 37.3402 33.2992L37.3422 33.2972C37.2482 33.4272 37.1182 33.5272 36.9682 33.5852L36.9622 33.5872C36.8022 33.6512 36.6182 33.6892 36.4242 33.6892H36.3982C36.3742 33.6912 36.3442 33.6912 36.3162 33.6912C36.0562 33.6912 35.8162 33.6072 35.6222 33.4652L35.6262 33.4672C35.4582 33.3072 35.3522 33.0812 35.3522 32.8312V32.7952H35.7922C35.7981 32.8714 35.8135 32.9399 35.8347 33.0063C35.8547 33.0579 35.8845 33.1035 35.9202 33.1412C36.0422 33.2432 36.2002 33.3052 36.3742 33.3052C36.3942 33.3052 36.4142 33.3052 36.4342 33.3032H36.4702C36.6202 33.3032 36.7582 33.2612 36.8782 33.1872L36.8742 33.1892C36.9762 33.1272 37.0422 33.0172 37.0422 32.8912V32.8812C37.0422 32.7952 37.0062 32.7192 36.9482 32.6672C36.8622 32.5992 36.7562 32.5512 36.6422 32.5312H36.6382L36.2482 32.4372C36.0902 32.3992 35.9582 32.3552 35.8302 32.3052L35.8522 32.3132C35.7582 32.2732 35.6782 32.2212 35.6062 32.1592C35.5442 32.1032 35.4942 32.0332 35.4622 31.9552L35.4602 31.9512C35.4342 31.8772 35.4202 31.7912 35.4202 31.7012V31.6832V31.6812V31.6592C35.4202 31.4332 35.5262 31.2332 35.6922 31.1032L35.6942 31.1012C35.8782 30.9652 36.1102 30.8832 36.3602 30.8832C36.3802 30.8832 36.4002 30.8832 36.4222 30.8852L36.4102 30.8872H36.4502ZM45.7262 30.2432H45.3122V30.9652H44.9603V31.3052H45.3122V33.2772V33.3012C45.3122 33.4152 45.3622 33.5152 45.4422 33.5852L45.4402 33.5832C45.5342 33.6532 45.6522 33.6932 45.7782 33.6932L45.7867 33.693L45.7944 33.6926L45.7998 33.6922C45.8062 33.6917 45.8125 33.6912 45.8182 33.6912C45.9382 33.6892 46.0542 33.6772 46.1562 33.6572V33.3052L46.1602 33.3032C46.1042 33.3192 46.0462 33.3292 45.9862 33.3292H45.9622C45.9462 33.3332 45.9302 33.3352 45.9122 33.3352C45.8062 33.3352 45.7202 33.2492 45.7202 33.1432C45.7202 33.1252 45.7222 33.1092 45.7262 33.0932V31.3012H46.1562V30.9632H45.7262V30.2432ZM44.5243 29.9372H44.1103V30.4612H44.5243V29.9372ZM41.9863 29.9372H41.5723L41.5743 33.5752H41.9883V32.5512L42.3983 32.1372L43.2903 33.5752H43.7842L42.7143 31.8652L43.6242 30.9612H43.1363L41.9863 32.0992V29.9372ZM40.9182 29.9372H40.5042L40.5002 30.4612H40.9182V29.9372Z" fill="#F89939"/>
<path d="M34.4973 40.0176C35.9095 39.6199 36.6162 38.8865 36.6162 37.8159C36.6162 37.2862 36.4228 37.0215 36.037 37.0215C35.6727 37.0215 35.3254 37.2983 34.9945 37.8535C34.6626 38.4078 34.4973 39.1287 34.4973 40.0176Z" fill="#F89939"/>
<path d="M36.9362 30.9852C36.7862 30.9232 36.6222 30.8872 36.4502 30.8872H36.4102L36.4222 30.8852C36.4002 30.8832 36.3802 30.8832 36.3602 30.8832C36.1102 30.8832 35.8782 30.9652 35.6942 31.1012L35.6922 31.1032C35.5262 31.2332 35.4202 31.4332 35.4202 31.6592V31.6812V31.6832V31.7012C35.4202 31.7912 35.4342 31.8772 35.4602 31.9512L35.4622 31.9552C35.4942 32.0332 35.5442 32.1032 35.6062 32.1592C35.6782 32.2212 35.7582 32.2732 35.8522 32.3132L35.8302 32.3052C35.9582 32.3552 36.0902 32.3992 36.2482 32.4372L36.6382 32.5312H36.6422C36.7562 32.5512 36.8622 32.5992 36.9482 32.6672C37.0062 32.7192 37.0422 32.7952 37.0422 32.8812V32.8912C37.0422 33.0172 36.9762 33.1272 36.8742 33.1892L36.8782 33.1872C36.7582 33.2612 36.6202 33.3032 36.4702 33.3032H36.4342C36.4142 33.3052 36.3942 33.3052 36.3742 33.3052C36.2002 33.3052 36.0422 33.2432 35.9202 33.1412C35.8845 33.1035 35.8547 33.0579 35.8347 33.0063L35.8362 33.0112L35.8342 33.0052L35.8347 33.0063C35.8135 32.9399 35.7981 32.8714 35.7922 32.7952H35.3522V32.8312C35.3522 33.0812 35.4582 33.3072 35.6262 33.4672L35.6222 33.4652C35.8162 33.6072 36.0562 33.6912 36.3162 33.6912C36.3442 33.6912 36.3742 33.6912 36.3982 33.6892H36.4242C36.6182 33.6892 36.8022 33.6512 36.9622 33.5872L36.9682 33.5852C37.1182 33.5272 37.2482 33.4272 37.3422 33.2972L37.3402 33.2992C37.4242 33.1792 37.4722 33.0332 37.4722 32.8752V32.8612V32.8272C37.4722 32.66 37.4053 32.5091 37.2982 32.3972C37.1422 32.2652 36.9522 32.1712 36.7362 32.1332L36.3362 32.0352H36.3302C36.1922 32.0112 36.0662 31.9572 35.9602 31.8852C35.8922 31.8372 35.8482 31.7552 35.8482 31.6652V31.6512C35.8482 31.5352 35.9062 31.4312 35.9982 31.3712L35.9942 31.3732C36.1022 31.3052 36.2302 31.2672 36.3662 31.2672C36.3735 31.2672 36.3808 31.2678 36.3878 31.2683C36.3942 31.2688 36.4005 31.2692 36.4062 31.2692C36.7382 31.2692 36.9102 31.4092 36.9262 31.6872H37.3662V31.6672C37.3662 31.5152 37.3242 31.3732 37.2542 31.2552L37.2522 31.2532C37.1762 31.1332 37.0662 31.0372 36.9282 30.9812L36.9362 30.9852Z" fill="white"/>
<path d="M39.0182 30.8872C39.1942 30.8872 39.3622 30.9272 39.5102 30.9972L39.5042 30.9932C39.7262 31.0972 39.8942 31.2872 39.9702 31.5172L39.9722 31.5232C40.0002 31.6152 40.0222 31.7232 40.0302 31.8332V31.8372H39.6102C39.5982 31.6712 39.5262 31.5252 39.4162 31.4172C39.3102 31.3232 39.1702 31.2672 39.0162 31.2672H38.9902H38.9782C38.8382 31.2672 38.7082 31.3152 38.6042 31.3932L38.6062 31.3912C38.4922 31.4832 38.4042 31.6052 38.3582 31.7452L38.3562 31.7512C38.3022 31.9072 38.2702 32.0872 38.2702 32.2752V32.3132V32.3492C38.2702 32.5272 38.3022 32.6992 38.3622 32.8572L38.3582 32.8472C38.4102 32.9852 38.4982 33.0992 38.6082 33.1832L38.6102 33.1852C38.7142 33.2612 38.8462 33.3052 38.9882 33.3052H39.0042C39.3582 33.3052 39.5722 33.0952 39.6442 32.6752H40.0622C40.0482 32.8792 39.9902 33.0672 39.8962 33.2312L39.9002 33.2252C39.8142 33.3732 39.6902 33.4912 39.5402 33.5672L39.5362 33.5692C39.3862 33.6452 39.2102 33.6892 39.0222 33.6892H38.9962H38.9702C38.7542 33.6892 38.5502 33.6272 38.3782 33.5212L38.3822 33.5232C38.2062 33.4052 38.0682 33.2412 37.9822 33.0512L37.9802 33.0432C37.8902 32.8392 37.8382 32.5992 37.8382 32.3492V32.3092V32.2812C37.8382 32.0832 37.8682 31.8932 37.9222 31.7152L37.9182 31.7292C37.9702 31.5552 38.0522 31.4032 38.1582 31.2712L38.1562 31.2732C38.2562 31.1492 38.3802 31.0492 38.5242 30.9832L38.5302 30.9812C38.6662 30.9172 38.8262 30.8812 38.9962 30.8812H39.0082L38.9982 30.8872H39.0182Z" fill="white"/>
<path d="M40.5042 30.9632H40.9182V33.5772H40.5002L40.5042 30.9632Z" fill="white"/>
<path d="M41.6156 42.0042C42.1673 42.0042 42.6872 41.534 43.1765 40.5933C43.6649 39.6521 43.9089 38.7838 43.9089 37.9894C43.9089 37.6808 43.8393 37.439 43.7021 37.2655C43.5636 37.0911 43.3788 37.0046 43.1476 37.0046C42.5954 37.0046 42.072 37.4736 41.5791 38.4119C41.0853 39.3502 40.8378 40.2138 40.8378 41.0021C40.8378 41.3006 40.9113 41.5419 41.0574 41.7269C41.2035 41.9119 41.3889 42.0042 41.6156 42.0042Z" fill="#F89939"/>
<path fill-rule="evenodd" clip-rule="evenodd" d="M53.8555 40.5992C53.8135 40.934 53.7878 41.2762 53.7786 41.6257C53.805 41.6002 53.8314 41.5745 53.8579 41.5484L53.8582 40.5967L53.8555 40.5992ZM44.5243 30.9632H44.1103V33.5772H44.5243V30.9632ZM45.7262 30.2432H45.3122V30.9652H44.9603V31.3052H45.3122V33.2772V33.3012C45.3122 33.4152 45.3622 33.5152 45.4422 33.5852L45.4402 33.5832C45.5342 33.6532 45.6522 33.6932 45.7782 33.6932L45.7867 33.693L45.7944 33.6926L45.7998 33.6922C45.8062 33.6917 45.8125 33.6912 45.8182 33.6912C45.9382 33.6892 46.0542 33.6772 46.1562 33.6572V33.3052L46.1602 33.3032C46.1042 33.3192 46.0462 33.3292 45.9862 33.3292H45.9622C45.9462 33.3332 45.9302 33.3352 45.9122 33.3352C45.8062 33.3352 45.7202 33.2492 45.7202 33.1432C45.7202 33.1252 45.7222 33.1092 45.7262 33.0932V31.3012H46.1562V30.9632H45.7262V30.2432ZM44.5243 29.9372H44.1103V30.4612H44.5243V29.9372ZM41.9863 29.9372H41.5723L41.5743 33.5752H41.9883V32.5512L42.3983 32.1372L43.2903 33.5752H43.7842L42.7143 31.8652L43.6242 30.9612H43.1363L41.9863 32.0992V29.9372ZM40.9182 29.9372H40.5042L40.5002 30.4612H40.9182V29.9372ZM35.8347 33.0063L35.8342 33.0052L35.8362 33.0112L35.8347 33.0063Z" fill="white"/>
<path d="M49.8019 43.1595C50.0331 43.4428 50.3175 43.585 50.6544 43.585C51.3903 43.585 52.4319 42.9316 53.7786 41.6257C53.7878 41.2762 53.8135 40.934 53.8555 40.5992C53.2221 41.2102 52.8146 41.5828 52.6328 41.7189C52.4509 41.8534 52.2601 41.9212 52.0617 41.9212C51.8797 41.9212 51.7345 41.8529 51.6269 41.714C51.5197 41.577 51.4657 41.3915 51.4657 41.1594C51.4657 40.9116 51.513 40.6255 51.6066 40.303C51.7001 39.9806 51.9072 39.3716 52.227 38.4776L52.9968 36.3587L52.7895 36.3678C51.9835 38.2178 50.8799 40.0218 49.4881 41.6976C49.4655 41.84 49.4542 41.9753 49.4542 42.1034C49.4542 42.5231 49.5706 42.8751 49.8019 43.1595Z" fill="white"/>
<path d="M9.79655 29.0159C9.69255 29.0119 9.57255 29.0079 9.45055 29.0079C7.38943 29.0079 5.52038 29.8229 4.14455 31.1499C2.84455 32.8159 2.06055 34.9399 2.06055 37.2479C2.06055 40.3519 3.48055 43.1239 5.70455 44.9499L5.72255 44.9639C7.90655 46.7859 10.7445 47.8899 13.8385 47.8899C15.9145 47.8899 17.8765 47.3919 19.6065 46.5099L19.5345 46.5439C20.3205 44.8979 20.7785 42.9639 20.7785 40.9259C20.7785 37.8346 19.7254 34.9895 17.9585 32.7299C15.8805 30.5679 13.0125 29.1759 9.82255 29.0179L9.79655 29.0159Z" fill="#3499CD"/>
</svg>
