<svg width="64" height="64" viewBox="0 0 64 64" fill="none" xmlns="http://www.w3.org/2000/svg">
<path d="M36.0185 36.9879C35.6545 36.9879 35.3065 37.2619 34.9765 37.8199C34.6586 38.3939 34.4725 39.0779 34.4725 39.8059C34.4725 39.8679 34.4745 39.9319 34.4765 39.9939V39.9859C35.8912 39.5886 36.5985 38.8546 36.5985 37.7839C36.5985 37.2539 36.4065 36.9899 36.0185 36.9899V36.9879ZM43.1365 36.9719C42.5845 36.9719 42.0605 37.4413 41.5645 38.3799C41.1305 39.1259 40.8605 40.0139 40.8245 40.9639V40.9739C40.8245 40.9899 40.8225 41.0099 40.8225 41.0279C40.8225 41.2799 40.9065 41.5139 41.0465 41.6999L41.0445 41.6979C41.1705 41.8679 41.3685 41.9759 41.5945 41.9759C41.5965 41.9759 41.6005 41.9759 41.6025 41.9759C42.1545 41.9759 42.6765 41.5059 43.1645 40.5639C43.5965 39.8139 43.8645 38.9199 43.8985 37.9679V37.9579C43.9005 37.9379 43.9005 37.9159 43.9005 37.8919C43.9005 37.6459 43.8225 37.4159 43.6885 37.2299L43.6905 37.2339C43.5665 37.0739 43.3745 36.9739 43.1585 36.9739C43.1505 36.9739 43.1425 36.9739 43.1345 36.9739L43.1365 36.9719ZM31.4865 32.4799C31.2865 32.4799 30.9865 32.9899 30.5965 34.0079C30.1606 35.1899 29.7646 36.6239 29.4785 38.0979L29.4485 38.2799C30.1285 37.5279 30.7005 36.6619 31.1305 35.7179L31.1565 35.6559C31.5285 34.9299 31.7645 34.0759 31.8105 33.1739V33.1599C31.8105 33.1459 31.8105 33.1299 31.8105 33.1139C31.8105 32.9519 31.7765 32.7999 31.7165 32.6599L31.7185 32.6679C31.6559 32.5426 31.5786 32.4799 31.4865 32.4799ZM44.1065 30.9359H44.5205V33.5499H44.1065V30.9359ZM40.5005 30.9359H40.9145V33.5499H40.4965L40.5005 30.9359ZM38.9945 30.8599C39.0005 30.8599 39.0065 30.8599 39.0145 30.8599C39.1905 30.8599 39.3585 30.8999 39.5065 30.9699L39.5005 30.9659C39.7225 31.0699 39.8905 31.2599 39.9665 31.4899L39.9685 31.4959C39.9965 31.5879 40.0185 31.6959 40.0265 31.8059V31.8099H39.6065C39.5945 31.6439 39.5225 31.4979 39.4125 31.3899C39.3065 31.2959 39.1665 31.2399 39.0125 31.2399C39.0025 31.2399 38.9945 31.2399 38.9865 31.2399C38.9825 31.2399 38.9785 31.2399 38.9745 31.2399C38.8345 31.2399 38.7045 31.2879 38.6005 31.3659L38.6025 31.3639C38.4885 31.4559 38.4005 31.5779 38.3545 31.7179L38.3525 31.7239C38.2985 31.8799 38.2665 32.0599 38.2665 32.2479C38.2665 32.2599 38.2665 32.2719 38.2665 32.2859C38.2665 32.2979 38.2665 32.3079 38.2665 32.3219C38.2665 32.4999 38.2985 32.6719 38.3585 32.8299L38.3545 32.8199C38.4065 32.9579 38.4945 33.0719 38.6045 33.1559L38.6065 33.1579C38.7105 33.2339 38.8425 33.2779 38.9845 33.2779C38.9905 33.2779 38.9945 33.2779 39.0005 33.2779C39.3545 33.2779 39.5685 33.0679 39.6405 32.6479H40.0585C40.0445 32.8519 39.9865 33.0399 39.8925 33.2039L39.8965 33.1979C39.8105 33.3459 39.6865 33.4639 39.5365 33.5399L39.5325 33.5419C39.3825 33.6179 39.2065 33.6619 39.0185 33.6619C39.0085 33.6619 39.0005 33.6619 38.9925 33.6619C38.9845 33.6619 38.9765 33.6619 38.9665 33.6619C38.7505 33.6619 38.5465 33.5999 38.3745 33.4939L38.3785 33.4959C38.2025 33.3779 38.0645 33.2139 37.9785 33.0239L37.9765 33.0159C37.8865 32.8119 37.8345 32.5719 37.8345 32.3219C37.8345 32.3079 37.8345 32.2959 37.8345 32.2819C37.8345 32.2739 37.8345 32.2639 37.8345 32.2539C37.8345 32.0559 37.8645 31.8659 37.9185 31.6879L37.9145 31.7019C37.9665 31.5279 38.0485 31.3759 38.1545 31.2439L38.1525 31.2459C38.2525 31.1219 38.3765 31.0219 38.5205 30.9559L38.5265 30.9539C38.6625 30.8899 38.8225 30.8539 38.9925 30.8539C38.9965 30.8539 39.0005 30.8539 39.0045 30.8539L38.9945 30.8599ZM36.4065 30.8599C36.4185 30.8599 36.4325 30.8599 36.4465 30.8599C36.6185 30.8599 36.7825 30.8959 36.9325 30.9579L36.9245 30.9539C37.0625 31.0099 37.1726 31.1059 37.2485 31.2259L37.2505 31.2279C37.3205 31.3459 37.3625 31.4879 37.3625 31.6399C37.3625 31.6479 37.3625 31.6539 37.3625 31.6619V31.6599H36.9225C36.9065 31.3819 36.7345 31.2419 36.4025 31.2419C36.3905 31.2419 36.3765 31.2399 36.3625 31.2399C36.2265 31.2399 36.0985 31.2779 35.9905 31.3459L35.9945 31.3439C35.9025 31.4039 35.8445 31.5079 35.8445 31.6239C35.8445 31.6279 35.8445 31.6339 35.8445 31.6379C35.8445 31.7279 35.8885 31.8099 35.9565 31.8579C36.0625 31.9299 36.1885 31.9839 36.3265 32.0079H36.3325L36.7325 32.1059C36.9485 32.1439 37.1385 32.2379 37.2945 32.3699L37.2925 32.3679C37.4005 32.4799 37.4685 32.6319 37.4685 32.7999C37.4685 32.8119 37.4685 32.8219 37.4685 32.8339C37.4685 32.8379 37.4685 32.8419 37.4685 32.8479C37.4685 33.0059 37.4205 33.1519 37.3365 33.2719L37.3385 33.2699C37.2445 33.3999 37.1145 33.4999 36.9645 33.5579L36.9585 33.5599C36.7985 33.6239 36.6145 33.6619 36.4205 33.6619C36.4105 33.6619 36.4025 33.6619 36.3925 33.6619H36.3945C36.3705 33.6639 36.3405 33.6639 36.3125 33.6639C36.0525 33.6639 35.8125 33.5799 35.6185 33.4379L35.6225 33.4399C35.4545 33.2799 35.3485 33.0539 35.3485 32.8039C35.3485 32.7919 35.3485 32.7779 35.3485 32.7659V32.7679H35.7885C35.7945 32.8459 35.8105 32.9159 35.8325 32.9839L35.8305 32.9779C35.8505 33.0299 35.8805 33.0759 35.9165 33.1139C36.0385 33.2159 36.1965 33.2779 36.3705 33.2779C36.3905 33.2779 36.4105 33.2779 36.4305 33.2759C36.4425 33.2759 36.4545 33.2759 36.4665 33.2759C36.6165 33.2759 36.7545 33.2339 36.8745 33.1599L36.8705 33.1619C36.9725 33.0999 37.0385 32.9899 37.0385 32.8639C37.0385 32.8599 37.0385 32.8579 37.0385 32.8539C37.0385 32.7679 37.0025 32.6919 36.9445 32.6399C36.8585 32.5719 36.7525 32.5239 36.6385 32.5039H36.6345L36.2445 32.4099C36.0865 32.3719 35.9545 32.3279 35.8265 32.2779L35.8485 32.2859C35.7545 32.2459 35.6745 32.1939 35.6025 32.1319C35.5406 32.0759 35.4905 32.0059 35.4585 31.9279L35.4565 31.9239C35.4305 31.8499 35.4165 31.7639 35.4165 31.6739C35.4165 31.6679 35.4165 31.6599 35.4165 31.6539V31.6559C35.4165 31.6479 35.4165 31.6399 35.4165 31.6319C35.4165 31.4059 35.5225 31.2059 35.6885 31.0759L35.6905 31.0739C35.8745 30.9379 36.1065 30.8559 36.3565 30.8559C36.3765 30.8559 36.3965 30.8559 36.4185 30.8579L36.4065 30.8599ZM45.3085 30.2159H45.7225V30.9359H46.1525V31.2739H45.7225V33.0659C45.7185 33.0819 45.7165 33.0979 45.7165 33.1159C45.7165 33.2219 45.8025 33.3079 45.9085 33.3079C45.9265 33.3079 45.9425 33.3059 45.9585 33.3019C45.9665 33.3019 45.9725 33.3019 45.9825 33.3019C46.0425 33.3019 46.1005 33.2919 46.1565 33.2759L46.1525 33.2779V33.6299C46.0505 33.6499 45.9345 33.6619 45.8145 33.6639C45.8025 33.6639 45.7885 33.6659 45.7745 33.6659C45.6485 33.6659 45.5305 33.6259 45.4365 33.5559L45.4385 33.5579C45.3585 33.4879 45.3085 33.3879 45.3085 33.2739C45.3085 33.2659 45.3085 33.2579 45.3085 33.2499V31.2779H44.9565V30.9379H45.3085V30.2159ZM44.1065 29.9099H44.5205V30.4339H44.1065V29.9099ZM41.5685 29.9099H41.9825V32.0719L43.1325 30.9339H43.6205L42.7105 31.8379L43.7805 33.5479H43.2865L42.3945 32.1099L41.9845 32.5239V33.5479H41.5705L41.5685 29.9099ZM40.5005 29.9099H40.9145V30.4339H40.4965L40.5005 29.9099ZM9.79655 29.0159C9.69255 29.0119 9.57255 29.0079 9.45055 29.0079C7.38855 29.0079 5.51855 29.8239 4.14255 31.1519L4.14455 31.1499C2.84455 32.8159 2.06055 34.9399 2.06055 37.2479C2.06055 40.3519 3.48055 43.1239 5.70455 44.9499L5.72255 44.9639C7.90655 46.7859 10.7445 47.8899 13.8385 47.8899C15.9145 47.8899 17.8765 47.3919 19.6065 46.5099L19.5345 46.5439C20.3205 44.8979 20.7785 42.9639 20.7785 40.9259C20.7785 37.8219 19.7165 34.9659 17.9365 32.7019L17.9585 32.7299C15.8805 30.5679 13.0125 29.1759 9.82255 29.0179L9.79655 29.0159ZM52.8085 36.3319C51.8965 38.3879 50.7805 40.1579 49.4485 41.7419L49.4765 41.7079C49.4585 41.8179 49.4485 41.9439 49.4465 42.0739C49.4465 42.0899 49.4465 42.1099 49.4465 42.1279C49.4465 42.5099 49.5785 42.8599 49.8005 43.1379L49.7985 43.1339C49.9945 43.3939 50.3005 43.5579 50.6465 43.5579C51.3866 43.5579 52.4326 42.8979 53.7826 41.5919C53.7806 41.6919 53.7745 41.7919 53.7745 41.8939C53.7745 42.2593 53.8046 42.8139 53.8645 43.5579L55.6965 43.1279C55.6965 42.6279 55.7046 42.2359 55.7206 41.9439C55.7565 41.4539 55.8145 41.0119 55.8965 40.5779L55.8845 40.6519C55.9445 40.3479 56.0785 40.0799 56.2665 39.8619L56.2645 39.8639L56.7285 39.3239C57.0345 38.9679 57.3425 38.6439 57.6665 38.3379L57.6726 38.3319C57.7946 38.2199 57.9265 38.1139 58.0645 38.0159L58.0765 38.0079C58.1626 37.9459 58.2686 37.9059 58.3806 37.8939C58.5186 37.8939 58.5905 37.9819 58.5905 38.1579C58.5085 38.6239 58.3726 39.0419 58.1885 39.4299L58.2006 39.3999C57.8265 40.1899 57.5666 41.1079 57.4725 42.0759L57.4706 42.1099C57.4686 42.1319 57.4685 42.1599 57.4685 42.1859C57.4685 42.5539 57.5965 42.8919 57.8125 43.1559L57.8106 43.1539C58.0186 43.3919 58.3225 43.5419 58.6605 43.5419C58.6765 43.5419 58.6926 43.5419 58.7066 43.5419H58.7045C60.0565 43.3059 61.2066 42.5699 61.9766 41.5359L61.9865 41.5219V40.5699C61.0839 41.6353 60.4305 42.1686 60.0266 42.1699C59.7546 42.1699 59.6185 42.0019 59.6185 41.6699C59.7146 41.0619 59.8846 40.5159 60.1226 40.0079L60.1065 40.0459C60.4625 39.2819 60.7146 38.3959 60.8166 37.4639L60.8205 37.4259C60.8205 37.4139 60.8205 37.3999 60.8205 37.3859C60.8205 37.0959 60.7145 36.8319 60.5385 36.6279L60.5406 36.6299C60.3745 36.4359 60.1286 36.3119 59.8545 36.3119C59.8485 36.3119 59.8405 36.3119 59.8345 36.3119C59.2885 36.3559 58.8006 36.5699 58.4146 36.8979L58.4185 36.8939C57.6245 37.5359 56.9185 38.2239 56.2805 38.9719L56.2626 38.9939C56.5106 37.9339 56.7985 37.0339 57.1465 36.1639L57.1005 36.2939L55.0785 36.6839C54.7105 37.4359 54.3706 38.3279 54.1086 39.2539L54.0806 39.3699C53.9926 39.6959 53.9125 40.1019 53.8565 40.5159L53.8505 40.5699C53.4599 40.9633 53.0519 41.3379 52.6265 41.6939C52.4706 41.8159 52.2705 41.8919 52.0546 41.8939C52.0485 41.8939 52.0406 41.8939 52.0345 41.8939C51.8666 41.8939 51.7165 41.8139 51.6205 41.6899C51.5205 41.5479 51.4585 41.3699 51.4585 41.1799C51.4585 41.1639 51.4585 41.1459 51.4605 41.1299C51.4685 40.8219 51.5186 40.5299 51.6065 40.2519L51.6005 40.2739C51.6945 39.9499 51.9006 39.3419 52.2225 38.4479L52.9925 36.3259L52.8085 36.3319ZM41.0005 15.8299C35.4525 16.1019 30.5106 18.4999 26.9366 22.2219L26.9305 22.2279C19.6085 29.5499 21.7245 43.5459 24.2105 46.0339C25.954 47.7756 37.0516 49.9573 44.7496 45.7422C45.9355 45.0929 47.0407 44.2918 48.0185 43.3139C48.5292 42.8006 49.0159 42.2646 49.4785 41.7059C49.7145 40.6539 50.1385 39.7279 50.7165 38.9179L50.7006 38.9419C50.3125 39.1439 49.8605 39.2979 49.3865 39.3779L49.3585 39.3819C48.8785 40.1979 48.3185 40.8999 47.6725 41.5159L47.6685 41.5199C47.0885 42.0959 46.4685 42.6339 45.8145 43.1259L45.7685 43.1579C45.4646 43.3819 45.0885 43.5219 44.6805 43.5379H44.6765C43.8019 43.5379 43.3905 42.7679 43.4425 41.2279C43.0005 41.8939 42.4965 42.4699 41.9225 42.9679L41.9125 42.9759C41.5265 43.3119 41.0225 43.5219 40.4705 43.5359H40.4685C39.9505 43.5299 39.4985 43.2619 39.2325 42.8599L39.2285 42.8539C38.9685 42.4999 38.7945 42.0679 38.7465 41.5979V41.5879C38.2125 42.1299 37.6165 42.6119 36.9725 43.0199L36.9325 43.0439C36.4145 43.3539 35.7906 43.5359 35.1225 43.5359C35.1085 43.5359 35.0946 43.5359 35.0805 43.5359C35.0505 43.5379 35.0185 43.5379 34.9825 43.5379C34.3105 43.5379 33.7025 43.2619 33.2665 42.8159C32.9345 42.4679 32.7045 42.0179 32.6265 41.5199L32.6245 41.5059V41.5159C32.0406 42.0759 31.3946 42.5799 30.7006 43.0139L30.6505 43.0439C30.1905 43.3359 29.6325 43.5179 29.0325 43.5359H29.0285C29.0145 43.5359 28.9986 43.5359 28.9825 43.5359C28.4205 43.5359 27.9205 43.2679 27.6045 42.8519L27.6005 42.8479C27.2586 42.3779 27.0525 41.7879 27.0525 41.1519C27.0525 41.0999 27.0546 41.0459 27.0565 40.9939V41.0019C27.1066 39.4939 27.3785 38.0659 27.8425 36.7259L27.8125 36.8279C28.3445 35.0919 28.9665 33.6059 29.7125 32.1939L29.6445 32.3379L31.7485 31.5579C31.7925 31.5399 31.8445 31.5299 31.8965 31.5259H31.8986C32.0566 31.5259 32.1886 31.6439 32.2906 31.8759C32.3885 32.1319 32.4445 32.4279 32.4445 32.7359C32.4445 32.7679 32.4446 32.7979 32.4426 32.8299V32.8259C32.4405 34.0199 32.1525 35.1459 31.6425 36.1419L31.6625 36.0999C30.9785 37.3919 30.1686 38.5039 29.2246 39.4839L29.2285 39.4799C29.1832 40.0546 29.1605 40.4493 29.1605 40.6639C29.1586 40.6959 29.1586 40.7319 29.1586 40.7679C29.1586 41.1499 29.2585 41.5079 29.4325 41.8179L29.4265 41.8079C29.5646 42.0599 29.8285 42.2299 30.1305 42.2299C30.4905 42.2159 30.8186 42.0959 31.0905 41.9019L31.0845 41.9059C31.6425 41.4999 32.1345 41.0699 32.5865 40.6019L32.5905 40.5979C32.6705 39.4939 33.1125 38.5059 33.7985 37.7399L33.7945 37.7439C34.4185 36.9099 35.3885 36.3639 36.4865 36.3219H36.4925C36.5185 36.3199 36.5505 36.3199 36.5805 36.3199C37.0165 36.3199 37.4145 36.4719 37.7305 36.7239L37.7265 36.7219C38.0126 36.9639 38.1925 37.3219 38.1925 37.7239C38.1925 37.7379 38.1925 37.7519 38.1925 37.7659C38.1925 38.9113 36.9772 39.8373 34.5465 40.5479C34.7665 41.6219 35.3465 42.1619 36.2785 42.1619C36.6645 42.1619 37.0245 42.0519 37.3285 41.8639L37.3205 41.8699C37.8585 41.4959 38.3305 41.0859 38.7525 40.6339L38.7565 40.6279C38.8485 39.9439 39.0765 39.3299 39.4145 38.7899L39.4025 38.8099C39.8505 38.0699 40.4385 37.4599 41.1345 36.9979L41.1545 36.9839C41.6785 36.5939 42.3285 36.3399 43.0325 36.2899H43.0445C43.0685 36.2879 43.0945 36.2879 43.1205 36.2879C43.7465 36.2879 44.2805 36.6799 44.4905 37.2319L44.4945 37.2419L46.1865 36.3079H46.6505L45.9205 38.7339C45.6485 39.4659 45.4506 40.3159 45.3585 41.1979L45.3545 41.2439C45.3545 41.7179 45.5225 41.9559 45.8585 41.9559C46.1405 41.9299 46.3885 41.8039 46.5705 41.6139C46.8305 41.3846 47.1945 41.0346 47.6625 40.5639V40.5659C48.0045 40.1959 48.3265 39.7919 48.6185 39.3679L48.6425 39.3319C48.2365 39.2039 47.9425 38.8339 47.9305 38.3959C47.9505 37.8859 48.1105 37.4159 48.3725 37.0219L48.3665 37.0319C48.5925 36.5979 49.0385 36.3079 49.5525 36.3079C49.5565 36.3079 49.5605 36.3079 49.5645 36.3079C49.5865 36.3039 49.6125 36.3039 49.6385 36.3039C49.9565 36.3039 50.2165 36.5619 50.2165 36.8819C50.2165 36.9139 50.2146 36.9439 50.2085 36.9739V36.9699C50.1646 37.5179 50.0325 38.0239 49.8245 38.4879L49.8365 38.4579C50.7539 38.3579 51.5546 37.6566 52.2385 36.3539L52.8085 36.3319C53.8666 34.3299 54.4865 31.9519 54.4865 29.4339C54.4865 25.6199 53.0646 22.1379 50.7206 19.4899L50.7346 19.5059C48.3745 17.2219 45.1565 15.8159 41.6085 15.8159C41.3946 15.8159 41.1825 15.8219 40.9705 15.8319L41.0005 15.8299Z" fill="white"/>
</svg>
