<svg width="64" height="64" viewBox="0 0 64 64" fill="none" xmlns="http://www.w3.org/2000/svg">
<g clip-path="url(#clip0_455_553)">
<mask id="mask0_455_553" style="mask-type:luminance" maskUnits="userSpaceOnUse" x="4" y="15" width="56" height="34">
<path d="M4 15H60V48.3818H4V15Z" fill="white"/>
</mask>
<g mask="url(#mask0_455_553)">
<path fill-rule="evenodd" clip-rule="evenodd" d="M32 15C24.5333 15 19.8667 18.7091 18 26.1273C20.8 22.4182 24.0667 21.0273 27.8 21.9545C29.9301 22.4831 31.4524 24.0193 33.1376 25.7182C35.8827 28.4867 39.0601 31.6909 46 31.6909C53.4667 31.6909 58.1333 27.9818 60 20.5636C57.2 24.2727 53.9333 25.6636 50.2 24.7364C48.0699 24.2078 46.5476 22.6716 44.8624 20.9727C42.1173 18.2042 38.9399 15 32 15ZM18 31.6909C10.5333 31.6909 5.86667 35.4 4 42.8182C6.8 39.1091 10.0667 37.7182 13.8 38.6455C15.9301 39.175 17.4524 40.7102 19.1376 42.4092C21.8827 45.1776 25.0601 48.3818 32 48.3818C39.4667 48.3818 44.1333 44.6727 46 37.2545C43.2 40.9636 39.9333 42.3545 36.2 41.4273C34.0699 40.8987 32.5476 39.3625 30.8624 37.6636C28.1173 34.8952 24.9399 31.6909 18 31.6909Z" fill="white"/>
</g>
</g>
<defs>
<clipPath id="clip0_455_553">
<rect width="56" height="34" fill="white" transform="translate(4 15)"/>
</clipPath>
</defs>
</svg>
