<svg width="64" height="64" viewBox="0 0 64 64" fill="none" xmlns="http://www.w3.org/2000/svg">
<g clip-path="url(#clip0_8_392)">
<path fill-rule="evenodd" clip-rule="evenodd" d="M6.25 0H57.75C61.2018 0 64 2.79822 64 6.25V57.75C64 61.2018 61.2018 64 57.75 64H6.25C2.79822 64 0 61.2018 0 57.75V6.25C0 2.79822 2.79822 0 6.25 0ZM39.6174 57.1856V50.928C40.752 51.8798 41.9845 52.5935 43.3148 53.0692C44.6451 53.5451 45.9884 53.783 47.3447 53.783C48.1404 53.783 48.8347 53.7114 49.4282 53.5679C50.0216 53.4245 50.5173 53.2258 50.915 52.9715C51.3128 52.7173 51.6095 52.4175 51.8051 52.072C52.0008 51.7265 52.0986 51.3517 52.0986 50.9476C52.0986 50.4 51.9421 49.9111 51.6291 49.481C51.316 49.0507 50.8889 48.6531 50.3476 48.2881C49.8065 47.9231 49.1641 47.5711 48.4207 47.2321C47.6774 46.8931 46.8752 46.5478 46.0145 46.1958C43.8234 45.2831 42.1899 44.1685 41.114 42.8519C40.038 41.5351 39.5 39.9446 39.5 38.0804C39.5 36.6203 39.7935 35.3655 40.3804 34.3161C40.9672 33.2666 41.766 32.403 42.7767 31.725C43.7876 31.0471 44.9581 30.5485 46.2884 30.2291C47.6186 29.9097 49.0271 29.75 50.514 29.75C51.9746 29.75 53.2691 29.838 54.3973 30.014C55.5254 30.19 56.5655 30.4605 57.5175 30.8255V36.6725C57.048 36.3465 56.5361 36.0598 55.9819 35.812C55.4275 35.5644 54.857 35.359 54.2701 35.196C53.6831 35.0331 53.0995 34.9125 52.5191 34.8343C51.9388 34.7561 51.3877 34.717 50.8661 34.717C50.1487 34.717 49.4968 34.7854 48.9098 34.9222C48.3229 35.0591 47.8274 35.2515 47.423 35.4991C47.0188 35.7469 46.7058 36.0434 46.484 36.3889C46.2623 36.7344 46.1514 37.1223 46.1514 37.5524C46.1514 38.0218 46.2754 38.4421 46.5231 38.8138C46.7709 39.1853 47.123 39.5373 47.5795 39.8698C48.036 40.2021 48.5902 40.528 49.2424 40.8475C49.8945 41.1669 50.6314 41.496 51.453 41.835C52.5746 42.3042 53.5821 42.8029 54.4755 43.3309C55.3689 43.8589 56.1351 44.4554 56.7741 45.1203C57.4132 45.7851 57.9022 46.5445 58.2414 47.3984C58.5805 48.2523 58.75 49.2463 58.75 50.3805C58.75 51.9449 58.4532 53.2583 57.8599 54.3208C57.2665 55.3833 56.4611 56.2438 55.4439 56.902C54.4266 57.5604 53.243 58.033 51.8931 58.3198C50.5432 58.6066 49.1185 58.75 47.6186 58.75C46.0796 58.75 44.6157 58.6196 43.2267 58.3589C41.8377 58.0981 40.6346 57.7071 39.6174 57.1856ZM37.125 35.5103H29.0975V58.375H22.7383V35.5103H14.75V30.375H37.125V35.5103Z" fill="white"/>
</g>
<defs>
<clipPath id="clip0_8_392">
<rect width="64" height="64" fill="white"/>
</clipPath>
</defs>
</svg>
